<svg width="122" height="22" viewBox="0 0 122 22" fill="none" xmlns="http://www.w3.org/2000/svg">
<path fill-rule="evenodd" clip-rule="evenodd" d="M17.903 11.092C17.903 5.0182 22.7541 0 29.8714 0C36.9221 0 41.8332 5.0182 41.8332 11.092C41.8332 17.5505 36.4766 22 29.8714 22C23.2617 22 17.903 17.4861 17.903 11.092ZM20.8047 11.0979C20.8047 15.8647 24.8618 19.8217 29.786 19.8217C34.7079 19.8217 38.956 15.8645 38.956 11.0979C38.956 6.33761 35.1519 2.19106 29.9769 2.19106C24.6703 2.19106 20.8047 6.33761 20.8047 11.0979ZM72.3845 2.52133L74.5089 0.134813H79.0533L72.3845 2.52133ZM82.0455 20.5198H66.3548V2.97152H82.0455V4.8811H69.0447V10.5313H78.8098V12.4705H69.0447V18.6032H82.0455V20.5198ZM108.386 18.6032V2.97152H105.934V20.5198H121.796V18.6032H108.386ZM83.2898 20.5198L92.2126 2.97152H95.6472L104.577 20.5198H101.592L99.2901 15.9778H88.5886L86.3059 20.5198H83.2898ZM93.9226 5.39634L89.718 13.7782H98.1765L93.9226 5.39634ZM57.8405 13.1819C61.8608 12.1092 62.2514 9.11793 62.231 8.04854C61.991 4.91363 59.8789 2.97152 56.0836 2.97152H45.0234V20.5198H47.5447V13.1585H54.7452L60.0424 20.5198H63.2203C63.2202 20.5198 59.4082 15.5656 57.8405 13.1819ZM55.7393 11.0851H47.5447V5.04859H56.0249C57.9773 5.04859 59.0756 5.96007 59.4712 7.11791C59.7329 7.9116 59.5652 8.95348 59.1321 9.66281C58.4234 10.8355 57.0771 11.0851 55.7393 11.0851ZM11.553 9.17948H13.3723L16.6745 2.97152H14.0172L11.553 9.17948ZM2.65893 2.97152V18.6032H16.0664V20.5198H0.205078V2.97152H2.65893Z" fill="#7D90A1"/>
</svg>
