<svg width="118" height="26" viewBox="0 0 118 26" fill="none" xmlns="http://www.w3.org/2000/svg">
<path fill-rule="evenodd" clip-rule="evenodd" d="M12.2637 0.5H0.388672V12.375H12.2637V0.5ZM49.1387 5.5V20.5H46.5345V8.72916H46.4998L41.847 20.5H40.1109L35.354 8.72916H35.3192V20.5H32.9234V5.5H36.6734L40.979 16.6111H41.0484L45.597 5.5H49.1387ZM51.2915 6.64583C51.2915 6.22917 51.4303 5.88194 51.7428 5.60417C52.0553 5.32639 52.4026 5.1875 52.8192 5.1875C53.2706 5.1875 53.6526 5.32639 53.9303 5.60417C54.2081 5.88194 54.3817 6.22917 54.3817 6.64583C54.3817 7.0625 54.2429 7.40972 53.9303 7.6875C53.6178 7.96528 53.2706 8.10416 52.8192 8.10416C52.3678 8.10416 52.0206 7.96528 51.7428 7.6875C51.4651 7.375 51.2915 7.02778 51.2915 6.64583ZM54.104 9.73611V20.5H51.5692V9.73611H54.104ZM61.7776 18.6597C62.1595 18.6597 62.5762 18.5903 63.0276 18.3819C63.479 18.2083 63.8956 17.9653 64.2776 17.6875V20.0486C63.8609 20.2917 63.4095 20.4653 62.8887 20.5694C62.3678 20.6736 61.8123 20.7431 61.1873 20.7431C59.5901 20.7431 58.3054 20.2569 57.3331 19.25C56.3262 18.2431 55.8401 16.9583 55.8401 15.4306C55.8401 13.6944 56.3609 12.2708 57.3679 11.1597C58.3748 10.0486 59.7984 9.49305 61.6734 9.49305C62.1595 9.49305 62.6456 9.5625 63.097 9.66666C63.5831 9.77083 63.9651 9.94444 64.2429 10.0833V12.5139C63.8609 12.2361 63.4442 11.9931 63.0623 11.8542C62.6456 11.7153 62.229 11.6111 61.8123 11.6111C60.8053 11.6111 60.0067 11.9236 59.3817 12.5833C58.7567 13.2431 58.479 14.1111 58.479 15.2222C58.479 16.2986 58.7915 17.1667 59.3817 17.7569C59.972 18.3472 60.7706 18.6597 61.7776 18.6597ZM71.4651 9.5625C71.6734 9.5625 71.847 9.5625 72.0206 9.59722C72.1942 9.63194 72.3331 9.66666 72.4373 9.70139V12.2708C72.2984 12.1667 72.1248 12.0625 71.847 11.9931C71.5692 11.9236 71.2915 11.8542 70.9095 11.8542C70.2845 11.8542 69.7637 12.1319 69.347 12.6528C68.9304 13.1736 68.6873 13.9722 68.6873 15.0833V20.5H66.1526V9.73611H68.6873V11.4375H68.722C68.9651 10.8472 69.3123 10.3958 69.7637 10.0486C70.2498 9.73611 70.8054 9.5625 71.4651 9.5625ZM72.5762 15.2917C72.5762 13.5208 73.097 12.0972 74.0692 11.0556C75.0762 10.0139 76.4651 9.49305 78.2359 9.49305C79.9026 9.49305 81.222 9.97916 82.1595 10.9861C83.097 11.9931 83.5831 13.3472 83.5831 15.0486C83.5831 16.7847 83.0623 18.1736 82.0901 19.2153C81.0831 20.2569 79.729 20.7778 77.9929 20.7778C76.3262 20.7778 75.0067 20.2917 74.0345 19.3194C73.0623 18.3125 72.5762 16.9583 72.5762 15.2917ZM75.2151 15.1875C75.2151 16.2986 75.4581 17.1667 75.979 17.7569C76.4998 18.3472 77.229 18.6597 78.1665 18.6597C79.0692 18.6597 79.7984 18.3819 80.2845 17.7569C80.7706 17.1667 81.0137 16.2986 81.0137 15.1181C81.0137 13.9722 80.7706 13.1042 80.2845 12.4792C79.7984 11.8889 79.0692 11.5764 78.2012 11.5764C77.2637 11.5764 76.5692 11.8889 76.0484 12.5139C75.4581 13.1736 75.2151 14.0417 75.2151 15.1875ZM87.3679 12.5833C87.3679 12.9306 87.472 13.2431 87.7151 13.4514C87.9581 13.6597 88.4442 13.9028 89.2429 14.2153C90.2498 14.6319 90.979 15.0833 91.3609 15.5694C91.7776 16.0903 91.9859 16.6806 91.9859 17.4097C91.9859 18.4167 91.604 19.2153 90.8054 19.8403C90.0415 20.4653 88.9651 20.7431 87.6456 20.7431C87.1942 20.7431 86.7081 20.6736 86.1526 20.5694C85.597 20.4653 85.1456 20.3264 84.7637 20.1528V17.6528C85.2151 17.9653 85.7359 18.243 86.2568 18.4167C86.7776 18.5903 87.2637 18.6944 87.7151 18.6944C88.2706 18.6944 88.722 18.625 88.9651 18.4514C89.2429 18.2778 89.3817 18.0347 89.3817 17.6528C89.3817 17.3056 89.2429 17.0278 88.9651 16.75C88.6873 16.5069 88.1317 16.2292 87.3679 15.9167C86.4304 15.5347 85.7706 15.0833 85.3887 14.5972C85.0067 14.1111 84.7984 13.4861 84.7984 12.7222C84.7984 11.75 85.1804 10.9514 85.9442 10.3264C86.7081 9.70139 87.7151 9.38889 88.9304 9.38889C89.3123 9.38889 89.729 9.42361 90.1804 9.52777C90.6317 9.63194 91.0484 9.73611 91.3609 9.84028V12.3056C91.0137 12.0972 90.6317 11.8889 90.1804 11.7153C89.729 11.5417 89.2776 11.4722 88.8609 11.4722C88.3748 11.4722 87.9929 11.5764 87.7498 11.75C87.5067 11.9931 87.3679 12.2361 87.3679 12.5833ZM93.0623 15.2917C93.0623 13.5208 93.5831 12.0972 94.5554 11.0556C95.5623 10.0139 96.9512 9.49305 98.722 9.49305C100.389 9.49305 101.708 9.97916 102.646 10.9861C103.583 11.9931 104.069 13.3472 104.069 15.0486C104.069 16.7847 103.548 18.1736 102.576 19.2153C101.569 20.2569 100.215 20.7778 98.479 20.7778C96.8123 20.7778 95.4929 20.2917 94.5206 19.3194C93.5831 18.3125 93.0623 16.9583 93.0623 15.2917ZM95.7012 15.1875C95.7012 16.2986 95.9443 17.1667 96.4651 17.7569C96.9859 18.3472 97.7151 18.6597 98.6526 18.6597C99.5554 18.6597 100.285 18.3819 100.771 17.7569C101.257 17.1667 101.5 16.2986 101.5 15.1181C101.5 13.9722 101.257 13.1042 100.771 12.4792C100.285 11.8889 99.5554 11.5764 98.6873 11.5764C97.7498 11.5764 97.0554 11.8889 96.5345 12.5139C95.979 13.1736 95.7012 14.0417 95.7012 15.1875ZM112.507 11.8194H108.722V20.5H106.153V11.8194H104.347V9.73611H106.153V8.24305C106.153 7.13194 106.535 6.19444 107.264 5.46528C107.993 4.73611 108.93 4.38889 110.076 4.38889C110.242 4.38889 110.398 4.39869 110.545 4.40788C110.674 4.41598 110.796 4.42361 110.91 4.42361C111.153 4.42361 111.361 4.49305 111.535 4.5625V6.75C111.465 6.71528 111.291 6.64583 111.083 6.57639C110.875 6.50694 110.632 6.47222 110.354 6.47222C109.833 6.47222 109.416 6.64583 109.139 6.95833C108.861 7.27083 108.722 7.79166 108.722 8.41666V9.70139H112.507V7.27083L115.041 6.50694V9.70139H117.611V11.7847H115.041V16.8194C115.041 17.4792 115.18 17.9306 115.389 18.2083C115.632 18.4861 116.014 18.625 116.535 18.625C116.673 18.625 116.847 18.5903 117.055 18.5208C117.264 18.4514 117.437 18.3819 117.576 18.2778V20.3611C117.403 20.4653 117.16 20.5347 116.778 20.6042C116.396 20.6736 116.048 20.7083 115.666 20.7083C114.59 20.7083 113.791 20.4306 113.271 19.875C112.75 19.3194 112.472 18.4514 112.472 17.3056L112.507 11.8194ZM13.5137 0.5H25.3887V12.375H13.5137V0.5ZM12.2637 13.625H0.388672V25.5H12.2637V13.625ZM13.5137 13.625H25.3887V25.5H13.5137V13.625Z" fill="#7D90A1"/>
</svg>
