<svg width="92" height="24" viewBox="0 0 92 24" fill="none" xmlns="http://www.w3.org/2000/svg">
<path d="M9.0029 2.23722H11.0111C12.2341 2.05705 13.4831 2.21545 14.6224 2.69523C16.0517 3.55516 17.0884 4.93956 17.5114 6.55311C17.8108 7.39867 17.8108 7.39867 18.5331 7.0992H19.0968V0.405165H0.194959V1.58543H0.970057C1.30688 1.5831 1.63995 1.65626 1.94479 1.79953C2.24963 1.94281 2.5185 2.15256 2.73164 2.41338C3.4539 3.57602 3.57721 4.8796 3.57721 11.6617C3.57721 18.8666 3.41866 20.6282 2.73164 21.5266C2.56204 21.7576 2.34245 21.9472 2.08927 22.0814C1.8361 22.2157 1.55588 22.291 1.26953 22.3017C0.194959 22.4955 0.194959 22.4779 0.194959 22.9535C0.135535 23.1125 0.135535 23.2877 0.194959 23.4467H12.1209C12.1998 23.2911 12.241 23.1191 12.241 22.9447C12.241 22.7702 12.1998 22.5982 12.1209 22.4426C11.8321 22.3623 11.5377 22.3034 11.2401 22.2665C10.9182 22.2282 10.6001 22.1634 10.2889 22.0727C9.8432 21.7473 9.49016 21.3113 9.26463 20.8077C9.0391 20.3042 8.94888 19.7504 9.0029 19.2013C8.82674 18.0387 8.73866 15.9071 8.73866 14.1455V12.7539H9.44329C10.3212 12.727 11.1986 12.8219 12.0504 13.0357C12.4585 13.2879 12.8059 13.6271 13.0678 14.0291C13.3297 14.431 13.4996 14.8858 13.5654 15.361L13.7239 15.9071H14.7985V8.1033H13.812L13.6535 8.86079C13.5868 9.34675 13.407 9.81029 13.1286 10.2141C12.8502 10.618 12.4809 10.9509 12.0504 11.1861C11.6336 11.3101 11.1944 11.3402 10.7645 11.2742H8.73866V9.37165C8.73866 7.39867 8.84435 3.24132 8.91482 2.58953L9.0029 2.23722ZM91.4452 16.2066C90.6125 14.8664 89.3138 13.8814 87.7987 13.4409C86.6372 13.0779 85.5636 12.478 84.6454 11.6793C84.4389 11.4795 84.2843 11.2322 84.1953 10.9589C84.1062 10.6856 84.0854 10.3947 84.1346 10.1115C84.136 9.55606 84.3577 9.02386 84.7511 8.63178C85.0178 8.3525 85.3553 8.15089 85.7276 8.0485C86.1 7.94612 86.4931 7.94679 86.8651 8.05046C87.6352 8.26993 88.3315 8.69363 88.8805 9.27665C89.4294 9.85968 89.8104 10.5803 89.9831 11.3622C90.2649 12.155 90.3001 12.155 90.811 11.9436L91.1281 11.8203V7.4339L90.8991 7.32821C89.1648 6.7191 87.3252 6.46742 85.491 6.58834C83.9115 6.62836 82.4038 7.25656 81.2632 8.34993C80.7459 8.83417 80.3407 9.42563 80.076 10.0829C79.8112 10.7402 79.6934 11.4474 79.7306 12.155C79.7405 13.2368 80.17 14.2725 80.9285 15.044C81.7668 15.8684 82.7953 16.4734 83.9232 16.8055C86.6537 17.8801 87.4464 18.5671 87.4464 19.8179C87.4581 20.3453 87.2901 20.861 86.97 21.2804C86.6499 21.6997 86.1966 21.9978 85.6848 22.1255C85.0697 22.2607 84.4326 22.2607 83.8175 22.1255C83.0122 21.813 82.2931 21.3126 81.7201 20.6661C81.1472 20.0196 80.7369 19.2456 80.5233 18.4086L80.2943 17.8449H79.9772C79.8257 17.8561 79.677 17.8918 79.5368 17.9506H79.3607V22.9535H79.6602C80.8503 23.3494 82.0782 23.621 83.3243 23.7638H85.0858C85.8498 23.8199 86.6178 23.7484 87.3583 23.5524C88.2984 23.3789 89.1768 22.9625 89.9061 22.3444C90.6354 21.7263 91.1903 20.9282 91.5156 20.0293C91.7259 19.5272 91.8337 18.9881 91.8327 18.4438C91.9021 17.677 91.7685 16.9054 91.4452 16.2066ZM74.851 7.0992C73.7954 6.656 72.658 6.44101 71.5135 6.46833C70.3689 6.49566 69.2431 6.76468 68.2098 7.25774C67.2386 7.73281 66.3778 8.40626 65.683 9.23461C64.9881 10.063 64.4747 11.0278 64.1758 12.0669C63.7948 13.2004 63.6333 14.3961 63.7002 15.5901C63.6876 16.2397 63.7407 16.8889 63.8587 17.5278C64.1432 19.0988 64.9016 20.5451 66.0321 21.6724C67.1626 22.7998 68.611 23.5542 70.1828 23.8343C71.2064 23.9632 72.2421 23.9632 73.2656 23.8343C74.3277 23.6471 75.3442 23.2584 76.2603 22.6893C77.018 22.2645 77.6594 21.6594 78.1276 20.9277C78.0975 20.8128 78.0446 20.7053 77.9719 20.6115C77.8993 20.5176 77.8084 20.4394 77.7048 20.3816C77.5037 20.4544 77.314 20.5552 77.1411 20.681C76.2649 21.2585 75.2303 21.5479 74.1816 21.509C73.4856 21.556 72.7878 21.4477 72.1389 21.1917C71.4899 20.9358 70.906 20.5387 70.4294 20.0293C70.0608 19.6868 69.7565 19.2811 69.531 18.8314C68.9836 17.7362 68.6887 16.5323 68.6679 15.3082V14.6212H78.427V14.2689C78.4486 13.9169 78.4486 13.5639 78.427 13.2119C78.4235 11.9681 78.0909 10.7473 77.4628 9.67366C76.8347 8.60003 75.9336 7.71179 74.851 7.0992ZM69.9362 13.1943H68.7031V12.155C69.1083 9.49496 70.1124 7.90953 71.3455 7.90953C72.5786 7.90953 73.1071 9.47734 73.3361 12.3487V13.1591H72.2791L69.9362 13.1943ZM44.6046 6.51787C43.9959 6.49427 43.3908 6.62134 42.843 6.88781C41.6524 7.46601 40.6907 8.42767 40.1125 9.61827L39.8835 10.0411V6.51787H39.7954C39.584 6.51787 33.0662 7.82145 32.8548 7.90953C32.6434 7.99761 32.7139 8.01522 32.7139 8.33231C32.7139 8.6494 32.7139 8.70224 32.8548 8.71986L33.5418 8.86079C33.7342 8.86551 33.923 8.91396 34.094 9.00247C34.2649 9.09098 34.4134 9.21723 34.5283 9.37165C34.9687 9.95297 35.0568 10.9747 35.0568 15.3258C35.1438 17.2846 35.0613 19.2473 34.8102 21.1919C34.751 21.4851 34.6024 21.7528 34.3846 21.9579C34.1669 22.163 33.8909 22.2954 33.5947 22.3369L32.9957 22.4602H32.7667V22.9535C32.7028 23.1178 32.7028 23.3001 32.7667 23.4643H42.614V22.9535C42.6481 22.7849 42.6481 22.6112 42.614 22.4426C42.0211 22.4195 41.4315 22.3429 40.8524 22.2136C40.537 22.0487 40.279 21.7921 40.1124 21.4776C39.9457 21.1632 39.8782 20.8056 39.9188 20.452C39.7778 19.4303 39.7074 16.4356 39.7426 14.1455C39.7778 11.8555 39.7426 11.7146 39.9364 11.556C40.5258 11.1041 41.2553 10.8734 41.9974 10.9042C42.697 10.9195 43.3838 11.0942 44.0056 11.4151C44.2212 11.5348 44.4524 11.6237 44.6927 11.6793C44.6927 11.6793 46.4542 7.41629 46.4542 7.22251C46.2288 6.96055 45.9416 6.75894 45.6187 6.6359C45.2957 6.51287 44.9472 6.4723 44.6046 6.51787ZM32.7315 13.9165C32.67 12.6577 32.3086 11.4318 31.6774 10.341C31.0461 9.2501 30.1634 8.32588 29.1026 7.64529C27.842 6.96523 26.4395 6.59025 25.0077 6.55048C23.5759 6.51071 22.1548 6.80725 20.8584 7.41628C19.0254 8.38283 17.6415 10.0259 17.0005 11.9964C16.3384 14.2026 16.3384 16.5547 17.0005 18.7609C17.3476 19.9667 17.9963 21.064 18.8854 21.9494C19.9927 23.0299 21.4206 23.7221 22.9547 23.9224C23.9394 24.0047 24.9294 24.0047 25.9141 23.9224C26.2765 23.8672 26.6353 23.7908 26.9887 23.6934C28.4226 23.2923 29.7126 22.4911 30.7077 21.3836C31.7029 20.2761 32.3621 18.9082 32.6082 17.4397C32.784 16.2739 32.8254 15.0918 32.7315 13.9165ZM25.4033 22.7245C23.6417 23.253 22.3205 21.5442 21.8801 17.9506C21.7184 16.0691 21.7184 14.1773 21.8801 12.2959C22.2324 9.40688 23.1308 7.94476 24.5225 7.94476C24.8032 7.92736 25.0841 7.97745 25.3415 8.09085C25.599 8.20425 25.8255 8.37765 26.0022 8.59655C27.1825 9.77681 27.7638 12.1197 27.7638 15.6429C27.9104 17.6368 27.597 19.6378 26.8478 21.4914C26.517 22.032 26.0051 22.4377 25.4033 22.6364V22.7245ZM57.1118 6.87019C56.6148 6.80623 56.1116 6.80623 55.6145 6.87019C54.6603 6.86938 53.7171 7.07364 52.8488 7.46913L52.3027 7.69814V3.87549C52.3981 2.58542 52.3981 1.29007 52.3027 0C52.0913 0 45.3621 1.28596 45.2564 1.33881C45.2044 1.46887 45.2044 1.61391 45.2564 1.74397C45.2564 2.11391 45.2564 2.09629 46.0491 2.27245C46.2716 2.32236 46.4854 2.4055 46.6832 2.51907C47.0271 2.84243 47.256 3.26922 47.335 3.73457C47.5356 5.07517 47.6005 6.43259 47.5288 7.78622V23.253L48.0044 23.3587C48.7091 23.5172 50.6997 23.8519 51.3515 23.9224C52.653 24.0259 53.9607 24.0259 55.2622 23.9224C56.7068 23.7748 58.0838 23.2358 59.2447 22.3636C60.4057 21.4913 61.3067 20.3188 61.8505 18.9723C62.1747 18.1081 62.3993 17.2098 62.5199 16.2947C62.6248 15.0552 62.5834 13.8076 62.3966 12.5777C62.2076 11.1991 61.5992 9.91205 60.6538 8.89104C59.7084 7.87002 58.4718 7.16451 57.1118 6.87019ZM52.4965 22.425C52.4965 22.196 52.3203 14.4803 52.3556 11.3975V8.9841L52.8664 8.86079C53.2111 8.8114 53.5611 8.8114 53.9058 8.86079C54.2869 8.82203 54.6704 8.90861 54.9979 9.10741C55.6558 9.56144 56.2021 10.1588 56.5957 10.8545C56.9893 11.5502 57.22 12.3261 57.2704 13.1238C57.3987 14.4066 57.3987 15.6989 57.2704 16.9817C57.165 18.8461 56.4466 20.6234 55.2269 22.0375C54.8808 22.3663 54.446 22.5867 53.9762 22.6716C53.6207 22.7335 53.2572 22.7335 52.9017 22.6716C52.567 22.6716 52.5669 22.5659 52.5669 22.425H52.4965Z" fill="#7D90A1"/>
</svg>
