<svg width="102" height="22" viewBox="0 0 102 22" fill="none" xmlns="http://www.w3.org/2000/svg">
<path fill-rule="evenodd" clip-rule="evenodd" d="M4.57022 17.2055H14.5291V21.2287H0.128906V0.5H4.57022V17.2055ZM20.1066 10.0797C20.8529 9.07779 22.0414 8.48959 23.4769 8.48959C25.0558 8.48959 26.2538 9.39133 26.8731 10.7223L19.2178 13.8983C19.0088 12.2684 19.426 10.9936 20.1066 10.0797ZM28.5246 16.3228C26.6805 17.6875 25.6267 18.0131 23.9451 18.0131C22.4318 18.0131 21.2468 17.5432 20.4115 16.7192L31.6133 12.0724C31.3688 10.3406 30.7115 8.79362 29.7001 7.61722C28.2283 5.90789 26.05 5.00356 23.3975 5.00356C18.5795 5.00356 14.9467 8.55783 14.9467 13.2522C14.9467 18.0684 18.5882 21.5 23.8803 21.5C26.8455 21.5 29.8772 20.0947 31.2954 18.4528L28.5246 16.3228ZM37.5684 7.56102C38.845 5.85601 40.9344 5.00437 42.7715 5.00437C46.6264 5.00437 49.2521 7.66725 49.2521 11.3373V21.2287H44.8704V12.1492C44.8704 10.0391 42.9944 8.77802 41.1814 8.77802C38.8355 8.77802 37.5684 10.515 37.5684 12.1492V21.2287H33.1875V5.27212H37.5692L37.5684 7.55842L37.5692 7.55756L37.5684 7.56102ZM76.4327 16.142L80.3938 5.27279H85.3983L78.8331 21.2242H74.0316L67.4663 5.27279H72.4717L76.4327 16.142ZM93.2661 8.75831C90.8192 8.75831 89.0425 10.6128 89.0425 13.2506C89.0425 15.7692 90.9246 17.7429 93.3249 17.7429C95.7727 17.7429 97.5485 15.8375 97.5485 13.2506C97.5485 10.7319 95.6673 8.75831 93.2661 8.75831ZM93.2661 21.4975C88.4741 21.4975 84.7195 17.9277 84.7195 13.2506C84.7195 8.62616 88.5001 5.00366 93.3249 5.00366C98.1169 5.00366 101.871 8.57347 101.871 13.2506C101.871 17.8742 98.091 21.4975 93.2661 21.4975ZM55.3085 13.2506C55.3085 10.6128 57.0843 8.75831 59.5313 8.75831C61.9325 8.75831 63.8137 10.7319 63.8137 13.2506C63.8137 15.8375 62.0379 17.7429 59.5909 17.7429C57.1897 17.7429 55.3085 15.7692 55.3085 13.2506ZM50.9855 13.2506C50.9855 17.9277 54.7393 21.4975 59.5313 21.4975C64.3561 21.4975 68.1367 17.8742 68.1367 13.2506C68.1367 8.57347 64.382 5.00366 59.5909 5.00366C54.7652 5.00366 50.9855 8.62616 50.9855 13.2506Z" fill="#7D90A1"/>
</svg>
