<svg width="106" height="30" viewBox="0 0 106 30" fill="none" xmlns="http://www.w3.org/2000/svg">
<path fill-rule="evenodd" clip-rule="evenodd" d="M89.7352 6.21299V9.73318C90.8991 9.90984 92.0071 10.3505 92.9743 11.0216C93.9415 11.6926 94.7423 12.5761 95.3153 13.6044C95.8884 14.6327 96.2184 15.7785 96.2802 16.9541C96.342 18.1296 96.1339 19.3037 95.6719 20.3864C95.2098 21.4692 94.506 22.4317 93.6145 23.2004C92.7229 23.9692 91.6673 24.5236 90.5283 24.8213C89.3894 25.119 88.1975 25.1521 87.0438 24.9179C85.8901 24.6838 84.8054 24.1887 83.8726 23.4706L81.0121 26.3321C81.087 26.5658 81.1266 26.8093 81.1299 27.0547C81.1295 27.5506 80.9821 28.0352 80.7063 28.4474C80.4306 28.8596 80.0389 29.1807 79.5806 29.3703C79.1224 29.5599 78.6183 29.6094 78.1319 29.5126C77.6456 29.4157 77.1988 29.1769 76.8482 28.8262C76.4975 28.4756 76.2587 28.0289 76.1619 27.5425C76.065 27.0562 76.1145 26.552 76.3041 26.0938C76.4937 25.6356 76.8149 25.2438 77.227 24.9681C77.6392 24.6923 78.1238 24.5449 78.6197 24.5446C78.8651 24.5479 79.1086 24.5876 79.3423 24.6623L82.2337 21.7699C81.345 20.5034 80.8584 18.9985 80.8374 17.4515C80.8164 15.9044 81.2619 14.3869 82.116 13.0967L72.6094 5.69898C72.1524 5.9646 71.6338 6.1057 71.1053 6.10819C70.5011 6.1074 69.9108 5.92746 69.409 5.59112C68.9071 5.25479 68.5163 4.77718 68.2859 4.2187C68.0555 3.66021 67.996 3.04596 68.1148 2.45362C68.2336 1.86129 68.5253 1.31748 68.9532 0.890999C69.3811 0.464514 69.9258 0.17451 70.5186 0.0576671C71.1113 -0.0591756 71.7254 0.00239329 72.2831 0.234586C72.8408 0.466778 73.3171 0.859163 73.6518 1.36211C73.9865 1.86505 74.1645 2.45596 74.1633 3.06008C74.1594 3.31659 74.1234 3.57209 74.0546 3.82061L83.7089 11.3401C84.7627 10.4922 86.0219 9.9379 87.3588 9.73318V6.21299C86.8937 5.99558 86.4998 5.65052 86.2231 5.21797C85.9464 4.78543 85.7982 4.28319 85.7959 3.76971V3.68887C85.7959 2.96993 86.0814 2.28044 86.5898 1.77207C87.0982 1.26371 87.7877 0.978108 88.5066 0.978108H88.5875C90.0846 0.978108 91.2982 2.19176 91.2982 3.68887V3.76971C91.2958 4.28319 91.1477 4.78543 90.871 5.21797C90.5943 5.65052 90.2004 5.99558 89.7352 6.21299ZM87.002 21.0415C87.4947 21.2338 88.0209 21.3253 88.5495 21.3108L88.5535 21.3088C89.5781 21.2719 90.5483 20.8388 91.2599 20.1007C91.9715 19.3627 92.3689 18.3773 92.3684 17.352C92.3679 16.3268 91.9695 15.3418 91.2571 14.6044C90.5448 13.8671 89.5741 13.435 88.5495 13.3991C88.0209 13.3846 87.4947 13.4761 87.002 13.6684C86.5094 13.8606 86.0602 14.1497 85.6812 14.5185C85.3021 14.8872 85.0008 15.3282 84.7951 15.8154C84.5893 16.3026 84.4833 16.8261 84.4833 17.3549C84.4833 17.8838 84.5893 18.4073 84.7951 18.8945C85.0008 19.3817 85.3021 19.8227 85.6812 20.1914C86.0602 20.5602 86.5094 20.8493 87.002 21.0415ZM11.5604 13.425V4.9664H15.2483V25.1584H11.5594V16.9742H3.79041V25.1584H0.102539V4.9664H3.78941V13.425H11.5604ZM26.1586 20.7898C26.7309 20.2175 27.0524 19.4413 27.0524 18.632V9.9827H30.5377V18.632C30.5377 20.3674 29.8483 22.0317 28.6212 23.2588C27.3941 24.4859 25.7297 25.1753 23.9943 25.1753C22.2589 25.1753 20.5946 24.4859 19.3675 23.2588C18.1404 22.0317 17.451 20.3674 17.451 18.632V9.9827H20.9492V18.632C20.9492 19.4413 21.2707 20.2175 21.843 20.7898C22.4153 21.3621 23.1915 21.6836 24.0008 21.6836C24.8102 21.6836 25.5863 21.3621 26.1586 20.7898ZM55.4306 8.53849C54.146 8.53849 52.9733 9.1004 52.9733 10.874H52.9673C52.9673 12.1805 54.2847 12.5965 55.8733 13.0981C58.2859 13.86 61.3242 14.8194 61.3242 19.3955C61.3242 22.9127 58.4238 25.1624 54.8177 25.1624C52.4154 25.1624 50.4093 24.1483 48.7824 22.1522L51.3255 19.5083C51.4121 19.6058 51.4964 19.7028 51.5796 19.7987C52.4095 20.7541 53.1349 21.5893 55.0154 21.5893C56.3268 21.5893 57.4726 20.5473 57.4726 19.3676C57.4726 17.7299 55.9422 17.1905 54.1913 16.5734C51.851 15.7486 49.1168 14.7849 49.1168 10.874C49.1168 7.1891 51.8615 4.9664 55.6571 4.9664C57.5564 4.9664 59.876 6.03533 61.0197 7.58234L58.7292 10.2831C57.8339 9.32697 56.4666 8.53849 55.4306 8.53849ZM102.012 19.669C102.012 21.0383 102.6 21.9326 104.667 21.9326V21.9296C105.06 21.9296 105.508 21.9027 105.898 21.8757L105.033 25.0615C104.572 25.1434 104.102 25.1813 103.633 25.1733C100.645 25.1733 98.4653 23.5814 98.4653 20.4225V8.07239L102.012 6.48047V10.5336H105.226V13.6057H102.012V19.669ZM36.2566 11.7333C37.4264 10.5865 38.636 10.0835 40.3687 10.0835V10.0865C44.2811 10.0865 47.6456 13.3562 47.6456 17.6319C47.6456 21.9615 43.9897 25.1773 39.8337 25.1773C36.087 25.1773 32.7534 22.0174 32.7534 17.4063V5.08716H36.2566V11.7333ZM38.8252 21.3485C39.3076 21.5483 39.8246 21.6511 40.3467 21.6511C41.4012 21.6511 42.4124 21.2323 43.158 20.4867C43.9037 19.741 44.3225 18.7298 44.3225 17.6753C44.3225 16.6209 43.9037 15.6096 43.158 14.864C42.4124 14.1184 41.4012 13.6995 40.3467 13.6995C39.8246 13.6995 39.3076 13.8024 38.8252 14.0022C38.3429 14.202 37.9046 14.4948 37.5354 14.864C37.1662 15.2332 36.8734 15.6715 36.6736 16.1538C36.4737 16.6362 36.3709 17.1532 36.3709 17.6753C36.3709 18.1974 36.4737 18.7144 36.6736 19.1968C36.8734 19.6792 37.1662 20.1175 37.5354 20.4867C37.9046 20.8558 38.3429 21.1487 38.8252 21.3485ZM70.6032 9.90285C74.7672 9.90285 78.4151 13.1107 78.4151 17.4483H78.4141C78.4141 21.725 75.0486 24.9947 71.1362 24.9947C69.4055 24.9947 68.1939 24.4897 67.0261 23.3449V30H63.5229V17.6738C63.5229 13.0617 66.8575 9.90285 70.6032 9.90285ZM73.933 20.2157C74.6786 19.4701 75.0975 18.4588 75.0975 17.4044C75.0975 16.3499 74.6786 15.3386 73.933 14.593C73.1874 13.8474 72.1762 13.4285 71.1217 13.4285C70.0673 13.4285 69.056 13.8474 68.3104 14.593C67.5648 15.3386 67.1459 16.3499 67.1459 17.4044C67.1459 18.4588 67.5648 19.4701 68.3104 20.2157C69.056 20.9613 70.0673 21.3802 71.1217 21.3802C72.1762 21.3802 73.1874 20.9613 73.933 20.2157Z" fill="#7D90A1"/>
</svg>
