<svg width="24" height="24" viewBox="0 0 24 24" fill="none" xmlns="http://www.w3.org/2000/svg">
<path fill-rule="evenodd" clip-rule="evenodd" d="M9.61583 0.182558C5.80499 1.00153 2.50063 3.68399 1.00664 7.17115C-1.00647 11.8701 0.0514962 17.1343 3.71765 20.6602C6.03997 22.8938 8.7926 24 12.0281 24C15.4271 24 18.1097 22.8702 20.5464 20.4121C21.9537 18.9925 22.7161 17.8049 23.3346 16.0688C23.9057 14.466 24.0596 13.3582 23.9808 11.4173C23.8499 8.18896 22.7814 5.7847 20.4395 3.44834C18.6961 1.70908 16.6468 0.610576 14.2991 0.156836C13.1622 -0.0629636 10.6949 -0.04931 9.61583 0.182558ZM14.0557 1.37823C15.7575 1.71152 17.2284 2.37141 18.6262 3.42859L19.3064 3.94304L18.8101 4.04142C18.1649 4.16918 17.5027 4.87868 17.3867 5.5666C17.2729 6.24112 17.4411 6.75947 18.2186 8.1319C19.571 10.5191 19.5878 11.3567 18.3651 15.4055C17.9197 16.8806 17.5252 18.1698 17.4884 18.2703C17.4518 18.3709 16.5523 15.8777 15.4896 12.7296C14.4267 9.58175 13.5692 6.9967 13.5836 6.98512C13.5981 6.97354 13.9386 6.916 14.3402 6.85712C15.0466 6.75362 15.0703 6.73814 15.0703 6.38436V6.01864L11.8802 6.00096C9.19855 5.98621 8.66628 6.01206 8.54082 6.16359C8.28673 6.47031 8.58122 6.73936 9.30236 6.85968C9.66377 6.9199 9.97834 6.98463 10.0017 7.00365C10.0249 7.02255 10.4125 8.04925 10.863 9.28527L11.682 11.5325L10.5056 15.0499L9.32937 18.5673L8.89664 17.2912C8.65862 16.5894 7.77892 13.9781 6.94157 11.4884L5.41923 6.96184L6.13659 6.88052C6.94133 6.78934 7.2172 6.53114 6.93013 6.13786C6.7835 5.93684 6.61703 5.9255 4.927 6.00194C3.80782 6.05253 3.08388 6.04058 3.08388 5.97146C3.08388 5.76409 4.0041 4.68716 4.81504 3.94548C6.13453 2.73859 8.01317 1.76419 9.71598 1.40358C10.8229 1.16916 12.9255 1.15684 14.0557 1.37823ZM22.2393 8.51774C22.652 9.76461 22.7976 10.6743 22.7976 12.0038C22.7976 15.0083 21.5753 17.8654 19.4363 19.8603C18.7769 20.4753 17.6988 21.2489 17.6163 21.1664C17.5871 21.137 18.4097 18.6622 19.4445 15.6668C20.4792 12.6713 21.3831 9.90944 21.4532 9.52958C21.5234 9.14959 21.5827 8.42363 21.585 7.91625C21.5891 7.0551 21.6009 7.01413 21.7631 7.29867C21.8587 7.46629 22.073 8.01487 22.2393 8.51774ZM4.84023 15.0236C6.15643 18.6353 7.21452 21.6093 7.19152 21.6323C7.16852 21.6554 6.79628 21.4615 6.36416 21.2017C4.38694 20.0125 2.62779 17.8407 1.86017 15.6413C1.05532 13.3353 1.06128 10.5091 1.87538 8.33756L2.14858 7.6088L2.29789 8.03279C2.38003 8.266 3.52404 11.4118 4.84023 15.0236ZM13.8888 17.5694C14.7739 20 15.4976 22.05 15.4971 22.1251C15.4951 22.4274 13.5469 22.7823 11.9203 22.7767C10.8075 22.7728 9.26487 22.5525 9.08441 22.3717C9.00641 22.2937 12.11 13.1516 12.2148 13.1507C12.2505 13.1505 13.0039 15.1389 13.8888 17.5694Z" fill="#1C1C1C"/>
</svg>
