<svg width="24" height="24" viewBox="0 0 24 24" fill="none" xmlns="http://www.w3.org/2000/svg">
<path d="M12.001 24C18.6284 24 24.001 18.6274 24.001 12C24.001 5.37258 18.6284 0 12.001 0C5.37356 0 0.000976562 5.37258 0.000976562 12C0.000976562 18.6274 5.37356 24 12.001 24Z" fill="#506BE6"/>
<path d="M10.5964 6.70898H12.0627L11.6483 8.91192H12.9658C13.6882 8.92737 14.2265 9.08882 14.5806 9.39637C14.942 9.70384 15.0482 10.2884 14.8995 11.1495L14.1876 14.9902H12.7001L13.3801 11.3225C13.4508 10.938 13.4296 10.6651 13.3163 10.5036C13.203 10.3421 12.9587 10.2614 12.5832 10.2614L11.4038 10.2498L10.5327 14.9902H9.06641L10.5964 6.70898Z" fill="white"/>
<path fill-rule="evenodd" clip-rule="evenodd" d="M3.87579 8.91211H6.72321C7.55902 8.9197 8.1646 9.18126 8.54005 9.69634C8.91558 10.2115 9.03942 10.915 8.91192 11.807C8.86244 12.2147 8.75256 12.6144 8.58255 13.0066C8.41961 13.3987 8.19305 13.7523 7.90261 14.0677C7.54837 14.4675 7.16952 14.7212 6.76571 14.8289C6.36198 14.9366 5.94404 14.9904 5.51202 14.9904H4.23704L3.8333 17.1818H2.35645L3.87579 8.91211ZM4.48141 13.6871L5.11678 10.2385H5.33139C5.40938 10.2385 5.49077 10.2346 5.57576 10.227C6.14249 10.2193 6.61342 10.277 6.98886 10.3999C7.37138 10.5229 7.49889 10.9882 7.37138 11.7955C7.2156 12.7567 6.91084 13.318 6.45764 13.4794C6.00434 13.6333 5.43764 13.7062 4.75766 13.6986H4.60891C4.56641 13.6986 4.52391 13.6947 4.48141 13.6871Z" fill="white"/>
<path fill-rule="evenodd" clip-rule="evenodd" d="M19.3199 8.91211H16.4725L14.9531 17.1818H16.43L16.8337 14.9904H18.1086C18.5406 14.9904 18.9586 14.9366 19.3624 14.8289C19.7661 14.7212 20.145 14.4675 20.4992 14.0677C20.7897 13.7523 21.0162 13.3987 21.1792 13.0066C21.3492 12.6144 21.459 12.2147 21.5086 11.807C21.636 10.915 21.5122 10.2115 21.1367 9.69634C20.7612 9.18126 20.1556 8.9197 19.3199 8.91211ZM17.7134 10.2385L17.078 13.6871C17.1205 13.6947 17.163 13.6986 17.2055 13.6986H17.3543C18.0343 13.7062 18.601 13.6333 19.0542 13.4794C19.5075 13.318 19.8122 12.7567 19.968 11.7955C20.0955 10.9882 19.968 10.5229 19.5855 10.3999C19.21 10.277 18.7391 10.2193 18.1724 10.227C18.0874 10.2346 18.006 10.2385 17.928 10.2385H17.7134Z" fill="white"/>
</svg>
