<svg width="24" height="24" viewBox="0 0 24 24" fill="none" xmlns="http://www.w3.org/2000/svg">
<g clip-path="url(#clip0_673_2751)">
<path d="M12 24C18.6274 24 24 18.6274 24 12C24 5.37258 18.6274 0 12 0C5.37258 0 0 5.37258 0 12C0 18.6274 5.37258 24 12 24Z" fill="url(#paint0_linear_673_2751)"/>
<path d="M12.3963 19.6919C12.5913 19.6289 12.8293 19.4589 12.9568 19.2919C13.1118 19.0877 18.5407 9.10494 18.6122 8.89274C18.6446 8.79644 18.678 8.63174 18.6865 8.52704C18.7437 7.81474 18.2283 7.12004 17.518 6.95224C17.2684 6.89224 6.75795 6.89444 6.50795 6.95344C5.98795 7.07614 5.58095 7.46444 5.39765 8.01004C5.32345 8.23084 5.33135 8.64634 5.41425 8.88504C5.48665 9.09334 10.9133 19.077 11.0665 19.2837C11.3638 19.6837 11.9053 19.8514 12.3965 19.6929L12.3963 19.6919ZM8.95655 13.1603L6.44455 8.42494C6.44435 8.26314 6.51895 8.14074 6.66235 8.06794L6.77795 8.00914H11.4814L11.475 17.7771C11.4714 17.7766 10.338 15.6991 8.95655 13.1604V13.1603ZM12.5756 12.8717V8.00904H17.2531L17.3687 8.06784C17.5121 8.14084 17.5867 8.26314 17.5865 8.42484C17.5863 8.53404 17.3692 8.94304 15.0902 13.1284L12.5849 17.7234C12.5797 17.7294 12.5755 15.5461 12.5755 12.8716L12.5756 12.8717Z" fill="white"/>
</g>
<defs>
<linearGradient id="paint0_linear_673_2751" x1="16.008" y1="4.008" x2="10.008" y2="18" gradientUnits="userSpaceOnUse">
<stop stop-color="#37AEE2"/>
<stop offset="1" stop-color="#1E96C8"/>
</linearGradient>
<clipPath id="clip0_673_2751">
<rect width="24" height="24" fill="white"/>
</clipPath>
</defs>
</svg>
