<svg width="24" height="24" viewBox="0 0 24 24" fill="none" xmlns="http://www.w3.org/2000/svg">
<path d="M19.8761 11.2497C20.9116 11.2497 21.751 10.4103 21.751 9.37484C21.751 8.33939 20.9115 7.5 19.8761 7.5C18.8405 7.5 18.001 8.33947 18.001 9.375V11.2497H19.8761ZM14.626 11.2497C15.6615 11.2497 16.501 10.4102 16.501 9.37468V4.125C16.501 3.08947 15.6615 2.25 14.626 2.25C13.5904 2.25 12.751 3.08947 12.751 4.125V9.37468C12.751 10.4102 13.5904 11.2497 14.626 11.2497Z" fill="#2EB67D"/>
<path d="M4.12484 12.7503C3.08939 12.7503 2.25 13.5897 2.25 14.6252C2.25 15.6606 3.08947 16.5 4.12492 16.5C5.16045 16.5 6 15.6605 6 14.625V12.7503H4.12484ZM9.375 12.7503C8.33947 12.7503 7.5 13.5898 7.5 14.6253V19.875C7.5 20.9105 8.33947 21.75 9.375 21.75C10.4105 21.75 11.25 20.9105 11.25 19.875V14.6253C11.25 13.5898 10.4105 12.7503 9.375 12.7503Z" fill="#E01E5A"/>
<path d="M12.7503 19.8752C12.7503 20.9106 13.5897 21.75 14.6252 21.75C15.6606 21.75 16.5 20.9105 16.5 19.8751C16.5 18.8395 15.6605 18 14.625 18L12.7503 18L12.7503 19.8752ZM12.7503 14.625C12.7503 15.6605 13.5898 16.5 14.6253 16.5L19.875 16.5C20.9105 16.5 21.75 15.6605 21.75 14.625C21.75 13.5895 20.9105 12.75 19.875 12.75L14.6253 12.75C13.5898 12.75 12.7503 13.5895 12.7503 14.625Z" fill="#ECB22E"/>
<path d="M11.2507 4.12484C11.2507 3.08939 10.4113 2.25 9.37582 2.25C8.34037 2.25 7.50098 3.08947 7.50098 4.12492C7.50098 5.16045 8.34044 6 9.37598 6L11.2507 6L11.2507 4.12484ZM11.2507 9.375C11.2507 8.33947 10.4112 7.5 9.37565 7.5L4.12598 7.5C3.09044 7.5 2.25098 8.33947 2.25098 9.375C2.25098 10.4105 3.09044 11.25 4.12598 11.25L9.37565 11.25C10.4112 11.25 11.2507 10.4105 11.2507 9.375Z" fill="#36C5F0"/>
</svg>
