<svg width="24" height="24" viewBox="0 0 24 24" fill="none" xmlns="http://www.w3.org/2000/svg">
<path fill-rule="evenodd" clip-rule="evenodd" d="M10.1724 0.0860158C7.4588 0.602964 5.28357 1.71733 3.52315 3.49254C1.41579 5.61768 0.169 8.41407 0.0167659 11.3568C-0.266523 16.8347 3.06474 21.7953 8.14596 23.4618C8.82207 23.6835 9.54179 23.8954 9.74538 23.9325L10.1154 24V19.7675V15.5349H8.57829H7.04115V13.8179V12.1008L8.43596 12.0873C9.20317 12.0798 9.88987 12.0809 9.96194 12.0897C10.0552 12.101 10.1068 11.5164 10.1399 10.0714C10.1803 8.31013 10.2205 7.95035 10.4394 7.39094C10.9389 6.11391 11.7071 5.37557 13.007 4.92319C13.6416 4.70226 15.44 4.64846 16.634 4.81455L17.2887 4.90567V6.3702V7.83485L16.1431 7.89026C14.9139 7.94978 14.6484 8.0599 14.1646 8.71032C13.9601 8.98528 13.925 9.22429 13.8926 10.5634L13.8552 12.1008H15.5278H17.2003L17.1364 12.4728C17.1012 12.6774 16.9845 13.4501 16.8769 14.1899L16.6813 15.5349H15.277H13.8729V19.7675V24L14.2429 23.9325C14.4465 23.8954 15.1686 23.6827 15.8478 23.4599C21.2802 21.6781 24.6852 16.1064 23.8834 10.311C23.2166 5.4913 19.6867 1.59084 14.8214 0.297671C13.8013 0.0264912 11.1245 -0.0953051 10.1724 0.0860158Z" fill="#1977F2"/>
</svg>
