<svg width="24" height="24" viewBox="0 0 24 24" fill="none" xmlns="http://www.w3.org/2000/svg">
<path d="M0 6C0 2.68629 2.68629 0 6 0H18C21.3137 0 24 2.68629 24 6V18C24 21.3137 21.3137 24 18 24H6C2.68629 24 0 21.3137 0 18V6Z" fill="#4E39F9"/>
<path fill-rule="evenodd" clip-rule="evenodd" d="M7.3723 3.72139C6.94603 3.93448 6.99988 3.86138 5.71483 5.97151C4.60624 7.79177 4.4033 8.1925 4.40232 8.56318C4.40179 8.7428 4.65303 9.40133 5.15377 10.5331C5.56747 11.4682 5.90596 12.2633 5.90596 12.3002C5.90596 12.337 5.43561 13.1416 4.86071 14.0881C4.2858 15.0346 3.77431 15.9331 3.72406 16.0849C3.67374 16.2366 3.65268 16.4837 3.67728 16.634C3.73174 16.967 5.03304 19.9163 5.21281 20.1141C5.52663 20.4594 6.15599 20.5725 6.57196 20.3583C6.68592 20.2996 7.28023 19.7266 7.89267 19.085L7.93417 19.0415C8.61887 18.3242 9.56724 17.9182 10.5589 17.9179V17.9179C12.2222 17.9174 12.5431 17.87 12.8986 17.5721C13.1228 17.3842 15.3873 13.7082 15.4965 13.3549C15.6295 12.9245 15.5385 12.5591 14.9821 11.2895L14.9716 11.2657C14.7097 10.6682 15.1356 9.99549 15.7877 9.9765V9.9765C17.2146 9.93501 17.4026 9.89613 17.7234 9.57615C17.9383 9.36186 20.0603 5.87601 20.2476 5.42952C20.4821 4.87061 20.2225 4.15387 19.6486 3.77562V3.77562C19.4497 3.64449 19.2169 3.57421 18.9786 3.57336L13.5458 3.55413L8.16788 3.53517C7.89177 3.53419 7.61929 3.59797 7.3723 3.72139V3.72139ZM11.7202 6.66705C12.2043 7.7705 12.6005 8.71464 12.6005 8.76504C12.6005 8.83628 11.8358 8.85238 9.1684 8.83725C5.78042 8.818 5.73491 8.81575 5.63179 8.66116C5.53551 8.51667 5.61261 8.3626 6.62597 6.67626C7.23021 5.67071 7.7596 4.80589 7.80233 4.75436C7.85972 4.68522 8.26771 4.66073 9.35991 4.66073V4.66073C10.2591 4.66073 11.0731 5.1925 11.4344 6.01588L11.7202 6.66705ZM19.0544 4.75061C19.104 4.80005 19.1446 4.90281 19.1446 4.97891C19.1446 5.12512 17.0044 8.70295 16.8597 8.79875C16.8132 8.82953 16.1216 8.84639 15.3228 8.8362V8.8362C14.4378 8.82497 13.6407 8.29869 13.2827 7.4893L13.009 6.87033C12.5352 5.79924 12.1288 4.86394 12.1057 4.79181C12.0662 4.6683 12.2623 4.66073 15.514 4.66073C18.0971 4.66073 18.9868 4.68335 19.0544 4.75061ZM13.4961 10.7007C13.6678 11.0977 13.7971 11.4338 13.7834 11.4475C13.7696 11.4611 12.1991 11.4818 10.2932 11.4933L7.60742 11.5095C7.13478 11.5124 6.70598 11.2331 6.5175 10.7997V10.7997C6.34668 10.4067 6.20684 10.0611 6.20684 10.0319C6.20684 10.0026 7.77668 9.97875 9.69539 9.97875H12.3973C12.8748 9.97875 13.3066 10.2624 13.4961 10.7007V10.7007ZM14.2868 12.6458C14.3522 12.6708 14.4058 12.7697 14.4058 12.8655C14.4058 13.0713 12.4419 16.3811 12.1743 16.6263C11.9972 16.7886 11.9381 16.7948 10.5775 16.7948H9.39177C9.25318 16.7948 9.12715 16.7145 9.06865 16.5888V16.5888C8.84525 16.1091 7.33514 12.6632 7.33514 12.6331C7.33514 12.5821 14.1526 12.5945 14.2868 12.6458ZM7.21652 15.175C7.5714 15.9937 7.86168 16.6931 7.86168 16.7292C7.86168 16.8231 5.17611 16.812 4.99836 16.7173C4.91833 16.6746 4.85289 16.5673 4.85289 16.4786C4.85289 16.2861 6.44785 13.5705 6.52073 13.6389C6.54864 13.665 6.86171 14.3562 7.21652 15.175ZM7.3978 17.9095C7.38403 17.9458 7.07586 18.2853 6.713 18.664L6.25598 19.1409C6.16025 19.2408 5.99351 19.2099 5.93996 19.0823V19.0823C5.87761 18.9337 5.74296 18.6238 5.64066 18.3934C5.53836 18.163 5.45464 17.9451 5.45464 17.909C5.45464 17.8729 5.89746 17.8434 6.43874 17.8434C6.98003 17.8434 7.41164 17.8732 7.3978 17.9095Z" fill="white"/>
</svg>
