<svg width="24" height="24" viewBox="0 0 24 24" fill="none" xmlns="http://www.w3.org/2000/svg">
<path fill-rule="evenodd" clip-rule="evenodd" d="M11.5773 0.00239364C11.0848 0.0196754 10.4814 0.0816498 9.9926 0.165169C8.80751 0.367644 7.69187 0.733509 6.61069 1.27424C5.18676 1.98638 3.88956 3.00454 2.85474 4.22226C1.23642 6.12661 0.255227 8.47787 0.0386563 10.9706C0.00591609 11.3474 0 11.5047 0 11.9979C0 12.4911 0.00591609 12.6484 0.0386563 13.0252C0.25178 15.4782 1.20619 17.7968 2.77906 19.6827C3.64466 20.7206 4.67472 21.6008 5.84365 22.3015C6.99592 22.9921 8.30094 23.4961 9.62764 23.7628C10.9541 24.0294 12.289 24.0713 13.6277 23.8883C15.3653 23.6509 17.0371 23.0326 18.5018 22.0859C19.8819 21.1938 21.0377 20.0625 21.9518 18.709C23.0935 17.0185 23.7854 15.0609 23.9608 13.0252C23.994 12.6395 24 12.4819 24 11.9979C24 11.5156 23.994 11.3562 23.9612 10.9754C23.7962 9.05537 23.1689 7.19367 22.142 5.57648C21.3099 4.2662 20.2532 3.14827 18.9882 2.23997C17.8892 1.45087 16.6135 0.833416 15.3228 0.465872C14.4598 0.220096 13.6987 0.087564 12.7634 0.0201939C12.5734 0.00651247 11.7934 -0.00520074 11.5773 0.00239364ZM15.3805 5.7702C16.0621 5.86787 16.6737 6.16493 17.1501 6.62966L17.2629 6.73981L17.3882 6.7139C17.6962 6.6502 18.1103 6.52236 18.4249 6.39385C18.6291 6.31045 18.9704 6.14603 19.1449 6.04695C19.2108 6.00958 19.2658 5.98022 19.2673 5.98171C19.2782 5.99256 19.1755 6.24635 19.092 6.41492C18.8397 6.92454 18.4208 7.38864 17.9498 7.68035C17.884 7.72116 17.8822 7.72065 18.0189 7.70083C18.5673 7.62126 19.1432 7.46231 19.5959 7.26556C19.6456 7.24393 19.6877 7.22766 19.6895 7.22941C19.6912 7.23116 19.6532 7.2884 19.605 7.3566C19.2239 7.89553 18.7878 8.34877 18.2591 8.75541L18.1269 8.85708L18.1234 9.30657C18.1199 9.75242 18.1124 9.89435 18.0741 10.23C17.9241 11.5445 17.4758 12.8519 16.7796 14.0045C16.2232 14.9258 15.5218 15.7267 14.6938 16.3861C13.5903 17.265 12.2684 17.8553 10.8481 18.1037C10.5072 18.1633 10.2953 18.19 9.87735 18.2259C9.62734 18.2474 8.75595 18.2505 8.49917 18.2308C7.29382 18.1382 6.17159 17.8281 5.11636 17.2958C4.84861 17.1607 4.70138 17.0779 4.34741 16.8632C4.33001 16.8526 4.31782 16.842 4.3203 16.8395C4.32279 16.837 4.41049 16.8428 4.5152 16.8525C4.65889 16.8657 4.79505 16.87 5.07052 16.8702C5.45105 16.8704 5.55669 16.8641 5.88206 16.8219C6.89156 16.691 7.87286 16.3112 8.69145 15.7346C8.91761 15.5753 8.96502 15.5389 8.95911 15.5294C8.95642 15.525 8.92963 15.5214 8.89957 15.5214C8.74304 15.5213 8.46233 15.4801 8.24466 15.4253C7.38924 15.2099 6.62959 14.6022 6.22853 13.8125C6.12951 13.6175 6.01441 13.3324 6.03469 13.3324C6.0391 13.3324 6.06476 13.3366 6.09171 13.3417C6.45136 13.4099 6.95644 13.3943 7.35148 13.3027C7.45563 13.2786 7.45675 13.2798 7.29386 13.241C7.23311 13.2265 7.12075 13.1931 7.04415 13.1668C6.45581 12.9645 5.92785 12.5788 5.55234 12.0771C5.42668 11.9091 5.34644 11.7779 5.24861 11.5802C5.08841 11.2566 4.99035 10.9313 4.94561 10.575C4.92928 10.4449 4.91494 10.1449 4.92505 10.1449C4.92857 10.1449 4.96706 10.164 5.01059 10.1875C5.22637 10.3035 5.50221 10.4034 5.76682 10.4613C5.95301 10.5021 6.36184 10.5521 6.33826 10.5312C6.33297 10.5265 6.2984 10.5016 6.26142 10.476C5.98465 10.2837 5.67935 9.96707 5.4756 9.66099C5.18714 9.22769 5.0124 8.73457 4.96029 8.20689C4.94593 8.06143 4.94835 7.71236 4.96472 7.56704C4.9989 7.26384 5.07269 6.97467 5.18527 6.70295C5.22786 6.60014 5.33844 6.37598 5.36182 6.34503L5.37836 6.32314L5.43573 6.39297C5.68755 6.69946 6.08299 7.10581 6.40576 7.38975C6.90017 7.82467 7.44312 8.20677 8.00665 8.51636C9.16905 9.15495 10.4677 9.53282 11.7752 9.61288L11.882 9.61941L11.8596 9.50532C11.8105 9.2554 11.7878 8.8844 11.8074 8.65195C11.8558 8.07801 12.0541 7.53329 12.381 7.07681C12.691 6.64383 13.0826 6.3105 13.5571 6.07566C13.9066 5.90267 14.2333 5.8067 14.625 5.76194C14.7773 5.74453 15.2364 5.74955 15.3805 5.7702Z" fill="#2DAAE1"/>
</svg>
