<svg width="24" height="24" viewBox="0 0 24 24" fill="none" xmlns="http://www.w3.org/2000/svg">
<path d="M3.34481 21.6009L1.41895 0H22.5809L20.653 21.5975L11.987 24L3.34481 21.6009Z" fill="#E44D26"/>
<path d="M12 22.164L19.0026 20.2226L20.6501 1.7666H12V22.164Z" fill="#F16529"/>
<path d="M11.9995 9.77721H8.49387L8.25175 7.06433H11.9995V4.41504H11.9904H5.35645L5.41986 5.1258L6.071 12.4264H11.9995V9.77721Z" fill="#EBEBEB"/>
<path d="M11.9996 16.6585L11.988 16.6616L9.03751 15.8649L8.84889 13.752H7.41518H6.18945L6.56061 17.9117L11.9874 19.4182L11.9996 19.4148V16.6585Z" fill="#EBEBEB"/>
<path d="M11.9912 9.77734V12.4266H15.2535L14.946 15.8625L11.9912 16.66V19.4162L17.4223 17.911L17.4622 17.4634L18.0847 10.4887L18.1494 9.77734H17.4355H11.9912Z" fill="white"/>
<path d="M11.9912 4.41504V6.06047V7.05785V7.06433H18.3819H18.3904L18.4436 6.46885L18.5643 5.1258L18.6276 4.41504H11.9912Z" fill="white"/>
</svg>
