<svg width="24" height="24" viewBox="0 0 24 24" fill="none" xmlns="http://www.w3.org/2000/svg">
<path d="M10.7165 2.21539L1.76867 5.91783C1.27109 6.12376 1.27625 6.83066 1.77695 7.02912L10.7621 10.5922C11.5515 10.9053 12.4307 10.9053 13.2202 10.5922L22.2054 7.02899C22.706 6.83066 22.7114 6.12389 22.2136 5.91797L13.266 2.21526C12.4497 1.87747 11.5327 1.87747 10.7164 2.21526" fill="#FCB400"/>
<path d="M12.7891 12.5379V21.4392C12.7891 21.8625 13.216 22.1525 13.6095 21.9965L23.6217 18.1102C23.7334 18.066 23.8291 17.9892 23.8966 17.8898C23.9641 17.7905 24.0002 17.6731 24.0002 17.553V8.65181C24.0002 8.22843 23.5733 7.93854 23.1797 8.09454L13.1675 11.9808C13.0559 12.0251 12.9601 12.1019 12.8926 12.2013C12.8252 12.3006 12.7891 12.418 12.7891 12.5381" fill="#18BFFF"/>
<path d="M10.4506 12.9967L7.47922 14.4314L7.17753 14.5772L0.905093 17.5827C0.507622 17.7745 0 17.4847 0 17.043V8.68857C0 8.52877 0.0819358 8.39081 0.191817 8.28703C0.236895 8.24214 0.288036 8.20379 0.343751 8.17308C0.493514 8.08314 0.707307 8.05913 0.889085 8.13103L10.4007 11.8998C10.8842 12.0916 10.9222 12.7691 10.4506 12.9968" fill="#F82B60"/>
<path d="M10.4512 12.9967L7.47979 14.4314L0.192383 8.28689C0.23747 8.24205 0.288611 8.20374 0.344317 8.17308C0.49408 8.08314 0.707873 8.05913 0.889651 8.13103L10.4013 11.8998C10.8847 12.0916 10.9227 12.7691 10.4512 12.9968" fill="black" fill-opacity="0.25"/>
</svg>
