<svg width="24" height="25" viewBox="0 0 24 25" fill="none" xmlns="http://www.w3.org/2000/svg">
<g clip-path="url(#clip0_159_1090)">
<rect x="0.0205078" y="0.356934" width="23.3219" height="23.3219" rx="11.661" fill="#FFCA28"/>
<path d="M11.82 15.6708L13.5372 14.5346C13.6717 14.9574 14.5238 15.9615 15.6002 15.9616C16.6766 15.9617 17.1764 15.3738 17.1764 14.984C17.1765 13.9219 16.0774 13.5473 15.5494 13.3674C15.4634 13.3381 15.3925 13.314 15.3441 13.2929C15.3192 13.282 15.2816 13.2677 15.2334 13.2492C14.6462 13.0249 12.4801 12.1972 12.4803 9.79823C12.4804 7.15591 15.0304 6.85218 15.6071 6.85221C15.9844 6.85223 17.7983 6.89857 18.7016 8.59631L17.0357 9.75884C16.6706 9.01897 16.0638 8.77453 15.6903 8.77451C14.7677 8.77446 14.5754 9.45084 14.5754 9.75871C14.5753 10.6226 15.5777 11.0099 16.4241 11.3369C16.6455 11.4225 16.8563 11.5039 17.0356 11.5886C17.9582 12.0247 19.3165 12.7382 19.3164 14.9842C19.3163 16.1091 18.3727 17.9303 15.9973 17.9302C12.8066 17.93 11.9609 16.0143 11.82 15.6708Z" fill="#3E3E3E"/>
<path d="M3.49073 15.8959L5.28048 14.7604C5.42069 15.183 5.96557 15.9621 6.75624 15.9621C7.5469 15.9622 7.95163 15.1501 7.95165 14.7605L7.95206 7.10169L10.1531 7.1018L10.1527 14.7607C10.1883 15.8171 9.60227 17.9298 7.01657 17.9297C4.63922 17.9296 3.65096 16.5166 3.49073 15.8959Z" fill="#3E3E3E"/>
</g>
<defs>
<clipPath id="clip0_159_1090">
<rect width="24" height="24" fill="white" transform="translate(0.000976562)"/>
</clipPath>
</defs>
</svg>
