<svg width="24" height="24" viewBox="0 0 24 24" fill="none" xmlns="http://www.w3.org/2000/svg">
<g clip-path="url(#clip0_673_2709)">
<path d="M4.25 0H19.75C22.1 0 24 1.94872 24 4.35897V19.641C24 22.0513 22.1 24 19.75 24H4.25C1.9 24 0 22.0513 0 19.641V4.35897C0 1.94872 1.9 0 4.25 0Z" fill="#330000"/>
<path d="M11.5997 14.3591H7.87967L7.11967 16.7694C7.09967 16.8617 7.01967 16.9232 6.92967 16.913H5.04967C4.93967 16.913 4.90967 16.8514 4.93967 16.7284L8.15967 7.22068C8.18967 7.11811 8.21967 7.00529 8.25967 6.88222C8.29967 6.66683 8.31967 6.44119 8.31967 6.21555C8.30967 6.16427 8.34967 6.11299 8.39967 6.10273H10.9897C11.0697 6.10273 11.1097 6.1335 11.1197 6.18478L14.7697 16.7489C14.7997 16.8617 14.7697 16.913 14.6697 16.913H12.5797C12.5097 16.9232 12.4397 16.872 12.4197 16.8002L11.5997 14.3591ZM8.45967 12.2771H10.9997C10.9397 12.0617 10.8597 11.8053 10.7697 11.5386C10.6797 11.2617 10.5897 10.9643 10.4997 10.6566C10.3997 10.3386 10.3097 10.0309 10.2097 9.71299C10.1097 9.39504 10.0197 9.0976 9.93967 8.80017C9.85967 8.51299 9.78967 8.24632 9.71967 8.00017H9.69967C9.60967 8.44119 9.49967 8.88222 9.35967 9.32324C9.20967 9.81555 9.05967 10.3284 8.89967 10.8412C8.75967 11.3643 8.60967 11.8463 8.45967 12.2771ZM16.9997 7.8976C16.6697 7.90786 16.3497 7.77452 16.1097 7.53863C15.8797 7.28222 15.7597 6.94376 15.7697 6.59504C15.7597 6.24632 15.8897 5.91811 16.1297 5.68222C16.3697 5.44632 16.6897 5.32324 17.0197 5.32324C17.4097 5.32324 17.7097 5.44632 17.9297 5.68222C18.1497 5.92837 18.2697 6.25658 18.2597 6.59504C18.2697 6.94376 18.1497 7.28222 17.9097 7.53863C17.6797 7.78478 17.3397 7.91811 16.9997 7.8976ZM15.8797 16.8002V8.90273C15.8797 8.80017 15.9197 8.75914 16.0097 8.75914H17.9897C18.0797 8.75914 18.1197 8.81042 18.1197 8.90273V16.8002C18.1197 16.913 18.0797 16.9643 17.9897 16.9643H16.0297C15.9297 16.9643 15.8797 16.9027 15.8797 16.8002V16.8002Z" fill="#FF9A00"/>
</g>
<defs>
<clipPath id="clip0_673_2709">
<rect width="24" height="24" fill="white"/>
</clipPath>
</defs>
</svg>
