<svg width="24" height="24" viewBox="0 0 24 24" fill="none" xmlns="http://www.w3.org/2000/svg">
<path fill-rule="evenodd" clip-rule="evenodd" d="M15.0037 10.0213C14.2676 10.2082 13.7652 10.3484 13.0406 10.5354L13.0215 10.5406C12.8642 10.5828 12.848 10.5872 12.7018 10.4185C12.6094 10.3137 12.5299 10.2284 12.4394 10.154C12.3584 10.0875 12.2686 10.0297 12.1526 9.97449C11.4165 9.61229 10.7036 9.71739 10.0375 10.1498C9.24295 10.664 8.83397 11.4235 8.84572 12.37C8.85736 13.3048 9.50005 14.0761 10.4232 14.2046C11.2178 14.3098 11.8839 14.0293 12.4097 13.4334C12.4873 13.3384 12.5586 13.2371 12.6376 13.1248C12.6656 13.085 12.6945 13.0438 12.7251 13.001H10.4699C10.2246 13.001 10.1661 12.8491 10.2479 12.6504C10.3521 12.402 10.5167 12.0382 10.6625 11.7362C10.693 11.6731 10.7227 11.6127 10.7507 11.5566C10.7844 11.4896 10.8158 11.4287 10.8438 11.3767C10.8789 11.3066 10.9607 11.1898 11.136 11.1898H14.8965C15.0654 10.6547 15.3393 10.1491 15.7049 9.67072C16.558 8.54887 17.5862 7.96461 18.9767 7.71926C20.1686 7.50895 21.2905 7.6258 22.307 8.31516C23.2302 8.94621 23.8028 9.79921 23.9547 10.9211C24.1534 12.4986 23.6976 13.7839 22.6109 14.8823C21.8396 15.6652 20.8931 16.156 19.8064 16.378C19.599 16.4164 19.3915 16.4347 19.1875 16.4526C19.0811 16.462 18.9757 16.4712 18.8716 16.4832C17.8082 16.4598 16.8383 16.156 16.0204 15.4549C15.4451 14.9576 15.0488 14.3464 14.8519 13.6349C14.7151 13.9109 14.5518 14.1751 14.3611 14.4266C13.5198 15.5367 12.4214 16.2261 11.0308 16.4131C9.88564 16.565 8.82233 16.3429 7.88751 15.6418C7.02276 14.9875 6.53196 14.1227 6.40346 13.0477C6.25158 11.7741 6.62553 10.6289 7.39671 9.62393C8.22631 8.53723 9.32477 7.84775 10.6686 7.60241C11.767 7.40374 12.8187 7.53234 13.7652 8.17503C14.3844 8.58401 14.8285 9.14488 15.1206 9.8226C15.1908 9.92781 15.144 9.98624 15.0037 10.0213ZM1.8112 10.2316C1.76441 10.2316 1.75277 10.2082 1.77605 10.1732L2.02151 9.85763C2.0449 9.8226 2.10333 9.79921 2.15 9.79921H6.32164C6.36843 9.79921 6.38007 9.83424 6.35668 9.86927L6.15801 10.1732C6.13473 10.2082 6.0763 10.2432 6.04115 10.2432L1.8112 10.2316ZM0.0121972 11.2996C0.0101432 11.2983 0.00831736 11.2969 0.00683389 11.2955C-0.00366455 11.2853 -0.00206696 11.2688 0.0116267 11.2482L0.257085 10.9327C0.280478 10.8977 0.338904 10.8743 0.385576 10.8743H5.7141C5.76078 10.8743 5.78417 10.9093 5.77253 10.9443L5.67896 11.2248C5.67394 11.245 5.6623 11.2609 5.64701 11.2723C5.62692 11.2874 5.60033 11.2949 5.57386 11.2949L0.0467736 11.3066C0.0353623 11.3066 0.0261191 11.3053 0.0188158 11.3027C0.0163053 11.3017 0.0141372 11.3007 0.0121972 11.2996ZM2.83947 12.3115C2.81619 12.3467 2.82783 12.3817 2.87462 12.3817L5.42197 12.3933C5.45701 12.3933 5.50379 12.3583 5.50379 12.3115L5.52707 12.0312C5.52707 11.9844 5.50379 11.9493 5.45701 11.9493H3.11996C3.07318 11.9493 3.0265 11.9844 3.00311 12.0194L2.83947 12.3115ZM21.6176 11.3767C21.641 11.4936 21.641 11.6104 21.6527 11.7623C21.5942 12.7673 21.0918 13.5151 20.1686 13.9942C19.5493 14.3098 18.9066 14.3448 18.264 14.0643C17.4226 13.6904 16.9786 12.7673 17.1889 11.8559C17.446 10.7574 18.1471 10.0679 19.2338 9.8226C20.3439 9.5655 21.4073 10.2199 21.6176 11.3767Z" fill="#2DBCAF"/>
</svg>
