<svg width="24" height="24" viewBox="0 0 24 24" fill="none" xmlns="http://www.w3.org/2000/svg">
<path d="M12 0C9.88681 -2.51996e-08 7.81108 0.558035 5.98276 1.61767C4.15444 2.6773 2.63835 4.20095 1.58784 6.03453C0.537319 7.86811 -0.0103734 9.94658 0.000148801 12.0598C0.010671 14.1729 0.579034 16.2458 1.64776 18.0689L2.68298 17.462C1.72113 15.8213 1.2096 13.9556 1.20013 12.0538C1.19066 10.1519 1.68359 8.2813 2.62905 6.63108C3.57452 4.98086 4.93899 3.60957 6.58448 2.6559C8.22998 1.70223 10.0981 1.2 12 1.2V0Z" fill="#03A696"/>
<path d="M1.56836 17.9321C2.61297 19.769 4.12414 21.2975 5.94904 22.363C7.77395 23.4286 9.84786 23.9933 11.961 24.0001C14.0742 24.0069 16.1517 23.4555 17.9835 22.4018C19.8152 21.348 21.3362 19.8293 22.3926 17.9991L21.3533 17.3992C20.4025 19.0464 19.0336 20.4133 17.3851 21.3616C15.7365 22.31 13.8668 22.8062 11.9649 22.8001C10.063 22.794 8.19652 22.2857 6.55411 21.3268C4.91169 20.3678 3.55164 18.9921 2.61149 17.3389L1.56836 17.9321Z" fill="#FABE14"/>
<path d="M22.3259 18.1134C23.4149 16.274 23.9927 14.1772 23.9998 12.0397C24.0069 9.90219 23.4429 7.80158 22.3661 5.95507C21.2894 4.10856 19.7389 2.58318 17.8751 1.53664C16.0113 0.490105 13.9018 -0.0395957 11.7646 0.00230648L11.7882 1.20208C13.7116 1.16436 15.6101 1.6411 17.2876 2.58298C18.965 3.52486 20.3604 4.8977 21.3295 6.55956C22.2986 8.22142 22.8062 10.112 22.7998 12.0357C22.7935 13.9595 22.2734 15.8466 21.2933 17.5021L22.3259 18.1134Z" fill="#EE4D2F"/>
<path d="M12.7678 9.1093C13.0368 8.64335 12.8772 8.04754 12.4112 7.77853V7.77853C11.9453 7.50951 11.3494 7.66916 11.0804 8.13511L5.81399 17.2569C5.54497 17.7228 5.70462 18.3186 6.17057 18.5876V18.5876C6.63652 18.8566 7.23233 18.697 7.50134 18.231L12.7678 9.1093Z" fill="#BCBCBC"/>
<path d="M11.0789 9.1093C10.8099 8.64335 10.9695 8.04754 11.4355 7.77853V7.77853C11.9014 7.50951 12.4972 7.66916 12.7663 8.13511L18.0327 17.2569C18.3017 17.7228 18.1421 18.3186 17.6761 18.5876V18.5876C17.2102 18.8566 16.6144 18.697 16.3453 18.231L11.0789 9.1093Z" fill="#333333"/>
<path fill-rule="evenodd" clip-rule="evenodd" d="M15.3677 4.08082C15.3677 4.10304 15.5038 4.37378 15.6702 4.68241L15.9727 5.24366L15.6753 5.81929C15.5116 6.13594 15.3895 6.41402 15.4039 6.43723C15.4182 6.46049 15.6918 6.34172 16.0118 6.17323L16.5936 5.86698L17.1683 6.17408C17.4845 6.343 17.7595 6.4649 17.7795 6.44494C17.7994 6.42498 17.6783 6.14757 17.5104 5.82853L17.2049 5.24837L17.5171 4.67108C17.6887 4.35357 17.8108 4.07537 17.7882 4.05278C17.7656 4.03019 17.4862 4.15129 17.1672 4.32186L16.5873 4.63196L16.0234 4.33815C15.4537 4.04127 15.3677 4.00753 15.3677 4.08082ZM12.4901 4.73886C12.4901 5.0647 12.4857 5.07278 12.2147 5.24396C12.0633 5.33966 11.9393 5.43866 11.9392 5.46388C11.9392 5.48911 12.0874 5.5098 12.2686 5.5098C12.5936 5.5098 12.6006 5.51366 12.7847 5.79664L12.9713 6.08353L13.013 5.71508C13.0519 5.37045 13.07 5.33721 13.2928 5.19951C13.4238 5.11857 13.5309 5.03127 13.5309 5.00555C13.5309 4.97984 13.3863 4.95872 13.2095 4.95866C12.8952 4.95853 12.8842 4.95247 12.7141 4.68315C12.6184 4.53168 12.5289 4.40776 12.5151 4.40776C12.5014 4.40776 12.4901 4.55678 12.4901 4.73886ZM16.2859 8.61694C16.2858 8.96751 16.2847 8.96972 16.0104 9.14298C15.8589 9.23868 15.735 9.34196 15.735 9.37257C15.735 9.40313 15.8934 9.42902 16.0871 9.43013C16.4376 9.43202 16.4398 9.43319 16.6051 9.70564C16.7488 9.94233 16.9131 10.0732 16.8911 9.93327C16.887 9.90804 16.8876 9.7496 16.8924 9.58123C16.9005 9.29035 16.9146 9.26598 17.175 9.09143C17.3257 8.99041 17.4491 8.88706 17.4492 8.86184C17.4492 8.83662 17.2865 8.81592 17.0876 8.81592H16.7259L16.5519 8.54053C16.4562 8.38906 16.3572 8.26508 16.3319 8.26502C16.3067 8.26496 16.286 8.42335 16.2859 8.61694ZM11.4175 14.289C11.2076 14.3805 10.857 14.7555 10.7717 14.9798C10.6852 15.2073 10.7032 15.6497 10.8094 15.9038C11.1963 16.8297 12.4796 16.9282 13.0095 16.0727C13.3739 15.4844 13.1835 14.7061 12.5903 14.3584C12.2888 14.1817 11.7385 14.1491 11.4175 14.289Z" fill="#333333"/>
</svg>
