<svg width="24" height="24" viewBox="0 0 24 24" fill="none" xmlns="http://www.w3.org/2000/svg">
<path fill-rule="evenodd" clip-rule="evenodd" d="M10.4223 0.0519475L10.0223 0.0880229V3.56766C10.0223 5.48154 9.99021 7.04738 9.95106 7.04738C9.91181 7.04738 8.80027 5.96653 7.48091 4.64549C6.16155 3.32445 5.04541 2.2436 5.0006 2.2436C4.68782 2.2436 2.20986 4.707 2.20986 5.01802C2.20986 5.07143 3.30022 6.20691 4.63295 7.54123L7.05603 9.96733H3.59455C0.38627 9.96733 0.128271 9.97939 0.0661476 10.1322C-0.0216718 10.3481 -0.0222366 13.6389 0.0655829 13.8527C0.128271 14.0056 0.388811 14.0176 3.64171 14.0176H7.15015L4.66373 16.5071L2.17739 18.9965L2.44772 19.3564C2.88173 19.9342 3.90799 20.9759 4.47641 21.4156L5.00154 21.8218L7.44072 19.3796C8.7822 18.0365 9.91181 16.9375 9.95106 16.9375C9.99021 16.9375 10.0223 18.5001 10.0223 20.4098V23.8821L10.4591 23.942C11.023 24.0193 12.9749 24.0193 13.5389 23.942L13.9756 23.8821V20.4098C13.9756 18.5001 14.0077 16.9375 14.0468 16.9375C14.0861 16.9375 15.217 18.0378 16.56 19.3825L19.0018 21.8274L19.4302 21.4867C20.0823 20.9681 21.0004 20.0563 21.4329 19.4977L21.8209 18.9968L19.3344 16.5072L16.8478 14.0176H20.3562C23.6091 14.0176 23.8696 14.0056 23.9323 13.8527C23.9696 13.762 24 12.925 24 11.9925C24 11.06 23.9696 10.2229 23.9323 10.1322C23.8696 9.97939 23.6114 9.96733 20.4034 9.96733H16.9419L19.365 7.54123C20.6977 6.20691 21.788 5.08009 21.788 5.03724C21.788 4.72989 19.3163 2.2436 19.0107 2.2436C18.9585 2.2436 17.8364 3.32445 16.517 4.64549C15.1976 5.96653 14.0861 7.04738 14.0468 7.04738C14.0077 7.04738 13.9756 5.48512 13.9756 3.57566V0.104036L13.397 0.0434702C12.8081 -0.0181312 11.1472 -0.0133274 10.4223 0.0519475ZM13.332 9.15879C14.3992 9.36488 14.4971 9.42158 14.6713 9.93295C14.7555 10.1803 14.8741 10.7558 14.9347 11.2118C15.0547 12.1129 14.964 13.158 14.6865 14.075C14.5439 14.5465 14.5298 14.5597 13.9994 14.7215C13.6648 14.8235 13.0053 14.9046 12.2734 14.9337C11.2729 14.9735 10.9668 14.9499 10.3023 14.7818C9.86964 14.6723 9.48372 14.5308 9.44457 14.4675C9.40541 14.4041 9.29707 14.0544 9.2037 13.6904C8.80611 12.1397 9.10778 9.62749 9.72026 9.38984C10.6147 9.04274 12.2045 8.94102 13.332 9.15879Z" fill="#FF4A00"/>
</svg>
