<svg width="24" height="24" viewBox="0 0 24 24" fill="none" xmlns="http://www.w3.org/2000/svg">
<g clip-path="url(#clip0_673_2698)">
<path d="M4.25 0H19.75C22.1 0 24 1.94872 24 4.35897V19.641C24 22.0513 22.1 24 19.75 24H4.25C1.9 24 0 22.0513 0 19.641V4.35897C0 1.94872 1.9 0 4.25 0Z" fill="#001E36"/>
<path d="M5.40039 16.8307V6.2769C5.40039 6.2051 5.43039 6.16408 5.50039 6.16408C5.67039 6.16408 5.83039 6.16408 6.06039 6.15382C6.30039 6.14356 6.55039 6.14356 6.82039 6.13331C7.09039 6.12305 7.38039 6.12305 7.69039 6.1128C8.00039 6.10254 8.30039 6.10254 8.60039 6.10254C9.42039 6.10254 10.1004 6.2051 10.6604 6.42049C11.1604 6.59485 11.6204 6.88203 12.0004 7.26151C12.3204 7.58972 12.5704 7.98972 12.7304 8.43074C12.8804 8.86151 12.9604 9.30254 12.9604 9.76408C12.9604 10.6461 12.7604 11.3743 12.3604 11.9487C11.9604 12.5231 11.4004 12.9538 10.7504 13.2C10.0704 13.4564 9.32039 13.5487 8.50039 13.5487C8.26039 13.5487 8.10039 13.5487 8.00039 13.5384C7.90039 13.5282 7.76039 13.5282 7.57039 13.5282V16.8205C7.58039 16.8923 7.53039 16.9538 7.46039 16.9641C7.45039 16.9641 7.44039 16.9641 7.42039 16.9641H5.52039C5.44039 16.9641 5.40039 16.9231 5.40039 16.8307ZM7.58039 8.14357V11.5897C7.72039 11.6 7.85039 11.6102 7.97039 11.6102H8.50039C8.89039 11.6102 9.28039 11.5487 9.65039 11.4256C9.97039 11.3333 10.2504 11.1384 10.4704 10.882C10.6804 10.6256 10.7804 10.2769 10.7804 9.82562C10.7904 9.50767 10.7104 9.18972 10.5504 8.9128C10.3804 8.64613 10.1404 8.441 9.85039 8.32818C9.48039 8.17433 9.08039 8.1128 8.67039 8.12305C8.41039 8.12305 8.18039 8.12305 7.99039 8.13331C7.79039 8.12305 7.65039 8.13331 7.58039 8.14357Z" fill="#31A8FF"/>
<path d="M19.2006 10.9644C18.9006 10.8003 18.5806 10.6875 18.2406 10.6157C17.8706 10.5337 17.5006 10.4824 17.1206 10.4824C16.9206 10.4721 16.7106 10.5029 16.5206 10.5542C16.3906 10.5849 16.2806 10.6567 16.2106 10.7593C16.1606 10.8414 16.1306 10.9439 16.1306 11.0362C16.1306 11.1285 16.1706 11.2208 16.2306 11.3029C16.3206 11.4157 16.4406 11.508 16.5706 11.5798C16.8006 11.7029 17.0406 11.8157 17.2806 11.9183C17.8206 12.1029 18.3406 12.3593 18.8206 12.667C19.1506 12.8824 19.4206 13.1696 19.6106 13.5183C19.7706 13.8465 19.8506 14.2055 19.8406 14.5747C19.8506 15.0567 19.7106 15.5388 19.4506 15.9388C19.1706 16.349 18.7806 16.667 18.3306 16.8516C17.8406 17.067 17.2406 17.1798 16.5206 17.1798C16.0606 17.1798 15.6106 17.1388 15.1606 17.0465C14.8106 16.9849 14.4606 16.8721 14.1406 16.7183C14.0706 16.6773 14.0206 16.6055 14.0306 16.5234V14.7388C14.0306 14.708 14.0406 14.667 14.0706 14.6465C14.1006 14.626 14.1306 14.6362 14.1606 14.6567C14.5506 14.8926 14.9606 15.0567 15.4006 15.1593C15.7806 15.2619 16.1806 15.3132 16.5806 15.3132C16.9606 15.3132 17.2306 15.2619 17.4106 15.1696C17.5706 15.0978 17.6806 14.9234 17.6806 14.7388C17.6806 14.5952 17.6006 14.4619 17.4406 14.3285C17.2806 14.1952 16.9506 14.0414 16.4606 13.8465C15.9506 13.6619 15.4806 13.4157 15.0406 13.108C14.7306 12.8824 14.4706 12.5849 14.2806 12.2362C14.1206 11.908 14.0406 11.549 14.0506 11.1901C14.0506 10.749 14.1706 10.3285 14.3906 9.94905C14.6406 9.53879 15.0106 9.21059 15.4406 9.00546C15.9106 8.7593 16.5006 8.64648 17.2106 8.64648C17.6206 8.64648 18.0406 8.67725 18.4506 8.73879C18.7506 8.77982 19.0406 8.86187 19.3106 8.97469C19.3506 8.98495 19.3906 9.02597 19.4106 9.067C19.4206 9.10802 19.4306 9.14905 19.4306 9.19007V10.8619C19.4306 10.9029 19.4106 10.9439 19.3806 10.9644C19.2906 10.9849 19.2406 10.9849 19.2006 10.9644Z" fill="#31A8FF"/>
</g>
<defs>
<clipPath id="clip0_673_2698">
<rect width="24" height="24" fill="white"/>
</clipPath>
</defs>
</svg>
