<svg width="24" height="24" viewBox="0 0 24 24" fill="none" xmlns="http://www.w3.org/2000/svg">
<g clip-path="url(#clip0_673_2803)">
<path d="M13.7359 7.50879C13.2729 7.7403 13.0723 8.17245 13.0723 9.34544C13.0723 9.34544 13.3038 9.11393 13.6742 8.97502C13.9443 8.8747 14.1372 8.74351 14.2761 8.64319C14.6774 8.34223 14.7391 7.97952 14.7391 7.34673C14.7314 7.34673 14.0986 7.30814 13.7359 7.50879Z" fill="#FBBD71"/>
<path d="M10.9042 7.77906C10.5029 8.1109 10.4026 8.68196 10.4026 8.68196L9.10611 13.6517L8.04116 9.58485C7.94084 9.1527 7.74019 8.62022 7.43923 8.2498C7.06881 7.77906 6.29711 7.7482 6.2045 7.7482C6.13505 7.7482 5.37106 7.77906 4.96977 8.2498C4.66881 8.62022 4.46817 9.1527 4.36785 9.58485L3.36463 13.6517L2.06817 8.68196C2.06817 8.68196 1.96785 8.14948 1.56656 7.77906C0.933762 7.208 0 7.34691 0 7.34691L2.46945 16.6459C2.46945 16.6459 3.27203 16.7154 3.67331 16.5148C4.20579 16.2447 4.47588 16.0517 4.77685 14.7784C5.07781 13.644 5.88039 10.3411 5.94212 10.1096C5.97299 10.0093 6.04244 9.70832 6.24309 9.70832C6.44373 9.70832 6.51318 9.97842 6.54405 10.1096C6.6135 10.3411 7.40836 13.644 7.70932 14.7784C8.04116 16.044 8.27267 16.2447 8.81286 16.5148C9.21415 16.7154 10.0167 16.6459 10.0167 16.6459L12.4707 7.34691C12.4707 7.34691 11.537 7.21572 10.9042 7.77906Z" fill="black"/>
<path d="M14.7323 8.84375C14.7323 8.84375 14.5625 9.07526 14.2307 9.2759C13.9992 9.40709 13.7985 9.47655 13.567 9.60774C13.1658 9.80838 13.0654 10.009 13.0654 10.31V10.4103V10.9119V11.0122V16.6148C13.0654 16.6148 13.6982 16.6843 14.0995 16.4836C14.632 16.2135 14.7323 15.9511 14.7323 14.8167V9.21417V8.84375Z" fill="black"/>
<path d="M20.8667 12.0157L23.9998 7.37775C23.9998 7.37775 22.7033 7.14624 22.0319 7.74817C21.5998 8.11858 21.1676 8.81312 21.1676 8.81312L20.0332 10.48C19.9638 10.5803 19.902 10.6498 19.8017 10.6498C19.7014 10.6498 19.6011 10.5495 19.5702 10.48L18.4358 8.81312C18.4358 8.81312 17.9728 8.14945 17.5715 7.74817C16.9078 7.14624 15.6036 7.37775 15.6036 7.37775L18.6364 12.008L15.5342 16.6382C15.5342 16.6382 16.9001 16.808 17.5715 16.206C18.0036 15.8356 18.4049 15.2028 18.4049 15.2028L19.5393 13.5359C19.6088 13.4356 19.6705 13.3662 19.7708 13.3662C19.8712 13.3662 19.9715 13.4665 20.0023 13.5359L21.1368 15.2028C21.1368 15.2028 21.5689 15.8356 21.9702 16.206C22.6339 16.808 23.9689 16.6382 23.9689 16.6382L20.8667 12.0157Z" fill="black"/>
</g>
<defs>
<clipPath id="clip0_673_2803">
<rect width="24" height="9.33762" fill="white" transform="translate(0 7.33105)"/>
</clipPath>
</defs>
</svg>
