<svg width="24" height="24" viewBox="0 0 24 24" fill="none" xmlns="http://www.w3.org/2000/svg">
<path fill-rule="evenodd" clip-rule="evenodd" d="M6.40212 1.14278C5.06418 1.57172 4.4142 3.34857 4.67718 5.85857C4.74164 6.47422 4.84122 7.1456 4.89843 7.35064C4.95563 7.55567 5.00238 7.75412 5.00238 7.79153C5.00238 7.82905 4.67814 7.9709 4.28197 8.10671C2.44197 8.73728 0.685226 9.98482 0.206764 11.0007C-0.608213 12.7312 1.04351 14.7854 4.14856 15.903C4.53011 16.0402 4.87377 16.1816 4.9122 16.2171C4.95072 16.2526 4.91881 16.5919 4.84144 16.9711C4.27962 19.7241 4.77569 22.0572 6.07105 22.7532C7.21571 23.3684 9.19008 22.7291 11.1673 21.1031L12.0401 20.3853L12.9771 21.1656C14.6317 22.5436 16.3881 23.2337 17.4643 22.9288C18.0211 22.7709 18.6039 22.2622 18.8912 21.6833C19.3917 20.675 19.5356 18.8995 19.249 17.269C19.1641 16.7863 19.0937 16.3363 19.0926 16.2689C19.0915 16.2016 19.3907 16.0355 19.7576 15.8998C22.3343 14.9466 24 13.4069 24 11.978C24 10.5718 22.3713 9.08822 19.8084 8.15969C19.1685 7.92789 18.9903 7.81863 19.0291 7.68227C19.2083 7.05269 19.3297 5.9109 19.3279 4.87256C19.325 3.29888 19.0641 2.38867 18.418 1.69798C17.2411 0.440024 15.351 0.883661 12.7903 3.01913L11.9867 3.68931L11.5096 3.25532C9.72703 1.63381 7.60655 0.756735 6.40212 1.14278ZM8.27968 2.42608C8.88099 2.65306 10.1339 3.47155 10.8191 4.0849L11.246 4.4671L10.9012 4.88924C10.7117 5.12137 10.2554 5.71618 9.88733 6.21094C9.28069 7.02647 9.18324 7.11138 8.8446 7.11949C8.63914 7.12432 7.94466 7.22207 7.30131 7.3366C6.65795 7.45113 6.10072 7.52517 6.06294 7.50115C5.92398 7.41284 5.70561 5.72111 5.70946 4.76286C5.71415 3.61307 5.86272 2.98238 6.23637 2.5258C6.63308 2.04124 7.18882 2.01415 8.27968 2.42608ZM17.6635 2.41763C18.2271 2.96187 18.4312 4.84711 18.1294 6.72007L17.9908 7.58025L17.6601 7.5209C17.4783 7.4882 16.7479 7.37346 16.0372 7.26584L14.745 7.07013L14.4378 6.62956C14.2687 6.38723 13.8219 5.79867 13.4447 5.32169L12.7587 4.45449L13.2297 4.03147C15.0683 2.38012 16.9249 1.70435 17.6635 2.41763ZM12.6724 6.07008C13.0325 6.51756 13.3272 6.90371 13.3272 6.92817C13.3272 6.95264 12.7293 6.9726 11.9985 6.9726C11.0838 6.9726 10.6906 6.93596 10.7361 6.855C10.7964 6.74793 11.9767 5.26343 12.0054 5.25861C12.0122 5.2574 12.3123 5.6226 12.6724 6.07008ZM13.5571 8.10802L14.1604 8.10879L14.6938 8.9636C14.9872 9.43367 15.4813 10.3068 15.7916 10.9039L16.3559 11.9894L15.852 12.9837C15.5749 13.5305 15.0932 14.3975 14.7817 14.9104L14.2153 15.8428L13.2643 15.9202C12.7412 15.9627 11.7487 15.968 11.0586 15.932L9.80398 15.8665L9.21548 14.9222C8.89177 14.4029 8.40317 13.5295 8.12973 12.9815L7.63248 11.985L8.19569 10.9017C8.50541 10.3058 8.99764 9.43565 9.28955 8.96788L9.82031 8.11746L10.6932 8.07402C11.1733 8.05021 11.8783 8.04791 12.2599 8.06897C12.6415 8.09003 13.2251 8.10759 13.5571 8.10802ZM8.13475 8.79334C7.97764 9.04905 7.6708 9.59614 7.45286 10.009L7.05669 10.7594L6.72327 9.81237C6.53991 9.29139 6.38985 8.81945 6.38985 8.76339C6.38985 8.70733 6.49796 8.63449 6.62999 8.60158C7.1363 8.4752 7.84274 8.35178 8.12557 8.34027L8.42035 8.3282L8.13475 8.79334ZM16.7704 8.47981C17.1674 8.55879 17.5223 8.65434 17.5592 8.69219C17.6282 8.76328 17.104 10.4 16.9628 10.5542C16.919 10.6018 16.592 10.1205 16.2361 9.48457C15.5019 8.17275 15.4755 8.22223 16.7704 8.47981ZM5.81159 10.3577C6.02612 10.9611 6.25868 11.5685 6.32848 11.7077C6.4382 11.9262 6.37907 12.1568 5.89249 13.4081C5.58298 14.2041 5.32812 14.9182 5.32609 14.9947C5.3215 15.1766 4.96684 15.086 3.9351 14.6394C2.18913 13.8835 1.05344 12.8446 1.05344 12.0032C1.05344 11.0641 2.52618 9.87073 4.57547 9.14932C5.20218 8.9286 5.27657 8.92224 5.34541 9.08284C5.38724 9.1807 5.59707 9.75433 5.81159 10.3577ZM19.8081 9.3243C21.8045 10.1371 22.9327 11.1163 22.9327 12.0362C22.9327 12.6839 21.9955 13.635 20.6938 14.308C20.0841 14.6233 19.042 15.0201 18.8239 15.0201C18.7543 15.0201 18.6369 14.8125 18.5629 14.5588C18.489 14.305 18.2336 13.6306 17.9955 13.06C17.6004 12.1131 17.5742 11.9929 17.6959 11.6838C17.7691 11.4975 18.0258 10.8143 18.2661 10.1657C18.5095 9.50926 18.7642 8.98641 18.8408 8.98641C18.9163 8.98641 19.3517 9.13846 19.8081 9.3243ZM11.1383 9.95893C10.397 10.305 9.80803 11.2031 9.80579 11.9905C9.80216 13.2321 11.1726 14.4395 12.3013 14.1893C13.3492 13.957 14.1829 12.992 14.1804 12.0143C14.1774 10.8531 13.1164 9.75916 11.9931 9.75916C11.7583 9.75916 11.3736 9.84901 11.1383 9.95893ZM17.4322 14.5259C17.5826 14.9369 17.6818 15.2979 17.6523 15.3281C17.5775 15.4051 16.2157 15.6694 15.8688 15.6742L15.5822 15.6783L16.1613 14.6709C16.4798 14.1169 16.771 13.5647 16.8082 13.444C16.8723 13.2367 16.884 13.24 17.0173 13.5016C17.095 13.6539 17.2817 14.1149 17.4322 14.5259ZM7.72843 14.499C8.06623 15.1174 8.36347 15.6625 8.38908 15.7101C8.41459 15.7578 8.32344 15.7723 8.18651 15.7425C8.04947 15.7126 7.58915 15.6321 7.16363 15.5636C6.61686 15.4756 6.38985 15.3926 6.38985 15.2808C6.38985 15.1156 7.02018 13.3745 7.08006 13.3745C7.09895 13.3745 7.39074 13.8806 7.72843 14.499ZM8.70649 16.8811C9.14408 16.8849 9.1762 16.9116 9.98723 17.9451C10.4448 18.528 10.9262 19.1393 11.0571 19.3034L11.2952 19.6017L10.4773 20.2682C10.0275 20.6349 9.38667 21.0842 9.05325 21.267C8.30199 21.6785 7.23087 21.97 6.81484 21.876C5.88118 21.6653 5.4643 19.9966 5.79196 17.7824C5.88417 17.1597 5.98129 16.6142 6.00787 16.5699C6.03444 16.5256 6.55154 16.5767 7.1569 16.6834C7.76227 16.7899 8.45963 16.879 8.70649 16.8811ZM18.1463 17.077C18.3528 18.0194 18.3217 20.2225 18.0933 20.8312C17.7034 21.8707 17.1904 22.093 16.0251 21.7279C15.2786 21.4941 14.074 20.7374 13.2205 19.9663L12.7402 19.5324L13.126 19.1137C13.3382 18.8835 13.8103 18.2878 14.1752 17.7901C14.8148 16.9177 14.8548 16.8847 15.2836 16.8745C15.5283 16.8688 16.1848 16.7772 16.7425 16.6711C17.3001 16.5649 17.8131 16.4709 17.8822 16.4621C17.9528 16.4532 18.0689 16.7235 18.1463 17.077ZM13.3272 17.0943C13.3272 17.1756 12.4879 18.2588 12.2382 18.4998L11.9931 18.7364L11.3976 18.0027C11.0702 17.5992 10.7746 17.2196 10.7408 17.1593C10.7012 17.0886 11.1509 17.0496 12.0032 17.0496C12.7314 17.0496 13.3272 17.0696 13.3272 17.0943Z" fill="#00D8FF"/>
</svg>
