<svg width="24" height="24" viewBox="0 0 24 24" fill="none" xmlns="http://www.w3.org/2000/svg">
<g clip-path="url(#clip0_673_2779)">
<path d="M11.9036 0.140819C10.9387 0.145302 10.0171 0.227601 9.20628 0.371082C6.8176 0.793082 6.38391 1.67637 6.38391 3.30529V5.45661H12.0286V6.17371H6.38391H4.26549C2.62497 6.17371 1.18849 7.15976 0.739173 9.03556C0.220895 11.1857 0.197906 12.5273 0.739173 14.7724C1.14042 16.4435 2.09866 17.6342 3.73917 17.6342H5.67996V15.0553C5.67996 13.1922 7.29199 11.5487 9.20628 11.5487H14.8444C16.4139 11.5487 17.6668 10.2565 17.6668 8.68029V3.30529C17.6668 1.77554 16.3763 0.626392 14.8444 0.371082C13.8748 0.209666 12.8686 0.136335 11.9036 0.140819ZM8.85101 1.87108C9.43408 1.87108 9.91022 2.35501 9.91022 2.95003C9.91022 3.54294 9.43408 4.0224 8.85101 4.0224C8.26586 4.0224 7.7918 3.54294 7.7918 2.95003C7.7918 2.35501 8.26586 1.87108 8.85101 1.87108Z" fill="url(#paint0_linear_673_2779)"/>
<path d="M18.3706 6.17285V8.67943C18.3706 10.6227 16.7231 12.2584 14.8443 12.2584H9.20616C7.66177 12.2584 6.38379 13.5802 6.38379 15.1268V20.5018C6.38379 22.0316 7.71402 22.9313 9.20616 23.3702C10.993 23.8956 12.7064 23.9906 14.8443 23.3702C16.2654 22.9588 17.6667 22.1307 17.6667 20.5018V18.3505H12.0285V17.6334H17.6667H20.4891C22.1296 17.6334 22.7409 16.4891 23.3114 14.7715C23.9008 13.0033 23.8757 11.303 23.3114 9.03469C22.906 7.40155 22.1317 6.17285 20.4891 6.17285H18.3706ZM15.1996 19.7847C15.7847 19.7847 16.2588 20.2642 16.2588 20.8571C16.2588 21.4521 15.7847 21.936 15.1996 21.936C14.6165 21.936 14.1404 21.4521 14.1404 20.8571C14.1404 20.2642 14.6165 19.7847 15.1996 19.7847Z" fill="url(#paint1_linear_673_2779)"/>
</g>
<defs>
<linearGradient id="paint0_linear_673_2779" x1="0.341797" y1="0.140625" x2="13.3579" y2="11.2322" gradientUnits="userSpaceOnUse">
<stop stop-color="#5A9FD4"/>
<stop offset="1" stop-color="#306998"/>
</linearGradient>
<linearGradient id="paint1_linear_673_2779" x1="15.0639" y1="20.6762" x2="10.3942" y2="14.1326" gradientUnits="userSpaceOnUse">
<stop stop-color="#FFD43B"/>
<stop offset="1" stop-color="#FFE873"/>
</linearGradient>
<clipPath id="clip0_673_2779">
<rect width="23.5789" height="24" fill="white" transform="translate(0.210938)"/>
</clipPath>
</defs>
</svg>
