<svg width="24" height="24" viewBox="0 0 24 24" fill="none" xmlns="http://www.w3.org/2000/svg">
<path d="M12.5119 13.2929C12.5568 12.441 12.9488 11.6905 13.5402 11.1584C14.1202 10.6358 14.9008 10.3164 15.7525 10.3164C16.6034 10.3164 17.384 10.6358 17.9644 11.1584C18.5554 11.6905 18.9474 12.441 18.9927 13.292C19.0376 14.1674 18.7069 14.9806 18.127 15.5834C17.5356 16.1965 16.6944 16.5812 15.7525 16.5812C14.8106 16.5812 13.9678 16.1965 13.3768 15.5834C12.7964 14.9806 12.4666 14.1674 12.5119 13.2929Z" fill="#0E548B"/>
<path d="M7.35129 15.0136C7.35679 15.3469 7.4567 15.9948 7.60656 16.5007C7.92152 17.5716 8.45576 18.5622 9.19913 19.4353C9.96197 20.3328 10.9013 21.0536 11.9863 21.5654C13.1268 22.1028 14.3625 22.3767 15.646 22.3745C16.9274 22.3727 18.1631 22.0934 19.3036 21.5519C20.3886 21.0351 21.3271 20.3111 22.0887 19.4133C22.8316 18.5366 23.365 17.5441 23.6808 16.4732C23.8396 15.9321 23.9399 15.383 23.9801 14.832C24.0195 14.2891 24.003 13.7454 23.9306 13.202C23.7892 12.1433 23.445 11.1499 22.915 10.2444C22.4303 9.41232 21.8055 8.68384 21.0625 8.07069L21.0642 8.06933L13.5666 1.9428C13.5598 1.9374 13.5543 1.93154 13.5471 1.92658C13.0552 1.52473 12.2281 1.52608 11.687 1.92884C11.1401 2.3361 11.0774 3.00962 11.5643 3.43445L11.5622 3.4367L14.6893 6.14294L5.15802 6.15375C5.15336 6.15375 5.1487 6.15375 5.14532 6.15375C4.3575 6.15465 3.60016 6.70473 3.45031 7.39987C3.29621 8.10808 3.8313 8.69555 4.65045 8.6987L4.64918 8.70186L9.48022 8.69194L0.859526 15.7339C0.84852 15.7425 0.836667 15.7515 0.826507 15.7601C0.0132902 16.4228 -0.249598 17.5247 0.262631 18.2221C0.782481 18.9312 1.88779 18.9326 2.70948 18.2262L7.41437 14.1283C7.41437 14.1283 7.34579 14.6815 7.35129 15.0136ZM19.4412 16.8661C18.4717 17.9171 17.1145 18.5131 15.646 18.5163C14.1754 18.519 12.8182 17.9284 11.8487 16.8791C11.375 16.3678 11.0271 15.7794 10.8124 15.1528C10.602 14.5369 10.5203 13.8832 10.5745 13.2237C10.6257 12.579 10.8061 11.964 11.0939 11.4076C11.3767 10.8607 11.7662 10.3665 12.2471 9.94843C13.1894 9.1312 14.3892 8.68879 15.6439 8.68699C16.8999 8.68519 18.0988 9.12354 19.042 9.93807C19.522 10.3543 19.9111 10.8468 20.1939 11.3928C20.483 11.9487 20.6621 12.5614 20.7154 13.2079C20.7687 13.8665 20.687 14.5193 20.4766 15.1356C20.2616 15.7641 19.9149 16.3525 19.4412 16.8661Z" fill="#F4792B"/>
</svg>
