<svg width="24" height="26" viewBox="0 0 24 26" fill="none" xmlns="http://www.w3.org/2000/svg">
<g filter="url(#filter0_bi_159_1098)">
<g clip-path="url(#clip0_159_1098)">
<path d="M12.0017 12.9998C12.0018 11.9324 12.4259 10.9087 13.1807 10.154C13.9355 9.39923 14.9592 8.97526 16.0266 8.97531C17.0941 8.97537 18.1177 9.39945 18.8725 10.1543C19.6272 10.9091 20.0512 11.9328 20.0511 13.0002C20.0511 14.0676 19.627 15.0913 18.8722 15.846C18.1173 16.6008 17.0936 17.0247 16.0262 17.0247C14.9588 17.0246 13.9351 16.6005 13.1804 15.8457C12.4257 15.0909 12.0017 14.0672 12.0017 12.9998Z" fill="#1ABCFE"/>
<path d="M3.95193 21.0486C3.95199 19.9812 4.37607 18.9575 5.13089 18.2028C5.88571 17.4481 6.90942 17.0241 7.97684 17.0241L12.0015 17.0244L12.0013 21.049C12.0013 22.1165 11.5772 23.1401 10.8224 23.8949C10.0675 24.6496 9.04382 25.0736 7.97641 25.0735C6.90899 25.0735 5.88532 24.6494 5.13058 23.8946C4.37585 23.1397 3.95188 22.116 3.95193 21.0486H3.95193Z" fill="#0ACF83"/>
<path d="M12.002 0.925781L12.0015 8.97516L16.0262 8.97537C17.0936 8.97543 18.1173 8.55146 18.8722 7.79672C19.627 7.04199 20.0511 6.01831 20.0511 4.9509C20.0512 3.88349 19.6272 2.85977 18.8725 2.10495C18.1177 1.35014 17.0941 0.926054 16.0266 0.925997L12.002 0.925781Z" fill="#FF7262"/>
<path d="M3.95193 4.94998C3.95188 6.0174 4.37585 7.04111 5.13058 7.79593C5.88532 8.55074 6.90899 8.97483 7.97641 8.97489L12.0011 8.9751L12.0015 0.925724L7.97684 0.925509C6.90942 0.925451 5.88571 1.34942 5.13089 2.10416C4.37607 2.8589 3.95199 3.88257 3.95193 4.94998H3.95193Z" fill="#F24E1E"/>
<path d="M3.95193 12.9993C3.95188 14.0667 4.37585 15.0904 5.13058 15.8452C5.88532 16.6001 6.90899 17.0241 7.97641 17.0242L12.0011 17.0244L12.0015 8.97504L7.97684 8.97483C6.90942 8.97477 5.88571 9.39874 5.13089 10.1535C4.37607 10.9082 3.95199 11.9319 3.95193 12.9993H3.95193Z" fill="#A259FF"/>
</g>
</g>
<defs>
<filter id="filter0_bi_159_1098" x="-25.7689" y="-24.8446" width="75.5398" height="75.6887" filterUnits="userSpaceOnUse" color-interpolation-filters="sRGB">
<feFlood flood-opacity="0" result="BackgroundImageFix"/>
<feGaussianBlur in="BackgroundImageFix" stdDeviation="12.8849"/>
<feComposite in2="SourceAlpha" operator="in" result="effect1_backgroundBlur_159_1098"/>
<feBlend mode="normal" in="SourceGraphic" in2="effect1_backgroundBlur_159_1098" result="shape"/>
<feColorMatrix in="SourceAlpha" type="matrix" values="0 0 0 0 0 0 0 0 0 0 0 0 0 0 0 0 0 0 127 0" result="hardAlpha"/>
<feOffset/>
<feGaussianBlur stdDeviation="12.8849"/>
<feComposite in2="hardAlpha" operator="arithmetic" k2="-1" k3="1"/>
<feColorMatrix type="matrix" values="0 0 0 0 1 0 0 0 0 1 0 0 0 0 1 0 0 0 0.06 0"/>
<feBlend mode="normal" in2="shape" result="effect2_innerShadow_159_1098"/>
</filter>
<clipPath id="clip0_159_1098">
<rect width="16.0988" height="24.1481" fill="white" transform="translate(3.95215 0.925293)"/>
</clipPath>
</defs>
</svg>
