<svg width="588" height="315" viewBox="0 0 588 315" fill="none" xmlns="http://www.w3.org/2000/svg">
<path fill-rule="evenodd" clip-rule="evenodd" d="M3.15723 60.99C7.87813 48.3488 20.3269 39.0851 39.1878 33.3048C58.0304 27.5301 83.0795 25.2987 112.625 26.582C171.703 29.148 248.512 45.7548 329.024 75.8225C409.537 105.89 478.428 143.696 524.727 180.483C547.88 198.881 565.335 216.985 575.78 233.697C586.235 250.426 589.564 265.582 584.843 278.223C580.122 290.864 567.673 300.128 548.812 305.908C529.97 311.683 504.921 313.914 475.375 312.631C416.297 310.065 339.489 293.458 258.976 263.39C178.463 233.323 109.572 195.517 63.2736 158.73C40.1197 140.332 22.6651 122.228 12.2203 105.516C1.76542 88.7872 -1.56367 73.6312 3.15723 60.99ZM2.16803 60.6206C21.7153 8.27879 168.219 14.6421 329.393 74.8333C490.568 135.025 605.379 226.251 585.832 278.592C566.285 330.934 419.781 324.571 258.607 264.38C97.4322 204.188 -17.3792 112.962 2.16803 60.6206Z" fill="url(#paint0_linear_167_3972)"/>
<path d="M563.236 203.086L563.712 203.24L563.236 203.086L563.108 203.482C562.301 205.978 561.704 207.819 561.091 209.26C560.481 210.691 559.866 211.695 559.039 212.523C558.212 213.35 557.208 213.965 555.776 214.574C554.335 215.188 552.494 215.784 549.998 216.592L549.603 216.72L549.563 216.733C548.318 217.135 547.335 217.454 546.666 217.77C546.327 217.931 546.027 218.11 545.807 218.329C545.575 218.561 545.421 218.852 545.421 219.205C545.421 219.557 545.575 219.848 545.807 220.08C546.027 220.3 546.327 220.479 546.666 220.639C547.335 220.956 548.318 221.274 549.563 221.677L549.603 221.69L549.998 221.817C552.494 222.625 554.335 223.221 555.776 223.835C557.208 224.445 558.212 225.059 559.039 225.887C559.866 226.714 560.481 227.718 561.091 229.149C561.704 230.59 562.301 232.431 563.108 234.928L563.236 235.323L563.249 235.364C563.652 236.608 563.97 237.591 564.287 238.26C564.447 238.599 564.626 238.899 564.846 239.119C565.078 239.351 565.369 239.505 565.721 239.505C566.073 239.505 566.364 239.351 566.597 239.119C566.816 238.899 566.995 238.599 567.156 238.26C567.472 237.591 567.79 236.608 568.193 235.364L568.206 235.323L568.334 234.928C569.142 232.431 569.738 230.59 570.352 229.149C570.962 227.718 571.576 226.714 572.403 225.887C573.231 225.059 574.235 224.445 575.666 223.835C577.107 223.221 578.948 222.625 581.445 221.817L581.839 221.69L581.88 221.677C583.124 221.274 584.108 220.956 584.777 220.639C585.115 220.479 585.415 220.3 585.635 220.08C585.867 219.848 586.021 219.557 586.021 219.205C586.021 218.852 585.867 218.561 585.635 218.329C585.415 218.11 585.115 217.931 584.777 217.77C584.108 217.454 583.124 217.135 581.88 216.733L581.839 216.72L581.445 216.592C578.948 215.784 577.107 215.188 575.666 214.574C574.235 213.965 573.231 213.35 572.403 212.523C571.576 211.695 570.962 210.691 570.352 209.26C569.738 207.819 569.142 205.978 568.334 203.481L568.206 203.086L568.193 203.046C567.79 201.801 567.472 200.818 567.156 200.149C566.995 199.81 566.816 199.51 566.597 199.291C566.364 199.058 566.073 198.904 565.721 198.904C565.369 198.904 565.078 199.058 564.846 199.291C564.626 199.51 564.447 199.81 564.287 200.149C563.97 200.818 563.652 201.801 563.249 203.046L563.236 203.086Z" fill="#5BD473" stroke="#F4F8F5"/>
<path d="M44.7805 16.4123L44.3048 16.2584L50.2584 10.3048L50.4123 10.7805L50.4486 10.7687C50.9632 10.6023 51.3975 10.4618 51.6999 10.3185C51.8554 10.2448 52.0181 10.1518 52.1462 10.0237C52.2867 9.88328 52.395 9.68966 52.395 9.44751C52.395 9.20536 52.2867 9.01174 52.1462 8.87128C52.0181 8.74325 51.8554 8.65017 51.6999 8.5765C51.3975 8.43325 50.9632 8.29276 50.4486 8.1263L50.4123 8.11454L50.244 8.0601C49.1741 7.71394 48.4029 7.46395 47.8028 7.20833C47.2119 6.95662 46.8193 6.71226 46.5011 6.39407C46.1829 6.07589 45.9385 5.68329 45.6868 5.09239C45.4312 4.49233 45.1812 3.72113 44.835 2.65121L44.7805 2.48267L44.3048 2.63659L44.7805 2.48267L44.7687 2.44636C44.6023 1.93177 44.4618 1.49747 44.3185 1.19508C44.2448 1.03957 44.1518 0.876946 44.0237 0.748838C43.8833 0.608287 43.6897 0.5 43.4475 0.5C43.2054 0.5 43.0118 0.608288 42.8713 0.748838C42.7433 0.876946 42.6502 1.03957 42.5765 1.19508C42.4333 1.49746 42.2928 1.93175 42.1263 2.44632L42.1145 2.48267L42.06 2.65122C41.7138 3.72113 41.4638 4.49233 41.2082 5.09239C40.9565 5.68329 40.7121 6.07589 40.3939 6.39407C40.0757 6.71226 39.6831 6.95662 39.0922 7.20833C38.4922 7.46395 37.721 7.71394 36.651 8.0601L36.4828 8.11454L36.4464 8.1263C35.9318 8.29276 35.4975 8.43325 35.1951 8.5765C35.0396 8.65017 34.877 8.74325 34.7488 8.87128C34.6083 9.01174 34.5 9.20536 34.5 9.44751C34.5 9.68966 34.6083 9.88328 34.7489 10.0237C34.877 10.1518 35.0396 10.2448 35.1951 10.3185C35.4975 10.4618 35.9318 10.6023 36.4464 10.7687L36.4828 10.7805L36.651 10.8349C37.721 11.1811 38.4922 11.4311 39.0922 11.6867C39.6831 11.9384 40.0757 12.1828 40.3939 12.5009C40.7121 12.8191 40.9565 13.2117 41.2082 13.8026C41.4638 14.4027 41.7138 15.1739 42.06 16.2438L42.1145 16.4123L42.1263 16.4487C42.2928 16.9633 42.4333 17.3976 42.5765 17.6999C42.6502 17.8555 42.7433 18.0181 42.8713 18.1462C43.0118 18.2867 43.2054 18.395 43.4475 18.395C43.6897 18.395 43.8833 18.2867 44.0237 18.1462C44.1518 18.0181 44.2448 17.8555 44.3185 17.6999C44.4618 17.3976 44.6023 16.9633 44.7687 16.4487L44.7805 16.4123Z" fill="#5BD473" stroke="#F4F8F5"/>
<path d="M519.78 297.412L519.305 297.258L525.258 291.305L525.412 291.78L525.449 291.769C525.963 291.602 526.398 291.462 526.7 291.319C526.855 291.245 527.018 291.152 527.146 291.024C527.287 290.883 527.395 290.69 527.395 290.448C527.395 290.205 527.287 290.012 527.146 289.871C527.018 289.743 526.855 289.65 526.7 289.576C526.398 289.433 525.963 289.293 525.449 289.126L525.412 289.115L525.244 289.06C524.174 288.714 523.403 288.464 522.803 288.208C522.212 287.957 521.819 287.712 521.501 287.394C521.183 287.076 520.939 286.683 520.687 286.092C520.431 285.492 520.181 284.721 519.835 283.651L519.78 283.483L519.305 283.637L519.78 283.483L519.769 283.446C519.602 282.932 519.462 282.497 519.319 282.195C519.245 282.04 519.152 281.877 519.024 281.749C518.883 281.608 518.69 281.5 518.448 281.5C518.205 281.5 518.012 281.608 517.871 281.749C517.743 281.877 517.65 282.04 517.577 282.195C517.433 282.497 517.293 282.932 517.126 283.446L517.115 283.483L517.06 283.651C516.714 284.721 516.464 285.492 516.208 286.092C515.956 286.683 515.712 287.076 515.394 287.394C515.076 287.712 514.683 287.957 514.092 288.208C513.492 288.464 512.721 288.714 511.651 289.06L511.483 289.115L511.446 289.126C510.932 289.293 510.497 289.433 510.195 289.576C510.04 289.65 509.877 289.743 509.749 289.871C509.608 290.012 509.5 290.205 509.5 290.448C509.5 290.69 509.608 290.883 509.749 291.024C509.877 291.152 510.04 291.245 510.195 291.319C510.498 291.462 510.932 291.602 511.446 291.769L511.483 291.78L511.651 291.835C512.721 292.181 513.492 292.431 514.092 292.687C514.683 292.938 515.076 293.183 515.394 293.501C515.712 293.819 515.956 294.212 516.208 294.803C516.464 295.403 516.714 296.174 517.06 297.244L517.115 297.412L517.126 297.449C517.293 297.963 517.433 298.398 517.577 298.7C517.65 298.855 517.743 299.018 517.871 299.146C518.012 299.287 518.205 299.395 518.448 299.395C518.69 299.395 518.883 299.287 519.024 299.146C519.152 299.018 519.245 298.855 519.319 298.7C519.462 298.398 519.602 297.963 519.769 297.449L519.78 297.412Z" fill="#5BD473" stroke="#F4F8F5"/>
<path d="M38.2224 122.016C37.3358 121.129 36.6784 120.054 36.027 118.525C35.3717 116.987 34.7353 115.021 33.8739 112.359L33.7376 111.938L33.7244 111.897C33.2943 110.567 32.9555 109.52 32.6185 108.809C32.4479 108.449 32.2591 108.133 32.0289 107.902C31.7862 107.659 31.4838 107.5 31.1188 107.5C30.7537 107.5 30.4514 107.659 30.2087 107.902C29.9784 108.133 29.7896 108.449 29.619 108.809C29.2821 109.52 28.9432 110.567 28.5132 111.897L28.4999 111.938L28.3636 112.359C27.5022 115.021 26.8658 116.987 26.2105 118.525C25.5591 120.054 24.9017 121.129 24.0152 122.016C23.1286 122.902 22.0537 123.559 20.5245 124.211C18.9862 124.866 17.0207 125.503 14.3584 126.364L13.9377 126.5L13.8969 126.513C12.5675 126.943 11.5202 127.282 10.8089 127.619C10.4488 127.79 10.1327 127.978 9.90229 128.209C9.65944 128.451 9.5 128.754 9.5 129.119C9.5 129.484 9.65944 129.786 9.90229 130.029C10.1327 130.259 10.4488 130.448 10.8089 130.619C11.5202 130.955 12.5675 131.294 13.8969 131.724L13.9377 131.738L14.3584 131.874C17.0207 132.735 18.9862 133.371 20.5245 134.027C22.0537 134.678 23.1286 135.335 24.0152 136.222C24.9017 137.109 25.5591 138.183 26.2105 139.713C26.8658 141.251 27.5022 143.216 28.3636 145.879L28.4999 146.3L28.5132 146.341C28.9433 147.67 29.2821 148.717 29.619 149.429C29.7896 149.789 29.9784 150.105 30.2087 150.335C30.4514 150.578 30.7537 150.738 31.1188 150.738C31.4838 150.738 31.7862 150.578 32.0289 150.335C32.2591 150.105 32.4479 149.789 32.6185 149.429C32.9555 148.717 33.2943 147.67 33.7244 146.341L33.7376 146.3L33.874 145.879C34.7353 143.216 35.3717 141.251 36.027 139.713C36.6784 138.183 37.3358 137.109 38.2224 136.222C39.109 135.335 40.1839 134.678 41.7131 134.027C43.2514 133.371 45.2169 132.735 47.8791 131.874L48.2998 131.738L48.3406 131.724C49.6701 131.294 50.7173 130.956 51.4287 130.619C51.7888 130.448 52.1049 130.259 52.3353 130.029C52.5781 129.786 52.7376 129.484 52.7376 129.119C52.7376 128.754 52.5781 128.451 52.3353 128.209C52.1049 127.978 51.7888 127.79 51.4287 127.619C50.7173 127.282 49.6701 126.943 48.3406 126.513L48.2998 126.5L47.8791 126.364C45.2169 125.503 43.2514 124.866 41.7131 124.211C40.1839 123.559 39.109 122.902 38.2224 122.016Z" fill="#5BD473" stroke="#F4F8F5"/>
<defs>
<linearGradient id="paint0_linear_167_3972" x1="258.607" y1="264.38" x2="329.394" y2="74.8332" gradientUnits="userSpaceOnUse">
<stop offset="0.134785" stop-color="#5BD473" stop-opacity="0"/>
<stop offset="1" stop-color="#5BD473"/>
</linearGradient>
</defs>
</svg>
