<svg width="24" height="24" viewBox="0 0 24 24" fill="none" xmlns="http://www.w3.org/2000/svg">
<path fill-rule="evenodd" clip-rule="evenodd" d="M11.1564 0.0228716C10.4605 0.0848053 9.93293 0.162094 9.40281 0.279796C7.1816 0.772945 5.15849 1.88166 3.54036 3.49257C1.26641 5.75634 -0.00320505 8.80665 6.0764e-06 11.9984C0.0024906 14.4895 0.767841 16.9008 2.19665 18.9196C3.78387 21.1621 6.09605 22.8013 8.71879 23.5436C11.8045 24.4169 15.1044 24.0268 17.8821 22.4605C19.7676 21.3972 21.3525 19.8206 22.4248 17.9415C23.4613 16.1251 24 14.093 24 11.999C24 10.3196 23.6528 8.67768 22.9728 7.14159C21.9386 4.80558 20.1642 2.84142 17.942 1.57307C16.1056 0.524929 14.0671 -0.0105098 11.9534 0.000156273C11.6375 0.00175033 11.2789 0.011971 11.1564 0.0228716ZM7.78283 6.03525C8.32209 6.19376 8.68051 6.63121 8.71258 7.16994C8.71909 7.27953 8.71337 7.40904 8.69987 7.45776L8.67533 7.54634L10.6551 9.06822L12.6348 10.5901L12.8234 10.4616C13.1698 10.2257 13.6037 10.0406 13.9677 9.97343L14.1215 9.94507L14.1276 9.23009L14.1338 8.51513L14.0573 8.47856C13.9442 8.4245 13.7502 8.24135 13.6644 8.10764C13.5131 7.87172 13.4525 7.48354 13.5248 7.21197C13.603 6.91754 13.8427 6.64162 14.1447 6.4982C14.2941 6.42722 14.3548 6.41196 14.5266 6.40219C14.8935 6.3813 15.1868 6.48623 15.4237 6.72313C15.655 6.95441 15.7673 7.25925 15.7439 7.59189C15.72 7.93182 15.5396 8.24473 15.2647 8.42314L15.1187 8.51785L15.124 9.23283L15.1293 9.94781L15.1879 9.95526C15.3593 9.97709 15.7726 10.1175 16.02 10.2379C16.9846 10.7074 17.6144 11.5832 17.7586 12.6554C17.8871 13.6113 17.5661 14.5423 16.866 15.2439C16.4213 15.6896 15.8785 15.9844 15.2582 16.1173C14.9763 16.1777 14.274 16.177 13.9938 16.116C13.5689 16.0236 13.2113 15.8751 12.8803 15.6537L12.6986 15.5321L12.1181 16.1124L11.5376 16.6926L11.5601 16.7896C11.5923 16.9289 11.5689 17.1938 11.5111 17.3438C11.4125 17.5999 11.1822 17.8309 10.922 17.9347C10.8177 17.9763 10.7441 17.9863 10.5353 17.9873C10.2942 17.9883 10.2676 17.9837 10.1251 17.9158C9.41396 17.5769 9.30645 16.6353 9.9255 16.1674C10.1139 16.025 10.2855 15.9719 10.547 15.9752C10.6695 15.9767 10.7875 15.982 10.8093 15.9869C10.8359 15.9929 11.0412 15.8043 11.435 15.4122L12.0211 14.8285L11.9533 14.7299C11.7516 14.4367 11.5624 13.9488 11.4957 13.5497C11.4368 13.1971 11.4572 12.6415 11.5413 12.3069C11.614 12.0176 11.7445 11.6963 11.8797 11.4741C11.9337 11.3852 11.975 11.3105 11.9715 11.308C11.968 11.3055 11.0926 10.633 10.0263 9.81346L8.08749 8.32342L7.9476 8.37992C7.66859 8.49265 7.44505 8.50868 7.16209 8.43632C6.91561 8.37326 6.7667 8.28873 6.58315 8.10764C6.27699 7.80561 6.15068 7.39406 6.2364 6.97769C6.31025 6.61888 6.61173 6.24958 6.95058 6.10283C7.20292 5.99357 7.54616 5.9657 7.78283 6.03525ZM14.3207 11.4719C13.9648 11.5446 13.737 11.6678 13.4762 11.9282C13.3363 12.068 13.25 12.1786 13.1884 12.2967C12.9484 12.7577 12.9486 13.2976 13.1891 13.7806C13.254 13.911 13.3284 14.0086 13.4775 14.1587C13.6469 14.3292 13.7132 14.3778 13.8999 14.468C14.1333 14.5807 14.4102 14.6484 14.6338 14.6474C14.81 14.6467 15.155 14.5646 15.3183 14.4846C15.7251 14.2852 16.0247 13.9407 16.1649 13.511C16.2845 13.1446 16.239 12.6523 16.0535 12.3042C15.7231 11.6841 14.9945 11.3342 14.3207 11.4719Z" fill="#FF7A59"/>
</svg>
