<svg width="24" height="24" viewBox="0 0 24 24" fill="none" xmlns="http://www.w3.org/2000/svg">
<path fill-rule="evenodd" clip-rule="evenodd" d="M11.3134 0.104805C10.7939 0.331889 2.17453 5.37913 1.96097 5.58132C1.83594 5.69978 1.65585 5.9408 1.56075 6.11689C1.38946 6.43443 1.38786 6.48069 1.36529 11.7541C1.34984 15.363 1.37049 17.206 1.42964 17.491C1.57252 18.1792 1.92759 18.501 3.56721 19.429C5.22796 20.3688 5.74688 20.5648 6.57382 20.5648C7.99387 20.5648 8.86523 19.9224 9.16347 18.6555C9.32436 17.9719 9.32132 7.73802 9.16019 7.60427C9.08839 7.54471 8.79311 7.51958 8.33974 7.53447L7.63143 7.55768L7.59141 12.8406C7.54747 18.6425 7.56812 18.4167 7.05328 18.7348C6.83412 18.8703 6.6874 18.896 6.28069 18.87C5.82132 18.8408 5.67188 18.7771 4.52157 18.1206C3.83023 17.726 3.19349 17.3386 3.10672 17.2599C2.95271 17.1202 2.94887 16.9902 2.94887 11.9624V6.80815L3.16899 6.65399C3.60339 6.34958 11.8985 1.59442 11.995 1.59442C12.0892 1.59442 20.3609 6.33933 20.8186 6.65591L21.0388 6.80815L21.0376 11.9455C21.0368 14.7711 21.0091 17.1258 20.9758 17.1781C20.9051 17.2893 12.1131 22.4058 11.9928 22.4058C11.9483 22.4058 11.3722 22.0839 10.7126 21.6904L9.5135 20.9749L8.85266 21.2791C8.4891 21.4464 8.12867 21.6051 8.05166 21.6319C7.71076 21.75 7.80337 21.8217 9.85977 23.0317C11.4929 23.9926 11.7973 24.098 12.4826 23.9398C13.0376 23.8117 21.7805 18.7417 22.1649 18.3251C22.322 18.1548 22.4932 17.8735 22.5451 17.6999C22.6138 17.4708 22.6394 15.8985 22.6388 11.9508L22.638 6.51711L22.4474 6.10753C22.3424 5.88228 22.1357 5.60645 21.9879 5.49455C21.596 5.19807 12.9331 0.189811 12.6282 0.0835133C12.2845 -0.0363123 11.6113 -0.0254263 11.3134 0.104805ZM13.0114 7.32059C11.9145 7.53871 11.0808 8.06892 10.6708 8.80924C10.4515 9.20506 10.433 9.30111 10.433 10.039C10.433 10.9294 10.5294 11.2214 10.9732 11.6754C11.5397 12.255 12.4191 12.5312 14.5431 12.7969C16.1009 12.9919 16.8811 13.1981 17.176 13.493C17.353 13.67 17.3714 13.7433 17.3385 14.1402C17.3062 14.5289 17.2636 14.6225 17.0142 14.8511C16.4979 15.3242 15.2863 15.5236 13.8748 15.3677C12.5476 15.2212 11.9584 14.8133 11.7928 13.9268C11.7088 13.4775 11.6427 13.4409 10.9132 13.4409C10.4201 13.4409 10.2269 13.4717 10.1516 13.5624C9.98248 13.7662 10.1042 14.5875 10.3895 15.167C11.0002 16.4074 12.3503 16.986 14.6353 16.9865C16.4386 16.987 17.5993 16.6447 18.3532 15.8903C18.9102 15.333 19.074 14.8956 19.076 13.9595C19.0782 12.9478 18.8906 12.5158 18.2568 12.0726C17.5994 11.6129 17.009 11.4617 14.2146 11.0369C12.386 10.7589 12.0936 10.5901 12.1758 9.85998C12.2265 9.41061 12.5204 9.10276 13.0513 8.94308C13.5187 8.80252 15.3632 8.80564 15.8526 8.94788C16.4036 9.10805 16.8356 9.51187 16.9995 10.0201C17.0738 10.2506 17.1915 10.4843 17.261 10.5393C17.4524 10.6909 18.5138 10.6715 18.6718 10.5136C18.8279 10.3575 18.8288 10.2325 18.6779 9.65323C18.3272 8.30697 17.4757 7.5957 15.8855 7.32051C15.0306 7.17259 13.7554 7.17259 13.0114 7.32059Z" fill="#539E43"/>
</svg>
