<svg width="24" height="24" viewBox="0 0 24 24" fill="none" xmlns="http://www.w3.org/2000/svg">
<path fill-rule="evenodd" clip-rule="evenodd" d="M11.3055 0.0187871C7.33355 0.236627 3.71424 2.4469 1.64552 5.91815C0.817873 7.30692 0.234301 9.05502 0.0549249 10.6828C-0.0183083 11.3471 -0.0183083 12.6618 0.0549249 13.326C0.567237 17.975 3.80294 21.951 8.26617 23.4159C9.48964 23.8176 10.6556 24 11.9989 24C12.952 24 13.6092 23.9342 14.4782 23.7518C18.6531 22.8754 22.0797 19.802 23.4157 15.7355C23.8175 14.5126 24 13.3471 24 12.0044C24 11.0518 23.9342 10.395 23.7517 9.52626C23.2737 7.25137 22.1505 5.18701 20.485 3.52224C18.0423 1.08069 14.7632 -0.170849 11.3055 0.0187871ZM14.4552 5.1016L15.9193 5.39611L15.9948 5.28468C16.1587 5.04285 16.528 4.84841 16.8719 4.82288C17.1547 4.80187 17.2393 4.81909 17.4924 4.94944C17.9143 5.16664 18.0967 5.44851 18.1236 5.9245C18.1418 6.2456 18.1262 6.32419 17.998 6.55978C17.8239 6.87945 17.5648 7.07266 17.1964 7.15759C16.6257 7.28911 15.9706 6.91267 15.8253 6.36967C15.7713 6.16809 15.7387 6.13167 15.5746 6.08956C15.1357 5.97706 13.2238 5.59113 13.2054 5.61139C13.1861 5.63271 12.4256 9.23373 12.4256 9.30405C12.4256 9.32313 12.5432 9.33875 12.687 9.33875C13.0083 9.33875 14.0808 9.51783 14.5858 9.65581C15.2964 9.84998 16.1778 10.2523 16.9697 10.744C17.0375 10.7861 17.0842 10.7785 17.1564 10.7134C17.2094 10.6657 17.3847 10.5605 17.5461 10.4795C18.1567 10.1732 18.9614 10.3241 19.4795 10.842C19.8486 11.211 19.9731 11.5179 19.9724 12.0577C19.9719 12.4765 19.9573 12.5373 19.7815 12.8575C19.655 13.0879 19.5032 13.2707 19.3287 13.403L19.0662 13.6019L19.0309 14.176C18.9706 15.156 18.6745 15.8668 17.994 16.6653C17.0763 17.7418 15.5429 18.5195 13.6524 18.867C13.0132 18.9845 11.1644 18.9985 10.5588 18.8905C9.5058 18.7027 8.79645 18.4812 8.03622 18.1029C7.28346 17.7283 6.88882 17.4579 6.38765 16.9732C5.50373 16.1183 5.11666 15.2956 5.03521 14.0984C5.00337 13.6309 4.98385 13.5489 4.89797 13.5217C4.68179 13.4531 4.28261 12.9909 4.1626 12.6703C3.8254 11.7694 4.21028 10.8037 5.06199 10.414C5.59094 10.1719 6.34114 10.2516 6.8094 10.5996L6.98034 10.7267L7.34278 10.5038C8.4497 9.82284 9.84583 9.37666 11.132 9.29269L11.6514 9.25878L12.0614 7.31284C12.287 6.24257 12.4854 5.2931 12.5025 5.20295C12.5423 4.99343 12.7155 4.8071 12.8705 4.8071C12.9369 4.8071 13.65 4.93963 14.4552 5.1016ZM8.81139 12.0756C8.37156 12.2351 7.99964 12.7521 7.99964 13.204C7.99964 13.4942 8.20984 13.9236 8.44805 14.1199C9.06405 14.6274 9.97629 14.4037 10.298 13.6661C10.7016 12.7407 9.75894 11.7321 8.81139 12.0756ZM14.3725 12.1143C13.934 12.243 13.5825 12.7414 13.5817 13.2354C13.5809 13.8205 13.8923 14.2168 14.5019 14.4064C14.7962 14.498 14.8425 14.4995 15.092 14.4254C15.8162 14.2104 16.1549 13.4041 15.8108 12.714C15.5499 12.1907 14.9561 11.9431 14.3725 12.1143ZM9.03546 16.1336C8.8707 16.3849 9.04272 16.5801 9.73206 16.9239C10.5008 17.3075 11.4387 17.4852 12.3664 17.4232C13.2749 17.3625 13.9817 17.1408 14.6882 16.6948C15.0609 16.4595 15.1136 16.3852 15.0418 16.1964C14.9407 15.9306 14.7226 15.9413 14.2454 16.2354C13.632 16.6135 13.117 16.7573 12.2617 16.7896C11.8108 16.8066 11.3984 16.7927 11.1683 16.7528C10.7113 16.6734 10.089 16.4304 9.71952 16.1869C9.38099 15.9638 9.15814 15.9465 9.03546 16.1336Z" fill="#FF4500"/>
</svg>
