<svg width="24" height="24" viewBox="0 0 24 24" fill="none" xmlns="http://www.w3.org/2000/svg">
<path d="M22.5809 0L20.653 21.5975L11.987 24L3.34481 21.6009L1.41895 0H22.5809Z" fill="#264DE4"/>
<path d="M19.0026 20.2226L20.6501 1.7666H12V22.164L19.0026 20.2226Z" fill="#2965F1"/>
<path d="M5.83398 9.77734L6.07143 12.4266H12V9.77734H5.83398Z" fill="#EBEBEB"/>
<path d="M11.9995 4.41504H11.9904H5.35645L5.59727 7.06433H11.9995V4.41504Z" fill="#EBEBEB"/>
<path d="M11.9996 19.4148V16.6585L11.988 16.6616L9.03751 15.8649L8.84889 13.752H7.41518H6.18945L6.56061 17.9117L11.9874 19.4182L11.9996 19.4148Z" fill="#EBEBEB"/>
<path d="M15.2535 12.4264L14.946 15.8623L11.9912 16.6598V19.4161L17.4223 17.9108L17.4622 17.4632L18.0847 10.4886L18.1494 9.77721L18.6276 4.41504H11.9912V7.06433H15.7243L15.4832 9.77721H11.9912V12.4264H15.2535Z" fill="white"/>
</svg>
