<svg width="24" height="24" viewBox="0 0 24 24" fill="none" xmlns="http://www.w3.org/2000/svg">
<g clip-path="url(#clip0_673_2693)">
<path d="M13.9959 7.85427C12.4374 7.85419 10.8962 8.52252 9.72401 9.84192L9.72436 3.34876L7.39746 3.34863L7.39687 14.282C7.39668 17.8324 10.2748 20.7102 13.8259 20.7104C17.377 20.7106 20.2554 17.8331 20.2556 14.2827C20.2558 10.7323 17.5427 7.85446 13.9959 7.85427ZM13.826 18.232C11.6424 18.2319 9.8756 16.461 9.87572 14.2821C9.87584 12.1033 11.6472 10.3325 13.8265 10.3326C16.0101 10.3327 17.7769 12.1037 17.7768 14.2825C17.7767 16.4614 16.0097 18.2322 13.826 18.232Z" fill="#052644"/>
<path d="M5.70591 20.7046C6.58343 20.7046 7.29484 19.9934 7.29489 19.1161C7.29494 18.2387 6.5836 17.5275 5.70608 17.5274C4.82856 17.5274 4.11715 18.2386 4.1171 19.1159C4.11706 19.9933 4.82839 20.7045 5.70591 20.7046Z" fill="#0000FF"/>
</g>
<defs>
<clipPath id="clip0_673_2693">
<rect width="16.9037" height="17.7086" fill="white" transform="translate(3.54883 3.14551)"/>
</clipPath>
</defs>
</svg>
