<svg width="24" height="24" viewBox="0 0 24 24" fill="none" xmlns="http://www.w3.org/2000/svg">
<path fill-rule="evenodd" clip-rule="evenodd" d="M11.0994 0.0280494C9.02685 0.204056 7.08427 0.870658 5.41052 1.98019C0.298531 5.36892 -1.45934 11.9731 1.29817 17.4297C1.8966 18.6138 2.57388 19.5511 3.50951 20.4899C5.32077 22.3074 7.51373 23.4329 10.1264 23.886C10.9451 24.0279 12.9445 24.0398 13.7759 23.9077C16.3874 23.4926 18.6766 22.3347 20.5042 20.5047C22.3171 18.6894 23.4319 16.5081 23.886 13.8874C24.027 13.0739 24.0399 11.1167 23.9097 10.2842C23.7085 8.99715 23.3596 7.89209 22.7855 6.72311C22.165 5.45978 21.5315 4.57011 20.5364 3.56425C19.553 2.57031 18.5645 1.85655 17.3369 1.25409C16.1886 0.690508 15.1714 0.357626 14.0087 0.164861C13.125 0.0183669 11.8946 -0.0394953 11.0994 0.0280494ZM13.6501 0.931546C14.8538 1.10378 15.8554 1.41865 16.995 1.98307C21.4388 4.18407 23.8764 8.98225 23.0569 13.9151C22.4728 17.4309 20.1031 20.5709 16.8714 22.1113C14.746 23.1244 12.4049 23.4539 10.119 23.0616C6.6186 22.461 3.59018 20.214 2.00212 17.0391C1.4406 15.9165 1.11272 14.8786 0.924053 13.6264C0.783941 12.6965 0.78329 11.3196 0.92247 10.4006C1.46867 6.79494 3.65083 3.72922 6.85241 2.06952C8.96117 0.976327 11.2664 0.590425 13.6501 0.931546ZM8.55959 6.65366C7.55847 6.81081 6.81708 7.52983 6.53546 8.61664C6.45512 8.92681 6.37403 9.73632 6.40969 9.87267C6.43008 9.95068 6.48966 9.95837 7.07291 9.95837H7.71375L7.7461 9.64415C7.86434 8.49496 8.29114 8.03867 9.18111 8.11013C9.63747 8.14676 10.0375 8.29363 11.1791 8.84372C12.9442 9.69424 13.6771 9.94389 14.544 9.98983C15.3795 10.0341 15.9575 9.83519 16.4525 9.33315C16.9482 8.83036 17.1653 8.24317 17.2069 7.29336L17.2329 6.69984H16.5819H15.9308L15.9021 7.03956C15.8609 7.52792 15.7112 7.97332 15.5158 8.18968C15.0268 8.73092 14.2166 8.61259 12.337 7.72539C11.0732 7.12889 10.5125 6.89535 10.0416 6.76934C9.57468 6.64435 8.93617 6.59454 8.55959 6.65366ZM11.041 14.5552L11.0528 19.0124L11.8793 19.0251L12.7058 19.0378L12.6939 14.8383L12.682 10.6387L11.9373 10.3712C11.5276 10.2241 11.1557 10.1024 11.1108 10.1009C11.0334 10.0982 11.0297 10.331 11.041 14.5552Z" fill="black"/>
</svg>
