<svg width="24" height="24" viewBox="0 0 24 24" fill="none" xmlns="http://www.w3.org/2000/svg">
<path fill-rule="evenodd" clip-rule="evenodd" d="M0 12C0 5.3772 5.376 0 12 0C18.636 0 24 5.3772 24 12C24 18.6252 18.636 24 12 24C5.376 24 0 18.6252 0 12ZM11.316 15.5887L17.016 9.88873C17.424 9.48073 17.424 8.82073 17.016 8.40073C16.608 7.99273 15.936 7.99273 15.528 8.40073L10.572 13.3567L8.47198 11.2567C8.06398 10.8487 7.39198 10.8487 6.98398 11.2567C6.57598 11.6647 6.57598 12.3247 6.98398 12.7447L9.83998 15.5887C10.044 15.7927 10.308 15.8887 10.572 15.8887C10.848 15.8887 11.112 15.7927 11.316 15.5887Z" fill="#5BD473"/>
</svg>
