<svg width="56" height="56" viewBox="0 0 56 56" fill="none" xmlns="http://www.w3.org/2000/svg">
<path fill-rule="evenodd" clip-rule="evenodd" d="M4.69293 0.0396621C3.40941 0.189537 2.35234 0.728206 1.4506 1.69201C0.445903 2.76596 0 3.89984 0 5.38177C0 6.85818 0.446242 7.99815 1.43998 9.06014L1.54277 9.16998C1.76384 9.40622 1.77738 9.76907 1.57455 10.0211C1.38015 10.2626 1.02659 10.8592 0.788966 11.3467C-0.0502347 13.0686 -0.00180617 11.7397 0.0331887 32.0726L0.0632363 49.5238C0.0637982 49.8501 0.0640791 50.0132 0.0837443 50.1744C0.0934309 50.2537 0.106628 50.3326 0.123295 50.4108C0.157133 50.5695 0.209966 50.7239 0.315632 51.0327C1.0459 53.1671 2.8461 54.9678 4.97346 55.6916C5.28505 55.7977 5.44085 55.8507 5.60107 55.8844C5.67666 55.9003 5.7529 55.913 5.82957 55.9224C5.99209 55.9423 6.15667 55.9425 6.48582 55.9429L30.5921 55.9712L55.1154 56C55.3466 56.0003 55.5691 55.9123 55.7376 55.7541C55.9051 55.5968 56 55.3773 56 55.1477V34.7812V14.4132C56 14.1845 55.9055 13.9659 55.7388 13.8093C55.5031 13.5881 55.3553 13.5639 54.234 13.5639H53.7692C53.3678 13.5639 53.0681 13.1948 53.1506 12.8022C53.407 11.5831 53.285 9.1467 52.9037 7.87186C51.8008 4.18334 49.1657 1.54541 45.4393 0.399565C44.5007 0.110875 44.2892 0.0888679 42.4536 0.0888679C40.6193 0.0888679 40.406 0.111101 39.471 0.398662C35.7689 1.53728 33.0976 4.21471 31.9986 7.88857C31.6223 9.14625 31.5019 11.591 31.7565 12.8022C31.839 13.1948 31.5393 13.5639 31.138 13.5639H26.5451H23.4192C22.3112 13.5639 21.7572 13.5639 21.2592 13.3576C20.7611 13.1512 20.3695 12.7595 19.5863 11.976L14.9653 7.35295C11.5506 3.93686 8.52612 0.992744 8.24401 0.810366C7.24858 0.166965 5.97307 -0.109874 4.69293 0.0396621ZM6.8651 2.22515C7.25388 2.39951 7.81561 2.83988 8.50196 3.50834C9.07692 4.06818 9.08301 4.98994 8.5155 5.55732L7.0307 7.0418L5.54585 8.5262C4.97831 9.09357 4.05632 9.08748 3.49633 8.51267C2.22952 7.21255 1.88939 6.55053 1.89006 5.38697C1.89063 4.40748 2.18786 3.67108 2.86394 2.97418C3.95465 1.8499 5.41823 1.57588 6.8651 2.22515ZM44.8182 2.1694C47.3064 2.86426 49.3346 4.53963 50.4521 6.82308C51.1689 8.28786 51.4029 9.30312 51.3946 10.9118C51.3833 13.0493 50.8516 14.5477 49.3679 16.6223C48.5357 17.7861 47.9094 18.9685 47.5505 20.0533C47.2437 20.9805 46.9691 22.3646 46.9691 22.9828C46.9691 23.2659 46.7395 23.4954 46.4563 23.4954H46.066C45.5672 23.4954 45.1629 23.0912 45.1629 22.5926V20.7988V18.9865C45.1629 18.4918 45.5521 18.0845 46.0465 18.062C46.7926 18.028 47.0165 17.9686 47.4829 17.6803C49.3048 16.5541 49.1743 13.8213 47.2559 12.9282C46.4931 12.5732 45.6354 12.5735 44.8806 12.9293C43.8527 13.4141 43.3632 14.2444 43.3592 15.5107C43.3578 15.9319 43.0159 16.2725 42.5947 16.2725H42.4536H42.3125C41.8912 16.2725 41.5494 15.9319 41.548 15.5107C41.5439 14.2444 41.0545 13.4141 40.0265 12.9293C38.9969 12.4439 37.5599 12.6856 36.8445 13.4644C36.4261 13.9198 36.1369 14.6986 36.1369 15.3697C36.1369 16.9798 37.2875 18.0748 38.9823 18.0771C39.4033 18.0777 39.7443 18.4191 39.7443 18.84V20.7868V22.5926C39.7443 23.0912 39.34 23.4954 38.8412 23.4954H38.3614C38.1275 23.4954 37.9377 23.3061 37.9372 23.0722C37.9348 21.8791 37.4009 19.9355 36.6738 18.4733C36.4269 17.9767 35.8751 17.0837 35.4476 16.489C34.0347 14.5232 33.5185 13.0249 33.5067 10.8554C33.498 9.24715 33.7 8.37882 34.4405 6.84023C35.0268 5.6225 36.0566 4.37689 37.1268 3.59152C38.1825 2.81686 39.6699 2.19321 41.0799 1.93443C41.9095 1.78207 43.8734 1.90554 44.8182 2.1694ZM42.4536 4.5332C42.4536 5.54113 42.3792 5.4636 43.4823 5.60591C44.3029 5.71177 45.5441 6.36894 46.2426 7.0673C46.9412 7.76567 47.5985 9.00653 47.7044 9.8269C47.8467 10.9297 47.7692 10.8554 48.7774 10.8554H49.1986C49.4633 10.8554 49.6776 10.6403 49.6766 10.3757C49.6693 8.26134 48.0869 5.72622 46.0523 4.56965C45.1136 4.03595 43.796 3.63248 42.992 3.63248C42.6947 3.63248 42.4536 3.8735 42.4536 4.17081V4.5332ZM11.5806 6.56836C11.9523 6.94385 11.9507 7.54896 11.577 7.92247L9.74304 9.75591L7.93854 11.5599C7.54926 11.9491 6.9181 11.9491 6.52881 11.5599C6.13948 11.1707 6.13935 10.5397 6.52852 10.1503L8.30542 8.37239C9.67023 7.00692 10.8143 5.88963 10.8479 5.88963C10.8814 5.88963 11.2111 6.19503 11.5806 6.56836ZM18.3522 13.3382L22.4483 17.4341C22.686 17.6718 22.5176 18.0783 22.1814 18.0783C21.3821 18.0783 21.241 18.1094 21.0326 18.3322C20.9015 18.4725 20.779 18.7764 20.759 19.0112C20.7447 19.1792 20.5405 19.2538 20.4212 19.1346L16.209 14.9212L12.5964 11.3077C12.0982 10.8093 12.0971 10.0018 12.594 9.50209C13.0883 9.00495 13.5197 8.59822 13.5524 8.59822C13.5851 8.59822 15.7451 10.7312 18.3522 13.3382ZM7.99442 15.623L11.064 18.6912C11.8473 19.4741 12.2389 19.8656 12.4452 20.3634C12.6515 20.8612 12.6515 21.4148 12.6515 22.5221V32.1124V43.0247C12.6515 43.3763 12.2326 43.5593 11.9746 43.3204C10.7408 42.1785 9.07881 41.5514 7.29384 41.5543C5.42004 41.5574 3.78182 42.1615 2.49807 43.3229C2.23301 43.5627 1.80919 43.3742 1.80993 43.0168L1.83938 28.8402L1.86915 14.5084C1.86983 14.1812 1.87017 14.0175 1.89001 13.856C1.89959 13.7779 1.91256 13.7004 1.92889 13.6235C1.96271 13.4642 2.01563 13.3094 2.12148 12.9997C2.36306 12.2927 3.10653 10.9682 3.26187 10.9682C3.30329 10.9682 5.43302 13.0629 7.99442 15.623ZM14.9656 16.2725L19.1552 20.4619C19.2751 20.5818 19.1901 20.7868 19.0205 20.7868C18.3034 20.7868 18.0883 21.0929 18.047 22.1722C18.0343 22.5053 17.6307 22.6634 17.395 22.4276L13.2739 18.3062L9.4356 14.4675C8.93735 13.9692 8.93626 13.1619 9.43316 12.6622C9.92749 12.165 10.3588 11.7582 10.3916 11.7582C10.4244 11.7582 12.4827 13.7897 14.9656 16.2725ZM39.4523 14.8105C39.5964 14.9488 39.6855 15.226 39.7202 15.6452L39.7315 15.7806C39.7534 16.0451 39.5441 16.2717 39.2785 16.2708C38.3421 16.2677 37.77 15.6944 38.073 15.0626C38.3556 14.4736 38.9819 14.3591 39.4523 14.8105ZM46.6775 14.8109C46.967 15.0889 46.9564 15.6582 46.6559 15.9586C46.4898 16.1247 46.2286 16.2122 45.7904 16.2485L45.6549 16.2597C45.3903 16.2817 45.1636 16.0724 45.1646 15.8069C45.1683 14.6829 45.9843 14.1457 46.6775 14.8109ZM32.8775 15.9622C33.0382 16.288 33.4633 16.961 33.8219 17.4575C35.579 19.8897 36.1275 21.7505 36.1341 25.3011C36.1371 26.9324 36.2791 27.4938 36.8445 28.1093C37.1523 28.4444 38.122 28.91 38.5151 28.9114C38.7837 28.9125 38.8156 28.9617 38.8756 29.4692C39.0043 30.5549 39.7596 31.6045 40.8167 32.1665C41.3136 32.4307 41.5094 32.4665 42.4536 32.4665C43.3978 32.4665 43.5935 32.4307 44.0904 32.1665C45.1475 31.6045 45.9028 30.5549 46.0315 29.4692C46.0916 28.9617 46.1234 28.9125 46.3921 28.9114C46.8372 28.9098 47.7874 28.4251 48.1197 28.0303C48.654 27.3955 48.7574 26.8822 48.8171 24.5676C48.9005 21.3348 49.3737 19.8237 51.0209 17.5287C51.45 16.9309 51.9178 16.2006 52.0604 15.9057C52.219 15.5779 52.5512 15.3697 52.9154 15.3697H53.2567C53.7743 15.3697 54.1938 15.7891 54.1938 16.3065V34.7812V48.775C54.1938 51.3289 54.1938 52.6058 53.4002 53.3992C52.6066 54.1925 51.3293 54.1924 48.7747 54.1922L30.7416 54.1904C15.7083 54.1889 7.00564 54.1476 6.49912 54.0753C4.16225 53.7412 2.29522 51.8966 1.93465 49.5655C1.39991 46.1073 4.50227 42.9931 7.9951 43.482C10.4069 43.8197 12.2197 45.7021 12.5495 48.2112C12.6398 48.8986 12.7416 49.2425 12.9089 49.4244C13.2193 49.7621 13.8416 49.7662 14.1964 49.433C14.3631 49.2764 14.4576 49.0578 14.4576 48.8291V35.6373V24.9899C14.4576 23.9154 15.7553 23.3755 16.5178 24.1326L17.6127 25.2198C18.0929 25.6966 18.333 25.935 18.621 26.106C18.9089 26.277 19.2332 26.3737 19.8817 26.5672L23.1607 27.5454C25.6811 28.2974 27.8876 28.9126 28.0639 28.9126C28.4959 28.9126 28.9072 28.5092 28.9072 28.0853C28.9072 27.9004 28.2917 25.6873 27.5395 23.1676L26.5602 19.8865C26.3671 19.2396 26.2705 18.9162 26.1 18.6288C25.9295 18.3415 25.6918 18.1017 25.2165 17.6222L24.5777 16.9779C23.9871 16.3821 24.4093 15.3697 25.2483 15.3697H27.7845H31.9246C32.3292 15.3697 32.6986 15.5994 32.8775 15.9622ZM43.3567 20.7868V22.5926C43.3567 23.0912 42.9523 23.4954 42.4536 23.4954C41.9548 23.4954 41.5505 23.0912 41.5505 22.5926V20.7868V18.9811C41.5505 18.4825 41.9548 18.0783 42.4536 18.0783C42.9523 18.0783 43.3567 18.4825 43.3567 18.9811V20.7868ZM24.9334 21.0408C25.1518 21.7525 24.9591 22.5267 24.4325 23.0531L23.7393 23.7461L23.0462 24.4391C22.5196 24.9655 21.7453 25.1582 21.0333 24.9399L20.829 24.8772C20.2628 24.7037 19.8762 24.1809 19.8762 23.5889C19.8762 23.0386 20.3224 22.5926 20.8728 22.5926H20.9696C21.9368 22.5926 22.0931 22.5642 22.3243 22.3472C22.5629 22.123 22.5855 22.006 22.5855 20.9929V20.8803C22.5855 20.33 23.0317 19.884 23.5821 19.884C24.1743 19.884 24.6972 20.2704 24.8708 20.8365L24.9334 21.0408ZM26.2324 25.3702C26.4066 25.9667 26.5256 26.4782 26.4968 26.507C26.4494 26.5545 24.4033 25.9916 24.285 25.8986C24.2301 25.8554 25.7595 24.2853 25.8562 24.2856C25.8889 24.2856 26.0582 24.7738 26.2324 25.3702ZM46.945 25.9285C46.9079 26.3755 46.8218 26.6271 46.6456 26.8032C46.4007 27.0482 46.3622 27.0504 42.4536 27.0504C38.545 27.0504 38.5065 27.0482 38.2615 26.8032C38.0853 26.6271 37.9993 26.3755 37.9622 25.9285C37.9341 25.5907 38.2008 25.3011 38.5398 25.3011H42.4536H46.3674C46.7064 25.3011 46.973 25.5907 46.945 25.9285ZM44.191 29.2229C43.9867 30.0902 43.3061 30.6489 42.4536 30.6489C41.6011 30.6489 40.9205 30.0902 40.7161 29.2229C40.6788 29.0644 40.7991 28.9126 40.962 28.9126H42.4536H43.9451C44.108 28.9126 44.2283 29.0644 44.191 29.2229ZM24.6371 30.9795C24.4305 31.1994 24.3917 31.3735 24.3917 32.0808V32.1308C24.3917 32.6048 24.094 33.0278 23.6476 33.1878L23.5961 33.2063C23.1725 33.3581 22.6994 33.2548 22.3777 32.9402C21.7613 32.3375 21.3865 32.2105 20.9326 32.4506C20.7551 32.5444 20.0116 33.2237 19.2802 33.9601C17.5879 35.6642 17.5375 35.8248 18.407 36.7439L18.4577 36.7975C18.7884 37.1471 18.8944 37.6528 18.732 38.1057C18.5731 38.5486 18.1532 38.844 17.6826 38.844H17.6109C16.8619 38.844 16.724 38.8768 16.5092 39.1052C16.2746 39.3549 16.2638 39.463 16.2638 41.5684C16.2638 43.7242 16.2694 43.7756 16.5251 44.0159C16.7451 44.2224 16.9193 44.2612 17.6267 44.2612H17.6826C18.1532 44.2612 18.5731 44.5566 18.732 44.9995C18.8944 45.4524 18.7884 45.9581 18.4577 46.3077L18.407 46.3614C17.5265 47.2922 17.5744 47.4326 19.397 49.2546C21.2195 51.0767 21.3599 51.1246 22.291 50.2444L22.3447 50.1936C22.6943 49.863 23.2002 49.757 23.6532 49.9194C24.0962 50.0782 24.3917 50.4981 24.3917 50.9686V51.0402C24.3917 51.789 24.4244 51.9269 24.6529 52.1416C24.9027 52.3762 25.0108 52.387 27.1168 52.387C29.2731 52.387 29.3245 52.3814 29.5648 52.1258C29.7714 51.9058 29.8103 51.7317 29.8103 51.0244V50.9744C29.8103 50.5004 30.108 50.0774 30.5543 49.9174L30.6058 49.8989C31.0294 49.7471 31.5026 49.8504 31.8243 50.165C32.4406 50.7678 32.8154 50.8947 33.2693 50.6547C33.4468 50.5608 34.1904 49.8815 34.9218 49.1451C36.6141 47.4411 36.6644 47.2805 35.7949 46.3614L35.7442 46.3077C35.4135 45.9581 35.3075 45.4524 35.4699 44.9995C35.6288 44.5566 36.0487 44.2612 36.5193 44.2612H36.591C37.34 44.2612 37.478 44.2285 37.6927 44.0001C37.9274 43.7503 37.9381 43.6423 37.9381 41.5368C37.9381 39.381 37.9326 39.3297 37.6769 39.0894C37.4569 38.8829 37.2827 38.844 36.5752 38.844H36.5193C36.0487 38.844 35.6288 38.5486 35.4699 38.1057C35.3075 37.6528 35.4135 37.1471 35.7442 36.7975L35.7949 36.7439C36.6755 35.813 36.6275 35.6726 34.8049 33.8507C32.9825 32.0286 32.8421 31.9806 31.911 32.8609L31.8573 32.9116C31.5076 33.2422 31.0018 33.3482 30.5488 33.1858C30.1058 33.027 29.8103 32.6072 29.8103 32.1367V32.065C29.8103 31.3162 29.7775 31.1783 29.549 30.9637C29.2992 30.729 29.1912 30.7183 27.0852 30.7183C24.9288 30.7183 24.8774 30.7238 24.6371 30.9795ZM28.0041 33.2965C28.0041 34.224 28.0986 34.3387 29.1414 34.6776C29.5403 34.8071 30.1424 35.0613 30.4794 35.2422C31.3483 35.7087 31.7293 35.6799 32.3592 35.0994C32.6453 34.8358 33.0884 34.8448 33.3635 35.1198L33.4495 35.2057L33.5355 35.2917C33.8106 35.5667 33.8195 36.0098 33.5558 36.2957C32.9751 36.9257 32.9462 37.3068 33.4138 38.175C33.5951 38.512 33.8536 39.1307 33.9882 39.55C34.2914 40.495 34.4934 40.6498 35.4233 40.6498C35.8147 40.6498 36.1319 40.9669 36.1319 41.3582V41.5526V41.7471C36.1319 42.1383 35.8147 42.4555 35.4233 42.4555C34.4965 42.4555 34.2915 42.6112 33.99 43.5442C33.8565 43.9574 33.5979 44.5911 33.4156 44.9522C32.9547 45.865 32.9788 46.1836 33.5558 46.8095C33.8195 47.0955 33.8106 47.5385 33.5355 47.8136L33.4495 47.8995L33.3635 47.9854C33.0884 48.2605 32.6453 48.2695 32.3592 48.0058C31.7291 47.4253 31.3479 47.3964 30.4794 47.8638C30.1424 48.0451 29.5235 48.3035 29.1041 48.4381C28.1588 48.7412 28.0041 48.9431 28.0041 49.8728C28.0041 50.2641 27.6868 50.5812 27.2955 50.5812H27.101H26.9065C26.5151 50.5812 26.1979 50.2641 26.1979 49.8728C26.1979 48.9431 26.0431 48.7412 25.0978 48.4381C24.6784 48.3035 24.0596 48.0451 23.7225 47.8638C22.8541 47.3964 22.4728 47.4253 21.8427 48.0058C21.5567 48.2695 21.1135 48.2605 20.8384 47.9854L20.7524 47.8995L20.6665 47.8136C20.3914 47.5385 20.3824 47.0955 20.6461 46.8095C21.2268 46.1796 21.2557 45.7984 20.7881 44.9302C20.6068 44.5932 20.3483 43.9745 20.2137 43.5553C19.9105 42.6102 19.7086 42.4555 18.7786 42.4555C18.3873 42.4555 18.07 42.1383 18.07 41.7471V41.5526V41.3582C18.07 40.9669 18.3873 40.6498 18.7786 40.6498C19.7086 40.6498 19.9105 40.495 20.2137 39.55C20.3483 39.1307 20.6068 38.512 20.7881 38.175C21.2557 37.3068 21.2268 36.9257 20.6461 36.2957C20.3824 36.0098 20.3914 35.5667 20.6665 35.2917L20.7524 35.2057L20.8384 35.1198C21.1135 34.8448 21.5567 34.8358 21.8427 35.0994C22.4728 35.68 22.8541 35.7089 23.7225 35.2414C24.0596 35.0602 24.6784 34.8017 25.0978 34.6672C26.0431 34.364 26.1979 34.1621 26.1979 33.2324C26.1979 32.8412 26.5151 32.524 26.9065 32.524H27.101H27.2314C27.6581 32.524 28.0041 32.8699 28.0041 33.2965ZM41.5683 35.6558C41.6062 36.8681 41.6409 37.0477 41.972 37.7495C42.4593 38.7822 43.437 39.7568 44.443 40.2128C45.0003 40.4655 45.481 40.5831 46.2809 40.6625C47.6034 40.794 48.2193 40.9888 48.907 41.4934C49.9223 42.2381 50.4813 43.351 50.496 44.6569C50.5116 46.0308 49.905 47.2472 48.8386 47.9808C47.7635 48.7202 47.8776 48.707 42.1996 48.7503L37.931 48.783C37.435 48.7868 37.035 49.1898 37.035 49.6856C37.035 50.1802 37.4361 50.5812 37.9309 50.5812H42.2041C46.4814 50.5812 47.4877 50.5514 48.0367 50.4084C50.0118 49.8942 51.6995 48.2095 52.2125 46.2402C52.5866 44.8039 52.3726 43.1121 51.6541 41.8277C51.1204 40.8734 50.1315 39.9285 49.1716 39.4553C48.4095 39.0796 48.0015 38.9822 46.1937 38.7447C44.3518 38.5028 43.3567 37.1863 43.3567 34.9915C43.3567 34.626 43.0603 34.3297 42.6947 34.3297H42.4417C41.9411 34.3297 41.5397 34.7438 41.5554 35.2441L41.5683 35.6558ZM25.4978 36.3472C23.1504 37.1199 21.6824 39.1228 21.6824 41.5526C21.6824 43.7882 23.0788 45.8386 25.1453 46.6371C26.1286 47.017 27.6387 47.0684 28.6645 46.7569C30.2347 46.2801 31.6028 45.0181 32.1867 43.5078C32.5677 42.5224 32.6183 41.0153 32.3051 39.9842C31.8349 38.4366 30.5518 37.0473 29.0566 36.467C28.1332 36.1086 26.3999 36.0503 25.4978 36.3472ZM28.398 38.2424C29.1931 38.5054 30.154 39.4813 30.4359 40.3123C30.9021 41.6866 30.5962 43.0421 29.5935 44.0445C28.5908 45.0469 27.235 45.3528 25.8603 44.8867C25.0047 44.5965 24.0561 43.648 23.7663 42.7929C23.3425 41.5427 23.5871 40.1796 24.4011 39.2552C25.455 38.0582 26.8061 37.7159 28.398 38.2424Z" fill="#33C24F"/>
</svg>
