<svg width="56" height="56" viewBox="0 0 56 56" fill="none" xmlns="http://www.w3.org/2000/svg">
<path fill-rule="evenodd" clip-rule="evenodd" d="M3.04504 0.159841C1.90564 0.515542 0.905644 1.38996 0.349918 2.51673C0.271389 2.67591 0.232125 2.75551 0.198651 2.83659C0.089979 3.09984 0.0248647 3.37899 0.00585537 3.66311C0 3.75063 0 3.83936 0 4.01683V22.7728V41.5276C0 41.7069 0 41.7965 0.00597231 41.8849C0.0250662 42.1674 0.0897636 42.4451 0.19756 42.707C0.231278 42.7889 0.270898 42.8693 0.350137 43.0301C0.795726 43.9343 1.55693 44.6949 2.46214 45.1401C2.62816 45.2218 2.71118 45.2626 2.79587 45.2972C3.05133 45.4016 3.32163 45.4651 3.59686 45.4854C3.6881 45.4922 3.78063 45.4926 3.96569 45.4934L10.162 45.5204C14.0057 45.5372 17.1513 45.5865 17.1521 45.6298C17.1529 45.6733 17.0688 46.0703 16.9655 46.512C16.7826 47.2929 16.7636 47.3222 16.2791 47.5686C15.6631 47.8819 15.3661 48.1935 15.0777 48.8291C14.8912 49.24 14.8537 49.5501 14.8517 50.6985C14.8481 52.7376 14.3383 52.5514 19.9248 52.5514H23.6164C24.1006 52.5514 24.4932 52.1593 24.4932 51.6755C24.4932 51.1918 24.1006 50.7997 23.6164 50.7997H20.5344H17.1869C16.8577 50.7997 16.5989 50.5188 16.6261 50.1911C16.6621 49.7576 16.7458 49.5134 16.9166 49.3426C17.1525 49.1067 17.2169 49.1022 20.8249 49.0712L23.6207 49.0471C24.1038 49.0429 24.4932 48.6506 24.4932 48.168C24.4932 47.6866 24.1025 47.2963 23.6206 47.2963H21.589C19.9918 47.2963 18.686 47.2594 18.6875 47.2142C18.6888 47.169 18.7782 46.7873 18.8861 46.3658C19.0018 45.9138 19.4071 45.5959 19.8741 45.5908L21.7877 45.5702L23.6185 45.5503C24.1031 45.5451 24.4932 45.1511 24.4932 44.667C24.4932 44.1843 24.1015 43.793 23.6183 43.793H14.4163C7.54575 43.793 4.16197 43.755 3.78148 43.6734C3.05458 43.5176 2.38389 42.9973 2.03353 42.3172C1.77808 41.8212 1.75036 41.6336 1.71419 40.1561C1.69256 39.2688 2.40658 38.5379 3.29495 38.5379H13.0839H23.6164C24.1006 38.5379 24.4932 38.1458 24.4932 37.6621C24.4932 37.1784 24.1006 36.7863 23.6164 36.7863H13.0959H6.9589C4.47919 36.7863 3.23933 36.7863 2.46898 36.0167C1.69863 35.2471 1.69863 34.0085 1.69863 31.5312V20.5886C1.69863 9.29299 1.7349 4.22221 1.8183 3.83344C1.97315 3.11241 2.49414 2.43768 3.16099 2.0949C3.60208 1.86817 3.88833 1.81485 4.88603 1.7738L5.22035 1.76003C5.70197 1.74019 6.08219 1.34436 6.08219 0.862812C6.08219 0.387636 5.69516 0.0031905 5.21952 0.00589997L4.79452 0.00832097C4.05786 0.0124812 3.30926 0.0772934 3.04504 0.159841ZM7.83562 0.876826C7.83562 1.36054 8.22813 1.75267 8.71233 1.75267C9.19652 1.75267 9.58904 1.36054 9.58904 0.876826C9.58904 0.393113 9.19652 0.000985807 8.71233 0.000985807C8.22813 0.000985807 7.83562 0.393113 7.83562 0.876826ZM11.3425 0.875731C11.3425 1.36005 11.7355 1.75267 12.2203 1.75267H31.5015C45.6603 1.75267 51.8265 1.78825 52.2185 1.87222C52.9454 2.02801 53.6162 2.54848 53.9666 3.22878C54.1506 3.58593 54.2466 3.98179 54.2466 4.38346V22.7728V41.1622C54.2466 41.5639 54.1506 41.9597 53.9666 42.3169C53.7156 42.8042 52.9097 43.574 52.6506 43.574C52.5918 43.574 52.5394 37.8435 52.5222 29.5309L52.4948 16.2796C52.4944 16.0977 52.4942 16.0067 52.4879 15.917C52.4682 15.6381 52.404 15.364 52.2978 15.1053C52.2637 15.0221 52.2234 14.9405 52.143 14.7773C51.6973 13.873 50.9361 13.1124 50.0309 12.6673C49.8699 12.5881 49.7895 12.5485 49.7075 12.5148C49.4453 12.4072 49.1674 12.3425 48.8845 12.3235C48.796 12.3175 48.7063 12.3175 48.5269 12.3175H39.3973H30.2676C30.0882 12.3175 29.9985 12.3175 29.91 12.3235C29.6272 12.3425 29.3493 12.4072 29.0871 12.5148C29.0051 12.5485 28.9246 12.5881 28.7636 12.6673C27.8584 13.1124 27.0971 13.873 26.6515 14.7773C26.5723 14.9381 26.5327 15.0185 26.4989 15.1004C26.3911 15.3623 26.3264 15.64 26.3073 15.9225C26.3014 16.0109 26.3014 16.1005 26.3014 16.2798V34.1587V52.0377C26.3014 52.2169 26.3014 52.3066 26.3073 52.3949C26.3264 52.6775 26.3911 52.9551 26.4989 53.2171C26.5326 53.299 26.5723 53.3794 26.6515 53.5402C27.0971 54.4445 27.8584 55.2051 28.7636 55.6502C28.9246 55.7294 29.0051 55.7689 29.0871 55.8026C29.3493 55.9103 29.6272 55.975 29.91 55.994C29.9985 56 30.0882 56 30.2676 56H39.3973H48.5269C48.7063 56 48.796 56 48.8845 55.994C49.1674 55.975 49.4453 55.9103 49.7075 55.8026C49.7895 55.7689 49.8699 55.7294 50.0309 55.6502C50.9359 55.2052 51.6973 54.4446 52.143 53.5405C52.2274 53.3694 52.2696 53.2839 52.3051 53.1965C52.4061 52.9483 52.4684 52.6861 52.49 52.419C52.4976 52.325 52.4985 52.2296 52.5002 52.0389L52.5259 49.1328C52.5567 45.6643 52.571 45.4352 52.7551 45.4352C53.1303 45.4352 54.2581 44.7813 54.7773 44.2625C55.0647 43.9755 55.4573 43.4209 55.6499 43.0301C55.7291 42.8693 55.7687 42.7889 55.8024 42.707C55.9102 42.4451 55.9749 42.1674 55.994 41.8849C56 41.7965 56 41.7069 56 41.5276V22.7728V4.01801C56 3.83878 56 3.74917 55.994 3.66079C55.9749 3.37822 55.9102 3.10059 55.8024 2.83864C55.7687 2.75671 55.7291 2.67632 55.6499 2.51552C55.2043 1.61122 54.443 0.85066 53.5378 0.405514C53.3751 0.325515 53.2938 0.285516 53.2108 0.251532C52.9509 0.144971 52.6755 0.080722 52.3951 0.061228C52.3057 0.0550111 52.2151 0.0548867 52.0338 0.0546379L32.0845 0.027261L12.2203 8.44345e-07C11.7357 -0.00066419 11.3425 0.391608 11.3425 0.875731ZM11.5807 3.75768C11.3802 3.97106 11.3425 4.13999 11.3425 4.8261V4.8803C11.3425 5.3367 11.0556 5.74395 10.6255 5.89802C10.1858 6.05556 9.69467 5.95274 9.35523 5.63205L9.30312 5.58282C8.39923 4.72888 8.2629 4.77541 6.4937 6.54296C4.72438 8.31041 4.67781 8.4466 5.5326 9.34959L5.58188 9.40165C5.90289 9.74075 6.00581 10.2314 5.84811 10.6707C5.69389 11.1003 5.28624 11.3869 4.82938 11.3869H4.75978C4.03266 11.3869 3.89874 11.4187 3.6903 11.6402C3.46247 11.8825 3.45205 11.9873 3.45205 14.0298C3.45205 16.121 3.45742 16.1709 3.70564 16.4039C3.91923 16.6043 4.08833 16.6419 4.77512 16.6419H4.82938C5.28624 16.6419 5.69389 16.9285 5.84811 17.3582C6.00581 17.7975 5.90289 18.2881 5.58188 18.6272L5.5326 18.6793C4.67781 19.5822 4.72438 19.7184 6.4937 21.4859C8.2629 23.2534 8.39923 23.3 9.30312 22.446L9.35523 22.3968C9.69468 22.0761 10.1858 21.9733 10.6255 22.1308C11.0556 22.2849 11.3425 22.6921 11.3425 23.1485V23.2181C11.3425 23.9445 11.3742 24.0783 11.5961 24.2865C11.8386 24.5141 11.9435 24.5245 13.9879 24.5245C16.0813 24.5245 16.1312 24.5191 16.3645 24.2712C16.565 24.0578 16.6027 23.8889 16.6027 23.2028V23.1486C16.6027 22.6921 16.8896 22.2849 17.3197 22.1308C17.7594 21.9733 18.2505 22.0761 18.59 22.3968L18.6421 22.446C19.546 23.3 19.6823 23.2534 21.4515 21.4859C23.2208 19.7184 23.2674 19.5822 22.4126 18.6793L22.3633 18.6272C22.0423 18.2881 21.9394 17.7975 22.0971 17.3582C22.2513 16.9285 22.659 16.6419 23.1158 16.6419H23.1854C23.9125 16.6419 24.0465 16.6102 24.2549 16.3886C24.4827 16.1463 24.4932 16.0416 24.4932 13.9991C24.4932 11.9078 24.4878 11.858 24.2396 11.6249C24.026 11.4246 23.8569 11.3869 23.1701 11.3869H23.1158C22.659 11.3869 22.2513 11.1003 22.0971 10.6707C21.9394 10.2314 22.0423 9.74075 22.3633 9.40165L22.4126 9.34959C23.2674 8.4466 23.2208 8.31041 21.4515 6.54296C19.6823 4.77541 19.546 4.72888 18.6421 5.58282L18.59 5.63205C18.2505 5.95275 17.7594 6.05556 17.3197 5.89802C16.8896 5.74395 16.6027 5.3367 16.6027 4.8803V4.81077C16.6027 4.08437 16.571 3.95059 16.3492 3.74236C16.1066 3.51475 16.0018 3.50435 13.9573 3.50435C11.8639 3.50435 11.814 3.50971 11.5807 3.75768ZM36.7671 4.38019C36.7671 4.8639 37.1596 5.25603 37.6438 5.25603H42.4658H47.2877C47.7719 5.25603 48.1644 4.8639 48.1644 4.38019C48.1644 3.89647 47.7719 3.50435 47.2877 3.50435H42.4658H37.6438C37.1596 3.50435 36.7671 3.89647 36.7671 4.38019ZM49.9178 4.38019C49.9178 4.8639 50.3103 5.25603 50.7945 5.25603C51.2787 5.25603 51.6712 4.8639 51.6712 4.38019C51.6712 3.89647 51.2787 3.50435 50.7945 3.50435C50.3103 3.50435 49.9178 3.89647 49.9178 4.38019ZM14.8493 6.00542C14.8493 6.90512 14.941 7.01635 15.9534 7.34512C16.3407 7.47081 16.9251 7.71735 17.2524 7.89285C18.0959 8.34544 18.4658 8.31741 19.0773 7.75436C19.3549 7.49861 19.7852 7.50733 20.0522 7.77413L20.1357 7.85749L20.2191 7.94085C20.4862 8.20765 20.4949 8.63744 20.2389 8.91485C19.6752 9.52596 19.6471 9.89568 20.101 10.7379C20.277 11.0648 20.528 11.665 20.6586 12.0717C20.953 12.9885 21.149 13.1386 22.0518 13.1386C22.4317 13.1386 22.7397 13.4463 22.7397 13.8258V14.0144V14.1409C22.7397 14.5548 22.4039 14.8903 21.9896 14.8903C21.089 14.8903 20.9776 14.9819 20.6485 15.9933C20.5227 16.3802 20.2759 16.964 20.1003 17.2909C19.6472 18.1336 19.6753 18.5031 20.2389 19.114C20.4949 19.3914 20.4862 19.8212 20.2191 20.088L20.1357 20.1714L20.0522 20.2547C19.7852 20.5215 19.3549 20.5302 19.0773 20.2745C18.4658 19.7114 18.0959 19.6834 17.2524 20.136C16.9251 20.3115 16.3407 20.558 15.9534 20.6837C14.941 21.0125 14.8493 21.1237 14.8493 22.0234C14.8493 22.4373 14.5135 22.7728 14.0992 22.7728H13.9726H13.7838C13.4039 22.7728 13.0959 22.4652 13.0959 22.0856C13.0959 21.1837 12.9456 20.9879 12.0279 20.6938C11.6208 20.5633 11.0201 20.3126 10.6928 20.1368C9.84975 19.6833 9.47967 19.7113 8.86794 20.2745C8.59026 20.5302 8.16004 20.5215 7.89298 20.2547L7.80953 20.1714L7.72609 20.088C7.45903 19.8212 7.4503 19.3914 7.7063 19.114C8.26992 18.5031 8.29797 18.1336 7.84493 17.2909C7.66926 16.964 7.42247 16.3802 7.29666 15.9933C6.96756 14.9819 6.85622 14.8903 5.95562 14.8903C5.54133 14.8903 5.20548 14.5548 5.20548 14.1409V14.0144V13.8258C5.20548 13.4463 5.51346 13.1386 5.89337 13.1386C6.79616 13.1386 6.99222 12.9885 7.28657 12.0717C7.41721 11.665 7.66816 11.0648 7.84416 10.7379C8.29808 9.89568 8.27003 9.52596 7.7063 8.91485C7.4503 8.63744 7.45903 8.20764 7.72609 7.94085L7.80953 7.85749L7.89298 7.77413C8.16004 7.50733 8.59026 7.49861 8.86794 7.75436C9.47967 8.31752 9.84975 8.34555 10.6928 7.89208C11.0201 7.71626 11.6208 7.46555 12.0279 7.33505C12.9456 7.04099 13.0959 6.84513 13.0959 5.94323C13.0959 5.5637 13.4039 5.25603 13.7838 5.25603H13.9726H14.0992C14.5135 5.25603 14.8493 5.59154 14.8493 6.00542ZM12.5745 9.83502C11.3832 10.259 10.4441 11.1316 9.89205 12.3273C9.68394 12.778 9.64384 13.0512 9.64384 14.0167C9.64384 15.0984 9.66586 15.2132 10.0051 15.9017C10.4654 16.8358 11.2041 17.573 12.1093 18.0015C12.7648 18.3118 12.9142 18.3389 13.9749 18.3389C15.0502 18.3389 15.1759 18.3153 15.8391 17.9891C16.7443 17.5439 17.5056 16.7834 17.9512 15.8791C18.2778 15.2165 18.3014 15.0909 18.3014 14.0167C18.3014 12.9571 18.2743 12.8078 17.9636 12.1529C17.5359 11.2513 16.7973 10.511 15.8707 10.0553C15.2421 9.74613 15.0128 9.69412 14.1482 9.66424C13.3842 9.63796 13.0158 9.67792 12.5745 9.83502ZM15.1771 11.7562C17.5328 12.9278 16.6216 16.5689 13.9726 16.5689C11.5328 16.5689 10.4656 13.443 12.4016 11.9678C13.1913 11.3661 14.2331 11.2867 15.1771 11.7562ZM48.7117 14.134C49.7159 14.3491 50.5422 15.2317 50.7268 16.2861C50.7593 16.4719 50.6162 16.6419 50.4275 16.6419H47.9615C45.1696 16.6419 45.1313 16.645 44.9073 16.8883C44.7678 17.0397 44.6502 17.3666 44.6021 17.7367C44.5019 18.5058 44.2968 19.0013 44.0164 19.1512C43.7097 19.3152 35.0848 19.3152 34.7781 19.1512C34.4978 19.0013 34.2926 18.5058 34.1924 17.7367C34.1443 17.3666 34.0267 17.0397 33.8872 16.8883C33.6632 16.645 33.6249 16.6419 30.833 16.6419H28.367C28.1783 16.6419 28.0352 16.4719 28.0677 16.2861C28.2445 15.2763 28.9999 14.423 29.9412 14.1701C30.6372 13.9831 47.8529 13.95 48.7117 14.134ZM35.8904 16.6419C35.8904 17.1257 36.2829 17.5178 36.7671 17.5178H39.3973H42.0274C42.5116 17.5178 42.9041 17.1257 42.9041 16.6419C42.9041 16.1582 42.5116 15.7661 42.0274 15.7661H39.3973H36.7671C36.2829 15.7661 35.8904 16.1582 35.8904 16.6419ZM32.5634 18.9553C32.7852 19.7156 33.3495 20.4767 33.9076 20.7686C34.2249 20.9345 34.5778 21.0211 34.9359 21.0211H39.3973H43.8586C44.2168 21.0211 44.5696 20.9345 44.8869 20.7686C45.445 20.4767 46.0093 19.7156 46.2311 18.9553C46.319 18.6541 46.5934 18.4455 46.9074 18.4413L48.5867 18.4187C49.8012 18.4024 50.7945 19.3815 50.7945 20.5949V33.7185V43.793C50.7945 46.2702 50.7945 47.5089 50.0242 48.2784C49.2538 49.048 48.014 49.048 45.5342 49.048H39.3973H33.2603C30.7806 49.048 29.5407 49.048 28.7703 48.2784C28 47.5089 28 46.2702 28 43.793V33.7185V20.5949C28 19.3815 28.9933 18.4024 30.2078 18.4187L31.8871 18.4413C32.2011 18.4455 32.4756 18.6541 32.5634 18.9553ZM21.2245 23.902C21.024 24.1154 20.9863 24.2843 20.9863 24.9704V25.0246C20.9863 25.481 20.6994 25.8883 20.2694 26.0423C19.8296 26.1999 19.3385 26.0971 18.9991 25.7764L18.947 25.7271C18.0431 24.8732 17.9067 24.9197 16.1375 26.6873C14.3682 28.4547 14.3216 28.5909 15.1764 29.4939L15.2257 29.546C15.5467 29.8851 15.6497 30.3757 15.4919 30.815C15.3377 31.2446 14.9301 31.5312 14.4732 31.5312H14.4036C13.6765 31.5312 13.5426 31.563 13.3341 31.7846C13.1081 32.0251 13.0959 32.137 13.0959 33.9742V35.0346C13.0959 35.5183 13.4884 35.9104 13.9726 35.9104C14.4568 35.9104 14.8493 35.5183 14.8493 35.0346V34.5967V33.9701C14.8493 33.5906 15.1573 33.2829 15.5372 33.2829C16.44 33.2829 16.6361 33.1328 16.9304 32.216C17.061 31.8093 17.312 31.2091 17.488 30.8822C17.9419 30.04 17.9139 29.6703 17.3501 29.0592C17.0941 28.7818 17.1029 28.352 17.3699 28.0852L17.4534 28.0018L17.5368 27.9184C17.8039 27.6516 18.2341 27.6429 18.5118 27.8987C19.1235 28.4618 19.4936 28.4899 20.3367 28.0364C20.6639 27.8606 21.2647 27.6099 21.6718 27.4794C22.5895 27.1853 22.7397 26.9894 22.7397 26.0875C22.7397 25.708 23.0477 25.4003 23.4276 25.4003H24.0548H24.4932C24.9773 25.4003 25.3699 25.0082 25.3699 24.5245C25.3699 24.0408 24.9773 23.6487 24.4932 23.6487H23.4163C21.5161 23.6487 21.4563 23.6556 21.2245 23.902ZM37.863 24.6004C37.0648 24.7344 35.878 25.127 35.1022 25.5138C32.6873 26.7176 30.8263 28.9507 30.0765 31.544C29.741 32.7046 29.6643 34.8019 29.9125 36.0279C30.6842 39.8387 33.7139 42.8655 37.5262 43.6343C38.7504 43.8813 40.8539 43.8051 42.0078 43.4721C44.6357 42.7136 46.8376 40.862 48.0942 38.3541C48.7067 37.1318 48.9435 36.1587 49.0102 34.5887C49.0764 33.0339 48.9013 31.8822 48.4122 30.6554C47.2179 27.6592 44.4652 25.3382 41.3471 24.6979C40.5673 24.5379 38.5685 24.4818 37.863 24.6004ZM41.4574 26.6134C44.1252 27.3222 46.2564 29.4635 46.9733 32.1553C47.28 33.3068 47.281 34.9884 46.9756 36.1451C46.0601 39.6133 42.9888 41.9689 39.3973 41.958C34.99 41.9445 31.6096 38.5685 31.5879 34.1587C31.5626 28.9891 36.4206 25.275 41.4574 26.6134ZM40.0833 30.462L38.3329 32.2106C37.9534 32.5898 37.3386 32.5911 36.9574 32.2137C35.8944 31.1612 35.8653 31.1697 33.9438 33.0927C32.5322 34.5055 32.3836 34.6906 32.3836 35.0369C32.3836 35.3897 32.5736 35.6092 34.8228 37.8546C37.0716 40.0995 37.2919 40.2896 37.6453 40.2896C38.0034 40.2896 38.3024 40.0159 42.2197 36.1015C46.1418 32.1823 46.411 31.8887 46.411 31.5293C46.411 31.181 46.2654 31 44.8479 29.5865C43.4347 28.1773 43.2482 28.0279 42.9025 28.0279C42.55 28.0279 42.3282 28.2193 40.0833 30.462ZM22.3327 29.9384C20.7479 30.4331 19.4268 31.9841 19.2663 33.5383C19.232 33.8701 19.4926 34.1587 19.8265 34.1587H20.0922C20.9738 34.1587 20.9828 34.1559 21.0489 33.8577C21.2184 33.0927 21.3761 32.7782 21.8054 32.3495C22.2345 31.9206 22.5494 31.7631 23.3151 31.5937C23.613 31.5278 23.6164 31.5173 23.6164 30.6533V30.1902C23.6164 29.9646 23.4312 29.7828 23.2055 29.7869C22.9795 29.7909 22.5867 29.859 22.3327 29.9384ZM43.6181 30.876C43.9788 31.2402 43.9773 31.8271 43.6146 32.1894L40.9571 34.8442L39.205 36.5946C38.3429 37.4559 36.9452 37.4559 36.0831 36.5947L35.2053 35.7177C34.8279 35.3408 34.8279 34.7297 35.2053 34.3527C35.583 33.9754 36.1978 33.9767 36.5772 34.3524C37.6847 35.449 37.5582 35.5056 40.4384 32.626C41.7634 31.3013 42.8741 30.2175 42.9066 30.2175C42.9392 30.2175 43.2593 30.5138 43.6181 30.876ZM3.45205 41.1655C3.45205 41.6492 3.84457 42.0413 4.32877 42.0413C4.81296 42.0413 5.20548 41.6492 5.20548 41.1655C5.20548 40.6817 4.81296 40.2896 4.32877 40.2896C3.84457 40.2896 3.45205 40.6817 3.45205 41.1655ZM6.9589 41.1655C6.9589 41.6492 7.35142 42.0413 7.83562 42.0413H9.58904H11.3425C11.8267 42.0413 12.2192 41.6492 12.2192 41.1655C12.2192 40.6817 11.8267 40.2896 11.3425 40.2896H9.58904H7.83562C7.35142 40.2896 6.9589 40.6817 6.9589 41.1655ZM50.7603 51.5857C50.6428 52.9859 49.8991 53.9291 48.7117 54.1835C47.9359 54.3497 30.8586 54.3497 30.0828 54.1835C28.8955 53.9291 28.1517 52.9859 28.0342 51.5857C27.9987 51.1626 28.3328 50.7997 28.7577 50.7997H39.3973H50.0368C50.4617 50.7997 50.7958 51.1626 50.7603 51.5857ZM35.8904 52.5514C35.8904 53.0351 36.2829 53.4272 36.7671 53.4272H39.3973H42.0274C42.5116 53.4272 42.9041 53.0351 42.9041 52.5514C42.9041 52.0677 42.5116 51.6755 42.0274 51.6755H39.3973H36.7671C36.2829 51.6755 35.8904 52.0677 35.8904 52.5514Z" fill="#33C24F"/>
</svg>
