<svg width="56" height="56" viewBox="0 0 56 56" fill="none" xmlns="http://www.w3.org/2000/svg">
<path fill-rule="evenodd" clip-rule="evenodd" d="M26.8183 0.74025C24.8746 2.67575 23.1098 5.4262 22.2328 7.8867C22.01 8.51189 21.7933 9.226 21.7514 9.47352C21.6825 9.88061 21.4423 10.1418 19.2376 12.2069L18.4419 12.9523C17.6318 13.7111 17.2267 14.0905 17.0134 14.5731C16.8 15.0558 16.8 15.5926 16.8 16.6662V17.0698C16.8 19.6179 16.8033 19.6523 17.0675 19.885C17.3228 20.1098 17.4557 20.122 19.9482 20.1502L21.8313 20.1714C22.2653 20.1763 22.6452 20.4458 22.7682 20.8359C23.0057 21.5893 23.3091 21.875 23.8713 21.875C24.0896 21.875 24.2667 22.041 24.2667 22.2457V23.3872C24.2667 25.5364 23.9622 25.375 28.0163 25.375C32.0371 25.375 31.7333 25.5387 31.7333 23.3719V22.2457C31.7333 22.041 31.9104 21.875 32.1287 21.875C32.6909 21.875 32.9943 21.5893 33.2318 20.8359C33.3548 20.4458 33.7347 20.1763 34.1687 20.1714L36.0518 20.1502C38.5443 20.122 38.6772 20.1098 38.9325 19.885C39.1967 19.6523 39.2 19.6179 39.2 17.0698V16.6662C39.2 15.5926 39.2 15.0558 38.9866 14.5731C38.7733 14.0905 38.3682 13.7111 37.5581 12.9523L36.7624 12.2069C34.5577 10.1418 34.3175 9.88061 34.2486 9.47352C34.2067 9.226 33.99 8.51189 33.7672 7.8867C32.8743 5.38202 31.0402 2.55248 29.0623 0.628906C28.5063 0.0882656 28.3557 0 27.9886 0C27.6123 0 27.4732 0.0879375 26.8183 0.74025ZM12.4304 1.96317C12.3171 2.08053 11.9453 2.73263 11.6039 3.41239C11.2152 4.18654 10.446 4.73278 9.5459 4.87408C7.63922 5.17333 7.46667 5.27002 7.46667 6.03991C7.46667 6.31531 7.6629 6.56162 8.57838 7.4352L8.64288 7.49674C8.69727 7.54864 8.72446 7.5746 8.74958 7.59986C9.32077 8.17439 9.58754 8.9585 9.47669 9.73697C9.47182 9.77121 9.46567 9.80713 9.45338 9.87897C9.15588 11.6174 9.15682 11.657 9.50308 11.9815C9.95225 12.4027 10.3616 12.3316 11.7923 11.5842C12.5845 11.1703 13.5488 11.1703 14.341 11.5842C15.7717 12.3316 16.1811 12.4027 16.6302 11.9815C16.9787 11.6549 16.9823 11.4869 16.6777 9.81302C16.5277 8.98859 16.8092 8.14677 17.4344 7.55019L17.5527 7.43728C18.4702 6.56184 18.6667 6.31542 18.6667 6.03991C18.6667 5.27505 18.401 5.12214 16.65 4.87823C15.9586 4.78188 15.3502 4.70312 15.298 4.70312C15.2459 4.70312 14.9253 4.14947 14.5857 3.47266C14.2461 2.79595 13.8612 2.1315 13.7304 1.99609C13.422 1.67683 12.7238 1.65922 12.4304 1.96317ZM43.2304 1.96317C43.1171 2.08053 42.7453 2.73263 42.4039 3.41239C42.0152 4.18654 41.246 4.73278 40.3459 4.87408C38.4392 5.17333 38.2667 5.27002 38.2667 6.03991C38.2667 6.31531 38.4629 6.56162 39.3784 7.4352L39.4429 7.49674C39.4973 7.54864 39.5245 7.57459 39.5496 7.59986C40.1208 8.17439 40.3875 8.9585 40.2767 9.73698C40.2718 9.77121 40.2657 9.80713 40.2534 9.87897C39.9559 11.6174 39.9568 11.657 40.3031 11.9815C40.7522 12.4027 41.1616 12.3316 42.5923 11.5842C43.3845 11.1703 44.3488 11.1703 45.141 11.5842C46.5717 12.3316 46.9811 12.4027 47.4303 11.9815C47.7787 11.6549 47.7823 11.4869 47.4777 9.81302C47.3277 8.98859 47.6092 8.14677 48.2344 7.55019L48.3527 7.43728C49.2702 6.56184 49.4667 6.31542 49.4667 6.03991C49.4667 5.27505 49.201 5.12214 47.45 4.87823C46.7586 4.78188 46.1502 4.70312 46.098 4.70312C46.0459 4.70312 45.7253 4.14947 45.3857 3.47266C45.046 2.79595 44.6612 2.1315 44.5304 1.99609C44.222 1.67683 43.5238 1.65922 43.2304 1.96317ZM28.8009 3.16138C29.7544 4.31692 31.2667 6.63534 31.2667 6.9417C31.2667 6.97375 29.7967 7 28 7C26.2033 7 24.7333 6.97375 24.7333 6.9417C24.7333 6.48189 27.6767 2.29688 28 2.29688C28.0482 2.29688 28.4086 2.68592 28.8009 3.16138ZM13.4167 5.46864C13.7913 6.21852 13.9624 6.33402 14.9237 6.48561C15.2719 6.5405 15.4074 6.94216 15.156 7.17476L15.1125 7.21503C14.4102 7.86505 14.3501 8.0815 14.5727 9.16016C14.6255 9.41588 14.6487 9.625 14.6243 9.625C14.5998 9.625 14.3008 9.47734 13.9596 9.29688C13.1881 8.88869 12.9257 8.88869 12.1917 9.29688C11.8708 9.47527 11.576 9.62216 11.5365 9.62314C11.497 9.62413 11.5079 9.41588 11.5606 9.16016C11.7832 8.0815 11.7231 7.86505 11.0208 7.21503L10.9773 7.17476C10.726 6.94216 10.8614 6.5405 11.2097 6.48561C12.1709 6.33402 12.342 6.21852 12.7167 5.46864C12.8669 5.16797 13.0244 4.92188 13.0667 4.92188C13.1089 4.92188 13.2664 5.16797 13.4167 5.46864ZM44.2167 5.46864C44.5913 6.21852 44.7624 6.33402 45.7236 6.48561C46.0719 6.5405 46.2074 6.94216 45.956 7.17477L45.9125 7.21503C45.2102 7.86505 45.1501 8.0815 45.3727 9.16016C45.4254 9.41588 45.4487 9.625 45.4243 9.625C45.3998 9.625 45.1008 9.47734 44.7596 9.29688C43.9881 8.88869 43.7257 8.88869 42.9917 9.29688C42.6708 9.47527 42.376 9.62216 42.3365 9.62314C42.297 9.62413 42.3079 9.41588 42.3606 9.16016C42.5832 8.0815 42.5231 7.86505 41.8208 7.21503L41.7773 7.17477C41.526 6.94216 41.6614 6.5405 42.0097 6.48561C42.9709 6.33402 43.1421 6.21852 43.5167 5.46864C43.6669 5.16797 43.8244 4.92188 43.8667 4.92188C43.9089 4.92188 44.0664 5.16797 44.2167 5.46864ZM32.2462 9.53105C32.8427 11.8479 32.6759 15.1316 31.7733 18.8398C31.5903 19.5917 30.877 20.125 30.0544 20.125H28H25.9457C25.123 20.125 24.4097 19.5917 24.2265 18.8398C23.3195 15.115 23.1541 11.8604 23.7536 9.53203C23.8716 9.07326 24.3095 8.75 24.8129 8.75H28H31.1882C31.6909 8.75 32.1283 9.07285 32.2462 9.53105ZM26.95 10.5959C25.9466 10.9049 25.093 11.5852 24.6002 12.4688C24.3679 12.8851 24.3257 13.1211 24.3259 14C24.326 14.9146 24.3633 15.1046 24.6363 15.5859C25.0081 16.2413 25.6513 16.8365 26.3667 17.1873C26.8107 17.405 27.0627 17.4447 28 17.4447C28.9373 17.4447 29.1893 17.405 29.6333 17.1873C30.3487 16.8365 30.9919 16.2413 31.3637 15.5859C31.6367 15.1046 31.674 14.9146 31.6741 14C31.6744 12.8227 31.4745 12.3212 30.7001 11.557C30.0126 10.8783 29.2665 10.5777 28.175 10.539C27.6617 10.521 27.1104 10.5466 26.95 10.5959ZM28.4911 12.3639C29.8048 12.706 30.2425 14.2872 29.2744 15.1947C27.9829 16.4055 25.7743 15.2184 26.2484 13.5683C26.397 13.0508 26.9418 12.5093 27.4534 12.3705C27.9543 12.2347 27.9938 12.2345 28.4911 12.3639ZM21.7538 16.401C21.8539 17.0356 21.9682 17.7393 22.0081 17.9648C22.0461 18.1796 21.8693 18.375 21.6371 18.375H20.3736H20.3274C19.4102 18.375 18.6667 17.6779 18.6667 16.818C18.6667 16.3538 18.6667 16.1217 18.7073 15.9006C18.7777 15.5172 18.9382 15.1532 19.1771 14.835C19.3148 14.6516 19.4896 14.4872 19.8392 14.1585L20.0375 13.972L20.441 13.5926C20.8156 13.2402 21.4584 13.4685 21.4901 13.9651C21.5352 14.6704 21.6538 15.7665 21.7538 16.401ZM37.3333 16.8147C37.3333 17.6764 36.5882 18.375 35.669 18.375H35.6267H34.4224C34.159 18.375 33.9581 18.154 34 17.9102C34.3225 16.0336 34.4287 15.1989 34.4947 14.0189C34.5238 13.4986 35.1963 13.2562 35.5898 13.6241L35.9518 13.9626L36.155 14.1526C36.5047 14.4796 36.6796 14.6431 36.8176 14.8257C37.0597 15.1458 37.2221 15.5128 37.293 15.8995C37.3333 16.12 37.3333 16.3516 37.3333 16.8147ZM3.44167 13.385C2.74657 13.6923 2.4297 13.9948 2.1098 14.6562C1.26653 16.4001 2.6236 18.3728 4.66667 18.3728C5.3879 18.3728 6.30933 18.0262 6.73027 17.5965C7.7154 16.5909 7.6685 14.7042 6.63623 13.8154C5.82073 13.1132 4.46845 12.9311 3.44167 13.385ZM49.175 13.385C48.4799 13.6923 48.163 13.9948 47.8431 14.6562C46.9999 16.4001 48.3569 18.3728 50.4 18.3728C51.1212 18.3728 52.0427 18.0262 52.4636 17.5965C53.4487 16.5909 53.4018 14.7042 52.3696 13.8154C51.5541 13.1132 50.2018 12.9311 49.175 13.385ZM5.29865 15.2085C5.59813 15.4781 5.58693 16.0297 5.2759 16.3212C4.74927 16.8149 3.81115 16.4567 3.81115 15.7619C3.81115 14.9918 4.69315 14.6636 5.29865 15.2085ZM51.032 15.2085C51.3315 15.4781 51.3203 16.0297 51.0092 16.3212C50.4826 16.8149 49.5445 16.4567 49.5445 15.7619C49.5445 14.9918 50.4265 14.6636 51.032 15.2085ZM8.40898 17.4933C8.27575 17.9564 8.16667 18.3626 8.16667 18.3961C8.16667 18.4296 8.33735 18.4888 8.54583 18.5275C9.23965 18.6563 11.2478 19.6619 12.0361 20.2753C13.4787 21.3977 14.5951 22.96 15.1723 24.6641C15.315 25.0852 15.4494 25.4598 15.4709 25.4964C15.5062 25.5562 17.2583 25.3154 17.3276 25.2412C17.3945 25.1695 16.9941 23.9439 16.6304 23.1074C15.3627 20.1923 12.4353 17.7191 9.15787 16.7944C8.88049 16.7161 8.58894 16.8681 8.51348 17.1303L8.40898 17.4933ZM45.5237 17.1094C42.6644 18.19 40.4188 20.1907 39.13 22.8059C38.7661 23.5441 38.2233 25.1521 38.3103 25.2337C38.3326 25.2546 38.7559 25.3376 39.2508 25.4183L39.8514 25.5163C40.0252 25.5446 40.196 25.4535 40.2588 25.2989C40.3181 25.1524 40.3667 24.9826 40.3667 24.9212C40.3667 24.6018 41.1602 23.0254 41.7132 22.2462C42.9016 20.5719 44.9965 19.0933 46.9 18.5851C47.1888 18.508 47.4433 18.4325 47.4658 18.4173C47.4882 18.4021 47.4518 18.2264 47.3849 18.0269C47.3179 17.8274 47.2057 17.4549 47.1354 17.1992C46.9762 16.6196 46.8396 16.6121 45.5237 17.1094ZM2.00597 20.1009C1.89058 20.1761 1.8732 20.403 1.93457 21.0376L1.93755 21.0685C1.98171 21.5252 2.39015 21.875 2.87933 21.875C6.92043 21.875 10.9391 24.7013 14.312 29.9155C14.644 30.4288 14.9349 30.9027 14.9583 30.9685C15.0114 31.1181 16.6833 30.3453 16.6833 30.1713C16.6833 29.9485 15.2776 27.8312 14.3255 26.6199C13.1262 25.0942 10.7528 22.8817 9.43705 22.0628C8.13878 21.2548 6.72455 20.6391 5.49208 20.3451C4.43088 20.0919 2.25388 19.9395 2.00597 20.1009ZM51.7417 20.1207C50.0028 20.3836 48.1758 21.089 46.581 22.1133C45.332 22.9156 42.9166 25.1882 41.7912 26.6199C40.8391 27.8312 39.4333 29.9485 39.4333 30.1713C39.4333 30.283 41.0559 31.1224 41.1165 31.0422C41.1307 31.0232 41.3167 30.7125 41.5298 30.3516C42.5633 28.6018 44.2885 26.5076 45.8628 25.092C48.1567 23.0297 50.363 22.0254 52.8645 21.905L53.2291 21.8874C53.7311 21.8633 54.1377 21.4967 54.183 21.0273C54.2266 20.5774 54.229 20.1783 54.1885 20.1402C54.0759 20.0347 52.3992 20.0213 51.7417 20.1207ZM19.6 21.875C19.6 22.3582 20.0179 22.75 20.5333 22.75C21.0488 22.75 21.4667 22.3582 21.4667 21.875C21.4667 21.3918 21.0488 21 20.5333 21C20.0179 21 19.6 21.3918 19.6 21.875ZM34.5333 21.875C34.5333 22.3582 34.9512 22.75 35.4667 22.75C35.9821 22.75 36.4 22.3582 36.4 21.875C36.4 21.3918 35.9821 21 35.4667 21C34.9512 21 34.5333 21.3918 34.5333 21.875ZM29.8667 22.75C29.8667 23.2332 29.4488 23.625 28.9333 23.625H28H27.0667C26.5512 23.625 26.1333 23.2332 26.1333 22.75C26.1333 22.2668 26.5512 21.875 27.0667 21.875H28H28.9333C29.4488 21.875 29.8667 22.2668 29.8667 22.75ZM3.44167 24.76C2.74657 25.0673 2.4297 25.3697 2.1098 26.0312C1.26653 27.7751 2.6236 29.7478 4.66667 29.7478C5.3879 29.7478 6.30933 29.4012 6.73027 28.9715C7.7154 27.9659 7.6685 26.0792 6.63623 25.1904C5.82073 24.4882 4.46845 24.3061 3.44167 24.76ZM49.175 24.76C48.4799 25.0673 48.163 25.3697 47.8431 26.0312C46.9999 27.7751 48.3569 29.7478 50.4 29.7478C51.1212 29.7478 52.0427 29.4012 52.4636 28.9715C53.4487 27.9659 53.4018 26.0792 52.3696 25.1904C51.5541 24.4882 50.2018 24.3061 49.175 24.76ZM5.29865 26.5835C5.59813 26.8531 5.58693 27.4047 5.2759 27.6962C4.74927 28.1899 3.81115 27.8317 3.81115 27.1369C3.81115 26.3668 4.69315 26.0386 5.29865 26.5835ZM23.3333 27.5625V28C23.3333 28.4832 23.7512 28.875 24.2667 28.875C24.7821 28.875 25.2 28.4832 25.2 28V27.5625V27.125C25.2 26.6418 24.7821 26.25 24.2667 26.25C23.7512 26.25 23.3333 26.6418 23.3333 27.125V27.5625ZM27.0667 28.4375V29.75C27.0667 30.2332 27.4845 30.625 28 30.625C28.5155 30.625 28.9333 30.2332 28.9333 29.75V28.4375V27.125C28.9333 26.6418 28.5155 26.25 28 26.25C27.4845 26.25 27.0667 26.6418 27.0667 27.125V28.4375ZM30.8 27.5625V28C30.8 28.4832 31.2179 28.875 31.7333 28.875C32.2488 28.875 32.6667 28.4832 32.6667 28V27.5625V27.125C32.6667 26.6418 32.2488 26.25 31.7333 26.25C31.2179 26.25 30.8 26.6418 30.8 27.125V27.5625ZM51.032 26.5835C51.3315 26.8531 51.3203 27.4047 51.0092 27.6962C50.4826 28.1899 49.5445 27.8317 49.5445 27.1369C49.5445 26.3668 50.4265 26.0386 51.032 26.5835ZM4.93605 31.7461C4.55618 32.139 0 41.6514 0 42.0516C0 42.2737 0.0975332 42.4853 0.269967 42.6372C0.532817 42.8687 0.62055 42.875 3.53663 42.875C3.71928 42.875 3.8106 42.875 3.88774 42.879C5.31264 42.9528 6.45038 44.0194 6.52907 45.3552C6.53333 45.4276 6.53333 45.5132 6.53333 45.6844V49.1997V55.177C6.53333 55.3986 6.63103 55.6104 6.8033 55.7622C6.9768 55.915 7.20587 56 7.44389 56H28.0163H48.5888C48.8252 56 49.0511 55.9084 49.213 55.7469C49.376 55.5842 49.4667 55.3695 49.4667 55.1464V49.1844V45.6997C49.4667 45.5143 49.4667 45.4215 49.4717 45.3432C49.5563 44.0169 50.6847 42.959 52.0994 42.8797C52.183 42.875 52.2819 42.875 52.4797 42.875C55.4783 42.875 55.4939 42.8738 55.7464 42.6219C55.892 42.4765 56 42.2271 56 42.0363C56 41.6505 51.4311 32.1258 51.0639 31.7461C50.8289 31.503 50.7893 31.5 47.813 31.5H45.7333C45.2179 31.5 44.8 31.8918 44.8 32.375C44.8 32.8582 45.2179 33.25 45.7333 33.25H47.281C47.9352 33.25 48.2622 33.25 48.5579 33.3106C49.2152 33.4454 49.7988 33.7976 50.2018 34.3027C50.383 34.5299 50.5185 34.809 50.7893 35.3672L51.6269 37.0935C52.6525 39.2075 53.5093 40.9796 53.5308 41.0317C53.5526 41.0844 48.9007 41.1138 42.9906 41.0982L36.3219 41.0806C34.4312 41.0756 33.4859 41.0731 32.7651 40.5985C32.0443 40.1238 31.7212 39.2909 31.0749 37.6251L30.9057 37.1889C30.0776 35.0541 29.4 33.2946 29.4 33.2788C29.4 33.2629 31.605 33.25 34.3 33.25H38.2667C38.7821 33.25 39.2 32.8582 39.2 32.375C39.2 31.8918 38.7821 31.5 38.2667 31.5H22.187H5.52838C5.30274 31.5 5.08761 31.5894 4.93605 31.7461ZM41.0667 32.375C41.0667 32.8582 41.4845 33.25 42 33.25C42.5155 33.25 42.9333 32.8582 42.9333 32.375C42.9333 31.8918 42.5155 31.5 42 31.5C41.4845 31.5 41.0667 31.8918 41.0667 32.375ZM26.6 33.2788C26.6 33.2946 25.9224 35.0541 25.0943 37.1889L24.9251 37.6251C24.2788 39.2909 23.9557 40.1238 23.2349 40.5985C22.5141 41.0731 21.5688 41.0756 19.6781 41.0806L13.0228 41.0982C2.78297 41.1253 2.45968 41.1199 2.541 40.9238C2.5872 40.8125 3.43875 39.0409 4.43333 36.9868L4.75053 36.3317C5.47459 34.8364 5.83662 34.0887 6.5291 33.6704C7.22159 33.2521 8.09742 33.252 9.8491 33.2518L16.4208 33.2511C22.0194 33.2505 26.6 33.2629 26.6 33.2788ZM27.0667 45.9375V49C27.0667 51.4749 27.0667 52.7123 26.2466 53.4812C25.4265 54.25 24.1065 54.25 21.4667 54.25H17.7333H14C11.3601 54.25 10.0402 54.25 9.2201 53.4812C8.4 52.7123 8.4 51.4749 8.4 49V48.5625V48.125C8.4 45.6501 8.4 44.4127 9.2201 43.6438C10.0402 42.875 11.3601 42.875 14 42.875H16.5464H24.3385C24.564 42.875 24.7789 42.7856 24.9303 42.6289C25.0611 42.4935 25.5805 41.3122 26.0846 40.0039C26.5888 38.6956 27.016 37.625 27.034 37.625C27.052 37.625 27.0667 41.3656 27.0667 45.9375ZM29.9273 40.0312C30.4256 41.3246 30.9399 42.4935 31.0703 42.6289C31.2212 42.7856 31.4359 42.875 31.6611 42.875H39.4536H42C44.6399 42.875 45.9598 42.875 46.7799 43.6438C47.6 44.4127 47.6 45.6501 47.6 48.125V48.5625V49C47.6 51.4749 47.6 52.7123 46.7799 53.4812C45.9598 54.25 44.6399 54.25 42 54.25H38.2667H34.5333C31.8935 54.25 30.5735 54.25 29.7534 53.4812C28.9333 52.7123 28.9333 51.4749 28.9333 49V45.9192C28.9333 41.3374 28.9532 37.609 28.9774 37.6341C29.0016 37.6592 29.429 38.7379 29.9273 40.0312Z" fill="#33C24F"/>
</svg>
