<svg width="56" height="56" viewBox="0 0 56 56" fill="none" xmlns="http://www.w3.org/2000/svg">
<path fill-rule="evenodd" clip-rule="evenodd" d="M16.1793 0.336736C15.9757 0.542758 15.8597 0.774561 15.8597 0.975272C15.8597 1.14865 16.6464 3.28102 17.6079 5.71389C19.5443 10.6136 19.5971 10.7063 20.3902 10.5987C20.9421 10.5239 21.3297 10.1107 21.3224 9.60563C21.3154 9.1314 17.9241 0.598192 17.6123 0.270459C17.2459 -0.114809 16.5959 -0.0847132 16.1793 0.336736ZM38.7345 0.152068C38.4056 0.312173 38.3961 0.33231 36.3161 5.2494C34.9222 8.54465 34.5602 9.50019 34.6132 9.74427C34.7848 10.5344 35.8109 10.8616 36.3585 10.3008C36.7093 9.94166 40.2464 1.59013 40.2464 1.1211C40.2464 0.656834 40.0874 0.382211 39.7018 0.180394C39.3312 -0.0134573 39.0892 -0.0205387 38.7345 0.152068ZM26.194 11.7436C24.166 11.9727 22.0691 12.6177 20.2556 13.5704C18.6858 14.3951 17.5204 15.2632 16.2434 16.559C13.9259 18.9106 12.4998 21.5916 11.8019 24.9086C11.4411 26.6235 11.4415 29.5439 11.8028 31.326C12.5023 34.7756 13.8291 37.257 16.3165 39.7671C17.7668 41.2307 18.0177 41.5898 18.3066 42.6152C18.6853 43.9593 18.7347 44.7046 18.8005 50.0625L18.862 55.0569C18.8652 55.3171 18.9788 55.5634 19.1739 55.7331C19.3719 55.9053 19.6243 56 19.8854 56H27.9437H36.002C36.2631 56 36.5155 55.9053 36.7135 55.7331C36.9086 55.5635 37.0221 55.3171 37.0251 55.0569L37.0838 50.0072C37.1509 44.2311 37.2174 43.4114 37.7303 42.036C38.0405 41.204 38.1964 41.0013 39.4573 39.7901C40.9256 38.3794 41.8416 37.1325 42.7081 35.3646C43.8929 32.9476 44.3345 30.9797 44.3345 28.1173C44.3345 25.9512 44.1539 24.7894 43.5177 22.8627C41.6385 17.1716 36.7165 12.9333 30.7976 11.9094C29.5638 11.6958 27.3293 11.6155 26.194 11.7436ZM30.0761 14.005C36.2787 14.958 41.0556 19.6805 42.0572 25.8493C42.3357 27.5637 42.2263 29.9869 41.7937 31.6897C41.1033 34.407 39.6777 36.7541 37.5957 38.6016C36.6954 39.4004 36.1076 40.2143 35.7596 41.1443C35.4155 42.0632 35.1102 43.6672 35.0204 45.0278C34.9764 45.6955 34.4351 46.2182 33.7739 46.2318L33.4389 46.2386C32.6134 46.2555 31.9352 45.5831 31.9352 44.7477V43.5183C31.9352 42.0052 31.9678 38.7471 32.0075 36.2781L32.0556 33.2928C32.0691 32.4524 32.7353 31.7723 33.5659 31.7511C34.9288 31.7164 35.1032 31.6878 35.671 31.4057C37.381 30.556 38.1757 28.3702 37.3913 26.6738C36.9873 25.8001 36.5065 25.2981 35.6791 24.8859C35.0598 24.5774 34.8489 24.5283 34.1848 24.5379C33.067 24.5542 32.2575 24.8957 31.4937 25.6735C30.6798 26.5023 30.0812 27.847 30.0775 28.8551C30.0747 29.5774 30.1411 29.5557 27.9398 29.5557H26.5698C26.2082 29.5557 25.9034 29.2827 25.8596 28.9195C25.5346 26.2208 23.9334 24.4846 21.7571 24.4706C20.6804 24.4637 20.0774 24.7178 19.2947 25.5084C18.486 26.3254 18.2145 27.0019 18.2175 28.1925C18.2194 28.8782 18.2714 29.0894 18.598 29.7359C19.0541 30.6388 19.8471 31.3447 20.6896 31.5979C21.0598 31.7091 21.702 31.7686 22.5327 31.7686C23.2407 31.7686 23.8184 32.3419 23.8323 33.058L23.8796 35.5029C23.9193 37.5568 23.9519 40.8181 23.9519 42.7502L23.952 44.7141C23.9521 45.5696 23.2667 46.2632 22.4211 46.2632H21.5736C21.196 46.2632 20.8898 45.9537 20.8895 45.5716C20.8886 44.6492 20.6168 42.8498 20.3338 41.8927C19.9285 40.5224 19.5411 39.9416 17.9848 38.3708C15.6927 36.0575 14.6527 34.2123 13.9832 31.2707C13.6661 29.8769 13.5915 27.3241 13.826 25.8782C14.5734 21.266 17.3676 17.4431 21.4916 15.3898C24.2117 14.0357 27.17 13.5584 30.0761 14.005ZM0.385051 16.2134C0.239933 16.3603 0.0889107 16.6102 0.049542 16.7687C-0.0396937 17.1285 0.168742 17.6574 0.478661 17.8575C0.607921 17.9409 2.64448 18.8438 5.00442 19.8637C9.63494 21.8651 9.65495 21.8706 10.1842 21.3006C10.5441 20.9129 10.5378 20.2471 10.1706 19.88C9.78159 19.491 1.55846 15.9463 1.04524 15.9463C0.772176 15.9463 0.567021 16.0293 0.385051 16.2134ZM50.3073 17.8356C45.5229 19.7835 45.4257 19.8406 45.5317 20.6409C45.6056 21.1979 46.0137 21.5908 46.5132 21.5857C46.99 21.5809 55.3983 18.1626 55.7315 17.8382C56.3401 17.2456 55.8374 16.0437 54.9907 16.0669C54.7906 16.0724 52.6831 16.8683 50.3073 17.8356ZM22.3664 26.7764C22.607 26.8881 22.8881 27.0756 22.9911 27.1929C23.2887 27.532 23.6288 28.4012 23.6992 29.0026C23.7336 29.2969 23.5064 29.5557 23.2134 29.5557H22.5058C21.3956 29.5557 21.2136 29.5286 20.9574 29.3247C20.0918 28.6358 20.1758 27.2804 21.1156 26.7704C21.5803 26.5183 21.8133 26.5194 22.3664 26.7764ZM35.1319 27.0959C35.7401 27.7113 35.6455 28.7552 34.93 29.3247C34.6743 29.5281 34.4916 29.5557 33.3968 29.5557C32.1585 29.5557 32.1539 29.5547 32.1539 29.2907C32.1539 28.7193 32.5843 27.6145 32.9436 27.263C33.4156 26.8015 33.7472 26.6722 34.3271 26.7233C34.6777 26.7542 34.8922 26.8535 35.1319 27.0959ZM29.905 34.0645C29.8776 35.3273 29.8252 38.5885 29.7886 41.3118L29.7464 44.464C29.733 45.4616 28.9299 46.2632 27.9439 46.2632C26.9586 46.2632 26.1569 45.4608 26.1462 44.464L26.0944 39.6521C26.0554 36.016 25.9955 32.7548 25.9612 32.4048C25.928 32.064 26.1926 31.7686 26.531 31.7686H27.9271C29.0398 31.7686 29.9349 32.6945 29.9103 33.82L29.905 34.0645ZM46.2064 35.0819C45.5314 35.3615 45.3243 36.2956 45.8261 36.7972C46.2025 37.1735 54.437 40.7309 54.9318 40.7309C56.0461 40.7309 56.3555 39.2618 55.3494 38.7471C54.5455 38.336 46.7097 34.9776 46.5701 34.9843C46.4903 34.9882 46.3267 35.0321 46.2064 35.0819ZM4.82267 36.8489C2.41713 37.8256 0.39883 38.7089 0.256993 38.8469C-0.328616 39.4172 0.160868 40.6203 0.978534 40.6203C1.50651 40.6203 9.8378 37.2103 10.2004 36.8457C10.5406 36.5037 10.5834 36.1231 10.336 35.639C10.1398 35.2553 9.86273 35.0861 9.44215 35.0932C9.27275 35.0961 7.19397 35.8862 4.82267 36.8489ZM34.8879 51.1869C34.8879 51.2383 34.8879 51.264 34.8875 51.2857C34.8644 52.7183 33.7221 53.8739 32.3062 53.8974C32.2848 53.8977 32.2594 53.8977 32.2086 53.8977H27.9437H23.6787C23.628 53.8977 23.6026 53.8977 23.5811 53.8974C22.1652 53.8739 21.023 52.7183 20.9998 51.2857C20.9995 51.264 20.9995 51.2383 20.9995 51.1869C20.9995 51.1355 20.9995 51.1099 20.9998 51.0881C21.023 49.6556 22.1652 48.4999 23.5811 48.4765C23.6026 48.4761 23.628 48.4761 23.6787 48.4761H27.9437H32.2086C32.2594 48.4761 32.2848 48.4761 32.3062 48.4765C33.7221 48.4999 34.8644 49.6556 34.8875 51.0881C34.8879 51.1099 34.8879 51.1355 34.8879 51.1869Z" fill="#33C24F"/>
</svg>
