<svg width="86" height="16" viewBox="0 0 86 16" fill="none" xmlns="http://www.w3.org/2000/svg">
<path d="M16 0H0V16H16V0Z" fill="#33C24F"/>
<path d="M33.333 0H17.333V16H33.333V0Z" fill="#33C24F"/>
<path d="M50.667 0H34.667V16H50.667V0Z" fill="#33C24F"/>
<path d="M68 0H52V16H68V0Z" fill="#33C24F"/>
<path d="M85.333 0H69.333V16H85.333V0Z" fill="#33C24F"/>
<path d="M8.00039 10.7835L10.4337 10.1669L11.4504 13.3002L8.00039 10.7835ZM13.6004 6.73353H9.31706L8.00039 2.7002L6.68372 6.73353H2.40039L5.86706 9.23353L4.55039 13.2669L8.01706 10.7669L10.1504 9.23353L13.6004 6.73353Z" fill="white"/>
<path d="M25.3334 10.7835L27.7667 10.1669L28.7834 13.3002L25.3334 10.7835ZM30.9334 6.73353H26.6501L25.3334 2.7002L24.0167 6.73353H19.7334L23.2001 9.23353L21.8834 13.2669L25.3501 10.7669L27.4834 9.23353L30.9334 6.73353Z" fill="white"/>
<path d="M42.6664 10.7835L45.0997 10.1669L46.1164 13.3002L42.6664 10.7835ZM48.2664 6.73353H43.9831L42.6664 2.7002L41.3497 6.73353H37.0664L40.5331 9.23353L39.2164 13.2669L42.6831 10.7669L44.8164 9.23353L48.2664 6.73353Z" fill="white"/>
<path d="M60.0004 10.7835L62.4337 10.1669L63.4504 13.3002L60.0004 10.7835ZM65.6004 6.73353H61.3171L60.0004 2.7002L58.6837 6.73353H54.4004L57.8671 9.23353L56.5504 13.2669L60.0171 10.7669L62.1504 9.23353L65.6004 6.73353Z" fill="white"/>
<path d="M77.3334 10.7835L79.7667 10.1669L80.7834 13.3002L77.3334 10.7835ZM82.9334 6.73353H78.6501L77.3334 2.7002L76.0167 6.73353H71.7334L75.2001 9.23353L73.8834 13.2669L77.3501 10.7669L79.4834 9.23353L82.9334 6.73353Z" fill="white"/>
</svg>
