<svg width="16" height="17" viewBox="0 0 16 17" fill="none" xmlns="http://www.w3.org/2000/svg">
<path d="M8 8.17647C9.66884 8.17647 11.0217 6.79382 11.0217 5.08824C11.0217 3.38265 9.66884 2 8 2C6.33116 2 4.97829 3.38265 4.97829 5.08824C4.97829 6.79382 6.33116 8.17647 8 8.17647Z" fill="#33C24F"/>
<path d="M8 10.2353C6.09926 10.2353 4.4099 11.2953 3.33934 12.9381C3.10481 13.298 2.98755 13.4779 3.00105 13.7078C3.01156 13.8868 3.12636 14.1059 3.26629 14.214C3.44601 14.3529 3.69318 14.3529 4.18752 14.3529H11.8125C12.3068 14.3529 12.554 14.3529 12.7337 14.214C12.8736 14.1059 12.9884 13.8868 12.999 13.7078C13.0125 13.4779 12.8952 13.298 12.6607 12.9381C11.5901 11.2953 9.90074 10.2353 8 10.2353Z" fill="#33C24F"/>
<path d="M8 8.17647C9.66884 8.17647 11.0217 6.79382 11.0217 5.08824C11.0217 3.38265 9.66884 2 8 2C6.33116 2 4.97829 3.38265 4.97829 5.08824C4.97829 6.79382 6.33116 8.17647 8 8.17647Z" stroke="#33C24F" stroke-width="1.8" stroke-linecap="round" stroke-linejoin="round"/>
<path d="M8 10.2353C6.09926 10.2353 4.4099 11.2953 3.33934 12.9381C3.10481 13.298 2.98755 13.4779 3.00105 13.7078C3.01156 13.8868 3.12636 14.1059 3.26629 14.214C3.44601 14.3529 3.69318 14.3529 4.18752 14.3529H11.8125C12.3068 14.3529 12.554 14.3529 12.7337 14.214C12.8736 14.1059 12.9884 13.8868 12.999 13.7078C13.0125 13.4779 12.8952 13.298 12.6607 12.9381C11.5901 11.2953 9.90074 10.2353 8 10.2353Z" stroke="#33C24F" stroke-width="1.8" stroke-linecap="round" stroke-linejoin="round"/>
</svg>
