<svg width="2249" height="358" viewBox="0 0 2249 358" fill="none" xmlns="http://www.w3.org/2000/svg">
<path fill-rule="evenodd" clip-rule="evenodd" d="M320 82V140L220 240V130L190 100L7.6294e-06 100L1.52588e-05 0L238 1.52588e-05L320 82ZM0 276L7.62939e-06 218L100 118L100 228L130 258H320V358H82L41 317L0 276Z" fill="#5BD473"/>
<path fill-rule="evenodd" clip-rule="evenodd" d="M1708.1 282.991C1721 291.262 1735.47 295.397 1751.5 295.397C1762.77 295.397 1772.29 293.518 1780.06 289.758C1787.95 285.999 1794.4 281.299 1799.41 275.66C1804.42 269.895 1808.24 264.13 1810.87 258.366H1813.5V292.014H1870.8V11.9258H1812.56V117.382H1810.87C1808.36 111.617 1804.67 105.79 1799.78 99.8997C1794.9 94.0098 1788.51 89.1223 1780.62 85.2374C1772.73 81.2272 1762.9 79.2221 1751.12 79.2221C1735.84 79.2221 1721.75 83.2323 1708.85 91.2527C1695.95 99.1478 1685.61 111.116 1677.85 127.157C1670.08 143.197 1666.2 163.249 1666.2 187.31C1666.2 210.619 1669.96 230.357 1677.47 246.523C1684.99 262.564 1695.2 274.72 1708.1 282.991ZM1793.58 241.448C1787.07 246.586 1779.12 249.155 1769.72 249.155C1760.33 249.155 1752.31 246.523 1745.67 241.26C1739.16 235.996 1734.21 228.728 1730.83 219.454C1727.45 210.055 1725.76 199.278 1725.76 187.122C1725.76 174.966 1727.45 164.314 1730.83 155.165C1734.21 145.892 1739.16 138.623 1745.67 133.36C1752.19 128.097 1760.2 125.465 1769.72 125.465C1779.12 125.465 1787.13 128.034 1793.77 133.172C1800.41 138.185 1805.42 145.328 1808.8 154.602C1812.18 163.75 1813.87 174.59 1813.87 187.122C1813.87 199.528 1812.12 210.368 1808.61 219.642C1805.23 228.916 1800.22 236.184 1793.58 241.448ZM957.134 89.185C948.116 95.8269 941.666 105.664 937.783 118.698H935.528V81.8538H879.352V292.014H937.407V173.211C937.407 164.69 939.286 157.171 943.043 150.654C946.926 144.012 952.25 138.874 959.013 135.24C965.777 131.48 973.355 129.6 981.747 129.6C985.88 129.6 990.327 129.914 995.087 130.54C999.971 131.042 1003.79 131.731 1006.55 132.608V81.1019C1003.92 80.35 1000.91 79.8487 997.529 79.5981C994.272 79.2221 991.141 79.0341 988.135 79.0341C976.486 79.0341 966.153 82.4177 957.134 89.185ZM758.168 296.149C736.624 296.149 718.024 291.763 702.367 282.991C686.71 274.219 674.686 261.749 666.294 245.583C658.027 229.292 653.894 210.055 653.894 187.874C653.894 166.319 658.027 147.396 666.294 131.104C674.686 114.813 686.46 102.093 701.616 92.9445C716.897 83.7962 734.808 79.2221 755.35 79.2221C769.253 79.2221 782.217 81.4779 794.241 85.9893C806.266 90.3755 816.787 97.0174 825.805 105.915C834.824 114.687 841.838 125.778 846.848 139.187C851.858 152.471 854.363 168.073 854.363 185.994V201.784H711.258C711.62 211.75 713.604 220.397 717.21 227.725C721.218 235.746 726.792 241.949 733.931 246.335C741.196 250.596 749.525 252.726 758.919 252.726C765.433 252.726 771.32 251.786 776.58 249.907C781.841 248.027 786.35 245.27 790.108 241.636C793.991 238.001 796.872 233.615 798.75 228.477L852.484 232.049C849.854 244.957 844.343 256.235 835.951 265.885C827.684 275.409 816.975 282.866 803.823 288.254C790.671 293.518 775.453 296.149 758.168 296.149ZM716.458 147.082C713.831 152.715 712.188 158.981 711.529 165.88H798.668C797.976 159.076 796.5 152.936 794.241 147.458C790.985 139.563 786.1 133.485 779.586 129.224C773.198 124.838 765.245 122.645 755.726 122.645C746.206 122.645 738.127 124.838 731.489 129.224C724.976 133.611 719.965 139.563 716.458 147.082ZM632.663 120.013L536.28 243.891V245.395H636.233V292.014H460V257.238L562.771 129.976V128.472H463.382V81.8538H632.663V120.013ZM1108.75 296.149C1087.59 296.149 1069.24 291.638 1053.71 282.615C1038.3 273.467 1026.4 260.809 1018.01 244.643C1009.74 228.352 1005.61 209.429 1005.61 187.874C1005.61 166.068 1009.74 147.082 1018.01 130.916C1026.4 114.625 1038.3 101.968 1053.71 92.9445C1069.24 83.7962 1087.59 79.2221 1108.75 79.2221C1130.05 79.2221 1148.4 83.7962 1163.8 92.9445C1179.34 101.968 1191.23 114.625 1199.5 130.916C1207.89 147.082 1212.09 166.068 1212.09 187.874C1212.09 209.429 1207.89 228.352 1199.5 244.643C1191.23 260.809 1179.34 273.467 1163.8 282.615C1148.4 291.638 1130.05 296.149 1108.75 296.149ZM1109.13 250.659C1118.78 250.659 1126.85 247.964 1133.37 242.575C1139.88 237.061 1144.77 229.542 1148.02 220.018C1151.4 210.494 1153.09 199.654 1153.09 187.498C1153.09 175.216 1151.4 164.376 1148.02 154.977C1144.77 145.579 1139.88 138.185 1133.37 132.796C1126.85 127.407 1118.78 124.713 1109.13 124.713C1099.36 124.713 1091.16 127.407 1084.52 132.796C1078 138.185 1073.06 145.579 1069.68 154.977C1066.42 164.376 1064.79 175.216 1064.79 187.498C1064.79 199.654 1066.42 210.494 1069.68 220.018C1073.06 229.542 1078 237.061 1084.52 242.575C1091.16 247.964 1099.36 250.659 1109.13 250.659ZM1277.1 282.427C1292.5 291.575 1310.92 296.149 1332.33 296.149C1351.12 296.149 1367.34 292.766 1381 285.999C1394.65 279.106 1405.36 269.582 1413.12 257.426C1420.89 245.145 1425.21 230.983 1426.09 214.943H1371.23C1369.6 226.096 1365.34 234.868 1358.45 241.26C1351.56 247.526 1343.11 250.659 1333.09 250.659C1324.07 250.659 1316.18 248.152 1309.41 243.139C1302.77 238.127 1297.58 230.858 1293.82 221.334C1290.19 211.81 1288.37 200.406 1288.37 187.122C1288.37 173.838 1290.19 162.559 1293.82 153.286C1297.58 143.887 1302.77 136.806 1309.41 132.044C1316.18 127.157 1324.07 124.713 1333.09 124.713C1340.22 124.713 1346.49 126.154 1351.87 129.036C1357.26 131.919 1361.58 135.992 1364.84 141.255C1368.09 146.518 1370.22 152.659 1371.23 159.677H1426.09C1425.34 143.385 1420.95 129.224 1412.94 117.194C1404.92 105.163 1394.02 95.8269 1380.24 89.185C1366.59 82.5431 1350.62 79.2221 1332.33 79.2221C1311.04 79.2221 1292.69 83.7962 1277.28 92.9445C1261.88 102.093 1249.98 114.813 1241.59 131.104C1233.32 147.396 1229.19 166.319 1229.19 187.874C1229.19 209.178 1233.32 227.976 1241.59 244.267C1249.85 260.433 1261.69 273.153 1277.1 282.427ZM1545.77 296.149C1524.6 296.149 1506.25 291.638 1490.72 282.615C1475.31 273.467 1463.41 260.809 1455.02 244.643C1446.75 228.352 1442.62 209.429 1442.62 187.874C1442.62 166.068 1446.75 147.082 1455.02 130.916C1463.41 114.625 1475.31 101.968 1490.72 92.9445C1506.25 83.7962 1524.6 79.2221 1545.77 79.2221C1567.06 79.2221 1585.41 83.7962 1600.82 92.9445C1616.35 101.968 1628.25 114.625 1636.51 130.916C1644.91 147.082 1649.1 166.068 1649.1 187.874C1649.1 209.429 1644.91 228.352 1636.51 244.643C1628.25 260.809 1616.35 273.467 1600.82 282.615C1585.41 291.638 1567.06 296.149 1545.77 296.149ZM1546.14 250.659C1555.79 250.659 1563.87 247.964 1570.38 242.575C1576.89 237.061 1581.78 229.542 1585.03 220.018C1588.42 210.494 1590.11 199.654 1590.11 187.498C1590.11 175.216 1588.42 164.376 1585.03 154.977C1581.78 145.579 1576.89 138.185 1570.38 132.796C1563.87 127.407 1555.79 124.713 1546.14 124.713C1536.37 124.713 1528.17 127.407 1521.53 132.796C1515.02 138.185 1510.07 145.579 1506.69 154.977C1503.43 164.376 1501.8 175.216 1501.8 187.498C1501.8 199.654 1503.43 210.494 1506.69 220.018C1510.07 229.542 1515.02 237.061 1521.53 242.575C1528.17 247.964 1536.37 250.659 1546.14 250.659ZM2000.44 296.149C1978.9 296.149 1960.3 291.763 1944.64 282.991C1928.98 274.219 1916.96 261.749 1908.57 245.583C1900.3 229.292 1896.17 210.055 1896.17 187.874C1896.17 166.319 1900.3 147.396 1908.57 131.104C1916.96 114.813 1928.73 102.093 1943.89 92.9445C1959.17 83.7962 1977.08 79.2221 1997.62 79.2221C2011.53 79.2221 2024.49 81.4779 2036.51 85.9893C2048.54 90.3755 2059.06 97.0174 2068.08 105.915C2077.1 114.687 2084.11 125.778 2089.12 139.187C2094.13 152.471 2096.64 168.073 2096.64 185.994V201.784H1953.53C1953.89 211.75 1955.88 220.397 1959.48 227.725C1963.49 235.746 1969.06 241.949 1976.2 246.335C1983.47 250.596 1991.8 252.726 2001.19 252.726C2007.71 252.726 2013.59 251.786 2018.85 249.907C2024.11 248.027 2028.62 245.27 2032.38 241.636C2036.26 238.001 2039.14 233.615 2041.02 228.477L2094.76 232.049C2092.13 244.957 2086.62 256.235 2078.22 265.885C2069.96 275.409 2059.25 282.866 2046.1 288.254C2032.94 293.518 2017.73 296.149 2000.44 296.149ZM1958.73 147.082C1956.1 152.715 1954.46 158.981 1953.8 165.88H2040.94C2040.25 159.076 2038.77 152.936 2036.51 147.458C2033.26 139.563 2028.37 133.485 2021.86 129.224C2015.47 124.838 2007.52 122.645 1998 122.645C1988.48 122.645 1980.4 124.838 1973.76 129.224C1967.25 133.611 1962.24 139.563 1958.73 147.082ZM2199.41 89.185C2190.39 95.8269 2183.94 105.664 2180.06 118.698H2177.8V81.8538H2121.62V292.014H2179.68V173.211C2179.68 164.69 2181.56 157.171 2185.32 150.654C2189.2 144.012 2194.52 138.874 2201.29 135.24C2208.05 131.48 2215.63 129.6 2224.02 129.6C2228.15 129.6 2232.6 129.914 2237.36 130.54C2242.24 131.042 2246.06 131.731 2248.82 132.608V81.1019C2246.19 80.35 2243.18 79.8487 2239.8 79.5981C2236.55 79.2221 2233.41 79.0341 2230.41 79.0341C2218.76 79.0341 2208.43 82.4177 2199.41 89.185Z" fill="#062037"/>
</svg>
